<?xml version="1.0" standalone="no"?><!DOCTYPE svg PUBLIC "-//W3C//DTD SVG 1.1//EN" "http://www.w3.org/Graphics/SVG/1.1/DTD/svg11.dtd" ><svg xmlns="http://www.w3.org/2000/svg"><metadata></metadata><defs><font id="1.200;FTH ;PlayfairDisplay-Italic" horiz-adv-x="1149"><font-face font-family="Playfair Display" font-weight="400" font-stretch="normal" units-per-em="1000" panose-1="0 0 5 0 0 0 0 0 0 0" ascent="1082" descent="-251" x-height="0" bbox="-749 -241 1101 1151" underline-thickness="20" underline-position="-90" unicode-range="U+0000-fb02" /><missing-glyph horiz-adv-x="562" d="M502 772 l0 -772 l-442 0 l0 772 l442 0 ZM466 30 l0 712 l-370 0 l0 -712 l370 0 Z" /><glyph glyph-name=".null" unicode="" d="" /><glyph glyph-name="nonmarkingreturn" unicode="" d="" /><glyph glyph-name="space" unicode=" " d="" /><glyph glyph-name="A" unicode="a" d="M504 84 q3 -33 17 -48 q14 -15 32 -16 l-4 -20 q-40 3 -109 3 q-81 0 -120 -3 l4 20 q34 2 52.5 8.5 q18.5 6.5 26.5 24 q8 17.5 7 51.5 l-9 164 l-246 0 l-75 -106 q-47 -66 -47 -99 q0 -41 74 -43 l-5 -20 q-55 3 -114 3 q-43 0 -75 -3 l5 20 q46 10 100 87 l431 606 l15 0 l40 -629 ZM400 288 l-17 303 l-214 -303 l231 0 Z" /><glyph glyph-name="AE" unicode="æ" d="M727 705 q144 0 207 3 q-13 -36 -38 -118 q-9 -30 -13 -62 l-22 0 q7 39 7 71 q0 47 -21 66.5 q-21 19.5 -67 19.5 l-93 0 q-35 0 -52.5 -5.5 q-17.5 -5.5 -27.5 -22.5 q-10 -17 -20 -55 l-63 -236 l108 0 q28 0 47 15 q19 15 30.5 37 q11.5 22 25.5 60 l22 0 q-16 -49 -27 -95 l-7 -27 q-11 -41 -26 -122 l-22 0 q0 16 3 31 q2 22 2 31 q0 22 -11 35 q-11 13 -41 15 l-109 0 l-64 -240 q-9 -38 -9 -49 q0 -21 14.5 -27.5 q14.5 -6.5 51.5 -6.5 l103 0 q48 0 79 16.5 q31 16.5 54 54 q23 37.5 46 106.5 l22 0 q-8 -22 -21 -72 q-17 -59 -26 -128 q-68 3 -226 3 q-190 0 -288 -3 l4 20 q36 2 54 8 q18 6 28.5 23 q10.5 17 20.5 55 l64 240 l-163 0 l-223 -252 q-15 -18 -22 -28.5 q-7 -10.5 -7 -18.5 q0 -23 62 -27 l0 -20 q-27 3 -86 3 q-43 0 -67 -3 l0 20 q31 2 86 64 l496 561 q1 25 -13 33 q-14 8 -54 10 l5 20 q72 -2 116 -2 l59 67 l26 0 l-60 -67 q59 -1 146 -1 ZM431 366 l63 236 l2 7 l-215 -243 l150 0 Z" /><glyph glyph-name="B" unicode="b" d="M395 374 q87 -14 125.5 -57 q38.5 -43 38.5 -106 q0 -68 -43 -115.5 q-43 -47.5 -111.5 -71.5 q-68.5 -24 -143.5 -24 l-73 1 q-60 2 -99 2 q-80 0 -122 -3 l4 20 q36 2 54 8 q18 6 28.5 23 q10.5 17 20.5 55 l132 496 q8 30 8 48 q0 19 -14.5 28 q-14.5 9 -52.5 10 l5 20 q40 -3 119 -3 q45 0 68 1 l73 1 q93 0 140.5 -34 q47.5 -34 47.5 -94 q0 -72 -59.5 -125 q-59.5 -53 -145.5 -80 ZM238 376 l66 0 q59 0 103.5 27 q44.5 27 69 72 q24.5 45 24.5 97 q0 59 -26 87.5 q-26 28.5 -82 28.5 q-44 0 -62 -14 q-18 -14 -29 -57 l-64 -241 ZM218 23 q127 0 184 51.5 q57 51.5 57 151.5 q0 133 -143 133 l-82 0 l-67 -253 q-9 -36 -9 -49 q0 -18 13.5 -26 q13.5 -8 46.5 -8 Z" /><glyph glyph-name="C" unicode="c" d="M712 708 q-33 -86 -64 -230 l-22 0 q6 39 6 69 q0 48 -16 79 q-18 37 -53.5 57.5 q-35.5 20.5 -77.5 20.5 q-83 0 -160.5 -78 q-77.5 -78 -125.5 -196.5 q-48 -118.5 -48 -229.5 q0 -96 38 -146 q38 -50 105 -50 q44 0 93 20.5 q49 20.5 85 57.5 q26 26 45 60.5 q19 34.5 45 97.5 l22 0 q-47 -173 -59 -240 l-22 0 q3 21 3 34 q0 26 -12 26 q-7 0 -21 -9 q-52 -34 -91 -49.5 q-39 -15.5 -98 -15.5 q-111 0 -172 60 q-61 60 -61 175 q0 115 57.5 232 q57.5 117 158 193 q100.5 76 220.5 76 q58 0 88.5 -16.5 q30.5 -16.5 60.5 -48.5 q7 -9 15 -9 q9 0 18.5 14.5 q9.5 14.5 21.5 45.5 l21 0 Z" /><glyph glyph-name="D" unicode="d" d="M704 487 q0 -125 -62 -237.5 q-62 -112.5 -170.5 -181 q-108.5 -68.5 -241.5 -68.5 l-58 1 q-56 2 -82 2 q-81 0 -120 -3 l3 20 q34 2 51.5 8 q17.5 6 28 23.5 q10.5 17.5 20.5 54.5 l131 496 q9 38 9 49 q0 20 -14.5 28 q-14.5 8 -52.5 9 l3 20 q34 -3 97 -3 l85 1 q68 2 91 2 q141 0 211.5 -56 q70.5 -56 70.5 -165 ZM218 18 q124 0 212 67.5 q88 67.5 133 180.5 q45 113 45 246 q0 91 -51 134.5 q-51 43.5 -163 43.5 q-31 0 -48.5 -7 q-17.5 -7 -28.5 -25 q-11 -18 -20 -54 l-131 -500 q-9 -36 -9 -49 q0 -19 13.5 -28 q13.5 -9 47.5 -9 Z" /><glyph glyph-name="E" unicode="e" d="M443 705 q140 0 199 3 q-26 -72 -38 -118 q-11 -36 -14 -62 l-23 0 q9 58 9 80 q0 43 -22 60 q-22 17 -79 17 l-73 0 q-36 0 -53.5 -5.5 q-17.5 -5.5 -28.5 -22.5 q-11 -17 -21 -55 l-63 -236 l66 0 q35 0 58 16.5 q23 16.5 36 38.5 q13 22 26 56 q3 10 8 21 l23 0 q-21 -66 -35 -119 l-6 -23 q-14 -53 -32 -142 l-23 0 l3 20 q1 7 3 22 q2 15 2 26 q0 30 -15.5 47 q-15.5 17 -53.5 17 l-66 0 l-64 -240 q-9 -31 -9 -49 q0 -21 15 -27.5 q15 -6.5 53 -6.5 l73 0 q62 0 99 16.5 q37 16.5 61.5 53 q24.5 36.5 50.5 107.5 l23 0 q-11 -29 -22 -72 q-16 -56 -27 -128 q-68 3 -229 3 q-192 0 -289 -3 l5 20 q36 2 53.5 8 q17.5 6 28.5 23 q11 17 21 55 l133 496 q9 32 9 49 q0 21 -14.5 28 q-14.5 7 -52.5 9 l5 20 q98 -3 290 -3 Z" /><glyph glyph-name="uni01B7" unicode="&#x1b7;" d="M635 688 l-259 -296 q68 -27 104.5 -69 q36.5 -42 36.5 -106 q0 -66 -38.5 -118.5 q-38.5 -52.5 -105.5 -82.5 q-67 -30 -151 -30 q-57 0 -101.5 11.5 q-44.5 11.5 -68.5 25.5 q-7 5 -14.5 9.5 q-7.5 4.5 -14.5 4.5 q-10 0 -17.5 -10 q-7.5 -10 -16.5 -34 l-23 0 q28 77 64 240 l23 0 q-7 -38 -7 -63 q0 -77 44.5 -120.5 q44.5 -43.5 127.5 -43.5 q59 0 106 29.5 q47 29.5 73.5 78.5 q26.5 49 26.5 104 q0 69 -32 110.5 q-32 41.5 -95 61.5 l5 20 l241 275 l-210 0 q-62 0 -99 -17.5 q-37 -17.5 -61 -56.5 q-24 -39 -50 -113 l-23 0 q27 80 48 210 q73 -3 248 -3 q170 0 244 3 l-5 -20 Z" /><glyph glyph-name="F" unicode="f" d="M443 705 q140 0 199 3 q-25 -71 -41 -128 q-10 -37 -19 -82 l-23 0 q11 64 11 100 q0 48 -25 67.5 q-25 19.5 -90 19.5 l-53 0 q-36 0 -53.5 -5.5 q-17.5 -5.5 -28.5 -22.5 q-11 -17 -21 -55 l-66 -246 l73 0 q51 0 76 30.5 q25 30.5 36.5 61.5 q11.5 31 15.5 40 l23 0 q-21 -66 -35 -119 l-6 -23 q-16 -66 -32 -142 l-23 0 l3 22 q5 27 5 47 q0 30 -15 46.5 q-15 16.5 -53 16.5 l-73 0 l-62 -230 q-8 -30 -8 -44 q0 -24 18.5 -32 q18.5 -8 67.5 -10 l-5 -20 q-52 3 -147 3 q-85 0 -127 -3 l5 20 q36 2 53.5 8 q17.5 6 28.5 23 q11 17 21 55 l133 496 q9 32 9 49 q0 21 -14.5 28 q-14.5 7 -52.5 9 l5 20 q98 -3 290 -3 Z" /><glyph glyph-name="G" unicode="g" d="M316 6 q33 0 62.5 9 q29.5 9 51.5 22 q20 12 30 27 q10 15 16 36 l23 88 q9 33 9 52 q0 25 -18 33.5 q-18 8.5 -66 10.5 l5 20 q53 -3 140 -3 q69 0 105 3 l-5 -20 q-24 -2 -35.5 -8 q-11.5 -6 -20 -22.5 q-8.5 -16.5 -18.5 -55.5 l-53 -198 l-20 0 q3 12 3 26 q0 31 -15 31 q-6 0 -13.5 -3 q-7.5 -3 -24.5 -14 q-42 -26 -83 -40 q-41 -14 -87 -14 q-122 0 -187 59.5 q-65 59.5 -65 169.5 q0 116 56.5 234 q56.5 118 157 195.5 q100.5 77.5 224.5 77.5 q60 0 95.5 -16.5 q35.5 -16.5 68.5 -48.5 q9 -9 17 -9 q10 0 19.5 14 q9.5 14 20.5 46 l22 0 q-33 -86 -64 -230 l-22 0 q5 43 5 75 q0 46 -14 73 q-21 37 -62 57.5 q-41 20.5 -92 20.5 q-103 0 -180.5 -87 q-77.5 -87 -118 -210 q-40.5 -123 -40.5 -225 q0 -90 42.5 -133 q42.5 -43 130.5 -43 Z" /><glyph glyph-name="uni01E4" unicode="&#x1e4;" d="M593 188 l94 0 l-4 -20 l-96 0 l-45 -168 l-20 0 q3 12 3 26 q0 31 -15 31 q-6 0 -13.5 -3 q-7.5 -3 -24.5 -14 q-42 -26 -83 -40 q-41 -14 -87 -14 q-122 0 -187 59.5 q-65 59.5 -65 169.5 q0 116 56.5 234 q56.5 118 157 195.5 q100.5 77.5 224.5 77.5 q60 0 95.5 -16.5 q35.5 -16.5 68.5 -48.5 q9 -9 17 -9 q10 0 19.5 14 q9.5 14 20.5 46 l22 0 q-33 -86 -64 -230 l-22 0 q5 43 5 75 q0 46 -14 73 q-21 37 -62 57.5 q-41 20.5 -92 20.5 q-103 0 -180.5 -87 q-77.5 -87 -118 -210 q-40.5 -123 -40.5 -225 q0 -90 42.5 -133 q42.5 -43 130.5 -43 q33 0 62.5 9 q29.5 9 51.5 22 q20 12 30 27 q10 15 16 36 l18 68 l-116 0 l4 20 l117 0 l3 10 q9 33 9 52 q0 25 -18 33.5 q-18 8.5 -66 10.5 l5 20 q53 -3 140 -3 q69 0 105 3 l-5 -20 q-24 -2 -35.5 -8 q-11.5 -6 -20 -22.5 q-8.5 -16.5 -18.5 -55.5 l-5 -20 Z" /><glyph glyph-name="H" unicode="h" d="M691 705 q86 0 129 3 l-5 -20 q-37 -2 -54.5 -8 q-17.5 -6 -28 -23 q-10.5 -17 -20.5 -55 l-132 -496 q-9 -38 -9 -49 q0 -21 14.5 -28 q14.5 -7 53.5 -9 l-4 -20 q-42 3 -128 3 q-80 0 -127 -3 l4 20 q36 2 54 8 q18 6 28.5 23 q10.5 17 20.5 55 l64 240 l-321 0 l-64 -240 q-9 -38 -9 -49 q0 -21 14.5 -28 q14.5 -7 53.5 -9 l-4 -20 q-46 3 -127 3 q-84 0 -127 -3 l5 20 q35 2 52.5 8 q17.5 6 28 23.5 q10.5 17.5 20.5 54.5 l132 496 q8 34 8 48 q0 22 -14.5 29 q-14.5 7 -52.5 9 l5 20 q41 -3 127 -3 q80 0 128 3 l-5 -20 q-37 -2 -54.5 -8 q-17.5 -6 -28 -23 q-10.5 -17 -20.5 -55 l-63 -236 l321 0 l63 236 q9 32 9 48 q0 22 -15 29 q-15 7 -53 9 l5 20 q45 -3 126 -3 Z" /><glyph glyph-name="I" unicode="i" d="M166 106 q-9 -38 -9 -49 q0 -21 14.5 -28 q14.5 -7 53.5 -9 l-4 -20 q-46 3 -127 3 q-84 0 -127 -3 l5 20 q35 2 52.5 8 q17.5 6 28 23.5 q10.5 17.5 20.5 54.5 l132 496 q8 34 8 48 q0 22 -14.5 29 q-14.5 7 -52.5 9 l5 20 q41 -3 127 -3 q80 0 128 3 l-5 -20 q-37 -2 -54.5 -8 q-17.5 -6 -28 -23 q-10.5 -17 -20.5 -55 l-132 -496 Z" /><glyph glyph-name="IJ" unicode="&#x132;" d="M898 730 q7 -7 7 -13 q0 -23 -72 -51 q-62 -52 -97.5 -121 q-35.5 -69 -61.5 -179 l108 0 l-4 -20 l-109 0 l-1 -6 l-61 -275 q-24 -111 -81 -182 q-57 -71 -146 -71 q-48 0 -76 15 q-28 15 -28 44 q0 21 15 38 q15 17 38 17 q19 0 31.5 -13 q12.5 -13 12.5 -30 q0 -16 -10.5 -29 q-10.5 -13 -27.5 -21 q15 -5 35 -5 q46 0 74.5 34.5 q28.5 34.5 44 86.5 q15.5 52 34.5 143 q2 14 11 53 l32 150 q7 33 13 51 l-122 0 l4 20 l124 0 q21 65 52 113 q31 48 67 83 q36 35 97 87 l16 14 q-115 -60 -196 -60 q-49 0 -90 7 q-41 7 -98 21 q-59 14 -99.5 21 q-40.5 7 -90.5 7 q-43 0 -68 -16 q-25 -16 -25 -47 q0 -42 46.5 -60.5 q46.5 -18.5 104.5 -18.5 q32 0 66.5 10 q34.5 10 63.5 29 l8 -15 q-32 -22 -85 -36 l-116 -399 q-9 -30 -9 -49 q0 -20 15 -28 q15 -8 53 -9 l-4 -20 q-46 3 -127 3 q-83 0 -127 -3 l5 20 q35 2 52 8.5 q17 6.5 27.5 23 q10.5 16.5 21.5 54.5 l114 392 q-63 5 -107 32 q-44 27 -44 82 q0 54 41 90.5 q41 36.5 103 36.5 q54 0 98 -13.5 q44 -13.5 102 -40.5 q61 -27 103 -40 q42 -13 94 -13 q46 0 81.5 10 q35.5 10 93.5 35 q36 58 61 58 q8 0 13 -5 Z" /><glyph glyph-name="J" unicode="j" d="M737 730 q6 -6 6 -12 q0 -24 -73 -52 q-140 -93 -208 -300 l99 0 l-3 -20 l-102 0 q-8 -26 -11 -39 l-62 -242 q-29 -112 -88 -182.5 q-59 -70.5 -148 -70.5 q-47 0 -74.5 14.5 q-27.5 14.5 -27.5 42.5 q0 22 16 39.5 q16 17.5 39 17.5 q18 0 30 -12 q12 -12 12 -30 q0 -16 -11.5 -29.5 q-11.5 -13.5 -28.5 -21.5 q15 -5 35 -5 q45 0 74.5 34 q29.5 34 47 85 q17.5 51 39.5 141 q4 19 14 57 l30 117 q13 48 28 84 l-133 0 l3 20 l138 0 q42 91 107 157 q65 66 168 140 q-116 -60 -198 -60 q-32 0 -58.5 7 q-26.5 7 -63.5 21 q-39 14 -65 21 q-26 7 -59 7 q-32 0 -48.5 -16 q-16.5 -16 -16.5 -45 q0 -64 74 -78 l-3 -20 q-47 8 -78.5 37.5 q-31.5 29.5 -31.5 85.5 q0 51 31 83.5 q31 32.5 85 32.5 q37 0 66.5 -14 q29.5 -14 66.5 -40 q38 -27 66.5 -40 q28.5 -13 63.5 -13 q46 0 82 10 q36 10 95 35 q38 58 63 58 q8 0 13 -5 Z" /><glyph glyph-name="K" unicode="k" d="M648 722 q30 0 44.5 -15 q14.5 -15 14.5 -39 q0 -22 -14.5 -45.5 q-14.5 -23.5 -43.5 -23.5 q-20 0 -29.5 11.5 q-9.5 11.5 -9.5 28.5 q0 14 9 31.5 q9 17.5 23 30.5 l-3 0 q-20 -1 -36 -14 q-17 -15 -28.5 -40.5 q-11.5 -25.5 -29.5 -75.5 q-21 -59 -40 -97.5 q-19 -38.5 -52 -68 q-33 -29.5 -83 -36.5 q37 -8 59 -21.5 q22 -13.5 34 -47 q12 -33.5 10 -95.5 l-4 -113 q-1 -26 4.5 -38.5 q5.5 -12.5 25.5 -12.5 q25 0 42.5 18.5 q17.5 18.5 31.5 59.5 l17 51 l20 0 l-26 -77 q-19 -55 -49 -81 q-30 -26 -73 -26 q-92 0 -84 116 l7 113 q1 13 1 36 q0 46 -9 69 q-9 23 -28 38 q-37 -9 -57 -9 q-31 0 -31 20 q0 20 30 20 q22 0 61 -10 q51 6 83.5 34.5 q32.5 28.5 50 65.5 q17.5 37 38.5 96 q18 52 31 79.5 q13 27.5 33 44.5 q29 23 60 23 ZM166 106 q-9 -38 -9 -49 q0 -21 14.5 -28 q14.5 -7 53.5 -9 l-4 -20 q-46 3 -127 3 q-84 0 -127 -3 l5 20 q35 2 52.5 8 q17.5 6 28 23.5 q10.5 17.5 20.5 54.5 l132 496 q8 34 8 48 q0 22 -14.5 29 q-14.5 7 -52.5 9 l5 20 q41 -3 127 -3 q80 0 128 3 l-5 -20 q-37 -2 -54.5 -8 q-17.5 -6 -28 -23 q-10.5 -17 -20.5 -55 l-132 -496 Z" /><glyph glyph-name="L" unicode="l" d="M535 210 q-7 -19 -25 -82 q-16 -56 -27 -128 q-68 3 -229 3 q-192 0 -289 -3 l5 20 q36 2 53.5 8 q17.5 6 28.5 23 q11 17 21 55 l133 496 q9 32 9 49 q0 21 -14.5 28 q-14.5 7 -52.5 9 l5 20 q42 -3 128 -3 q81 0 127 3 l-5 -20 q-37 -2 -54.5 -8 q-17.5 -6 -28.5 -23 q-11 -17 -21 -55 l-133 -496 q-9 -31 -9 -49 q0 -21 15 -27.5 q15 -6.5 53 -6.5 l73 0 q62 0 99.5 17.5 q37.5 17.5 62.5 56.5 q25 39 52 113 l23 0 Z" /><glyph glyph-name="Lslash" unicode="&#x141;" d="M537 210 q-7 -19 -25 -82 q-16 -56 -27 -128 q-68 3 -229 3 q-192 0 -289 -3 l5 20 q36 2 53.5 8 q17.5 6 28.5 23 q11 17 21 55 l42 155 l-102 -51 l6 23 l102 51 l85 318 q9 32 9 49 q0 21 -14.5 28 q-14.5 7 -52.5 9 l5 20 q42 -3 128 -3 q81 0 127 3 l-5 -20 q-37 -2 -54.5 -8 q-17.5 -6 -28.5 -23 q-11 -17 -21 -55 l-74 -274 l289 145 l-6 -23 l-289 -145 l-53 -199 q-9 -31 -9 -49 q0 -21 15 -27.5 q15 -6.5 53 -6.5 l73 0 q62 0 99.5 17.5 q37.5 17.5 62.5 56.5 q25 39 52 113 l23 0 Z" /><glyph glyph-name="M" unicode="m" d="M808 705 q77 0 125 3 l-5 -20 q-37 -2 -54.5 -8 q-17.5 -6 -28 -23 q-10.5 -17 -20.5 -55 l-132 -496 q-8 -34 -8 -48 q0 -22 14.5 -29 q14.5 -7 52.5 -9 l-4 -20 q-46 3 -124 3 q-88 0 -130 -3 l4 20 q37 2 54.5 8 q17.5 6 28 23 q10.5 17 20.5 55 l145 539 l-415 -650 l-22 0 l-68 658 l-142 -537 q-8 -34 -8 -50 q0 -25 16.5 -34.5 q16.5 -9.5 58.5 -11.5 l-5 -20 q-34 3 -101 3 q-59 0 -94 -3 l5 20 q35 2 54 10.5 q19 8.5 30 27.5 q11 19 21 58 l130 486 q8 34 8 48 q0 22 -14.5 29 q-14.5 7 -52.5 9 l5 20 q32 -3 89 -3 q53 0 88 3 l55 -593 l376 590 l48 0 Z" /><glyph glyph-name="N" unicode="n" d="M812 754 q32 0 46 -14 q14 -14 14 -37 q0 -27 -16 -49.5 q-16 -22.5 -43 -22.5 q-20 0 -29 11.5 q-9 11.5 -9 27.5 q0 16 9 33 q9 17 23 30 l-3 0 q-49 -1 -82 -51 q-44 -66 -92 -232.5 q-48 -166.5 -109 -454.5 l-22 0 l-228 644 q-49 -251 -92.5 -424 q-43.5 -173 -83.5 -226 q-22 -29 -46.5 -46 q-24.5 -17 -60.5 -17 q-60 0 -60 52 q0 27 16 49 q16 22 43 22 q20 0 29 -11.5 q9 -11.5 9 -27.5 q0 -16 -9 -33 q-9 -17 -23 -30 l3 0 q51 1 83 52 q37 59 77 211 q40 152 87 392 q6 29 6 45 q0 24 -16 31.5 q-16 7.5 -61 9.5 l5 20 q32 -3 89 -3 q46 0 81 3 l189 -553 q43 192 84 332.5 q41 140.5 84 202.5 q44 64 108 64 Z" /><glyph glyph-name="Eng" unicode="&#x14a;" d="M680 705 q60 0 94 3 l-5 -20 q-35 -2 -54 -10.5 q-19 -8.5 -30 -27.5 q-11 -19 -21 -58 l-139 -525 q-29 -130 -78 -192.5 q-49 -62.5 -121 -62.5 q-36 0 -63 15 q-27 15 -27 42 q0 23 16.5 40 q16.5 17 38.5 17 q18 0 30 -12 q12 -12 12 -30 q0 -16 -11.5 -29.5 q-11.5 -13.5 -28.5 -21.5 q15 -5 35 -5 q54 0 92.5 45.5 q38.5 45.5 63.5 121.5 l-243 658 l-141 -537 q-8 -34 -8 -50 q0 -24 16.5 -34 q16.5 -10 58.5 -12 l-5 -20 q-34 3 -101 3 q-59 0 -94 -3 l5 20 q35 2 54 10.5 q19 8.5 30 27.5 q11 19 21 58 l129 486 q8 34 8 48 q0 22 -14.5 29 q-14.5 7 -52.5 9 l5 20 q32 -3 89 -3 q47 0 81 3 l202 -562 l117 446 q8 34 8 50 q0 25 -16.5 34.5 q-16.5 9.5 -58.5 11.5 l5 20 q34 -3 101 -3 Z" /><glyph glyph-name="O" unicode="o" d="M54 226 q0 113 53 229 q53 116 148.5 191.5 q95.5 75.5 215.5 75.5 q112 0 174 -63 q62 -63 62 -178 q0 -113 -53.5 -228.5 q-53.5 -115.5 -149.5 -191 q-96 -75.5 -215 -75.5 q-111 0 -173 63 q-62 63 -62 177 ZM462 704 q-75 0 -145.5 -72 q-70.5 -72 -113.5 -186.5 q-43 -114.5 -43 -232.5 q0 -97 38 -153 q38 -56 100 -56 q75 0 145.5 72 q70.5 72 113.5 186.5 q43 114.5 43 232.5 q0 97 -38 153 q-38 56 -100 56 Z" /><glyph glyph-name="Ohorn" unicode="&#x1a0;" d="M787 864 q26 0 41 -16 q15 -16 15 -39 q0 -25 -17.5 -48 q-17.5 -23 -47.5 -41 q-65 -38 -160 -39 q43 -29 66 -80.5 q23 -51.5 23 -119.5 q0 -113 -53.5 -228.5 q-53.5 -115.5 -149.5 -191 q-96 -75.5 -215 -75.5 q-111 0 -173 63 q-62 63 -62 177 q0 113 53 229 q53 116 148.5 191.5 q95.5 75.5 215.5 75.5 q57 0 102 -17 q36 -2 49 -2 q48 0 81.5 8.5 q33.5 8.5 62.5 25.5 q-37 30 -37 68 q0 24 15 41.5 q15 17.5 43 17.5 ZM298 4 q75 0 145.5 72 q70.5 72 113.5 186.5 q43 114.5 43 232.5 q0 97 -38 153 q-38 56 -100 56 q-75 0 -145.5 -72 q-70.5 -72 -113.5 -186.5 q-43 -114.5 -43 -232.5 q0 -97 38 -153 q38 -56 100 -56 Z" /><glyph glyph-name="Oslash" unicode="ø" d="M666 633 q41 -59 41 -152 q0 -113 -53.5 -228.5 q-53.5 -115.5 -149.5 -191 q-96 -75.5 -215 -75.5 q-113 0 -175 65 l-117 -124 l-17 14 l119 127 q-45 61 -45 158 q0 113 53 229 q53 116 148.5 191.5 q95.5 75.5 215.5 75.5 q121 0 183 -73 l118 124 l15 -13 l-121 -127 ZM462 704 q-75 0 -145.5 -72 q-70.5 -72 -113.5 -186.5 q-43 -114.5 -43 -232.5 q0 -42 8 -80 l421 454 q-16 56 -49 86.5 q-33 30.5 -78 30.5 ZM298 4 q75 0 145.5 72 q70.5 72 113.5 186.5 q43 114.5 43 232.5 q0 37 -6 67 l-419 -454 q16 -49 48.5 -76.5 q32.5 -27.5 74.5 -27.5 Z" /><glyph glyph-name="Oslashacute" unicode="&#x1fe;" d="M680 866 q-19 -11 -46.5 -21.5 q-27.5 -10.5 -32.5 -12.5 q-87 -33 -143 -60 l-7 11 q42 29 77.5 55.5 q35.5 26.5 46.5 34.5 q49 38 72 52 q18 11 38 11 q21 0 28 -16 q2 -6 2 -10 q0 -13 -10.5 -24.5 q-10.5 -11.5 -24.5 -19.5 ZM666 633 q41 -59 41 -152 q0 -113 -53.5 -228.5 q-53.5 -115.5 -149.5 -191 q-96 -75.5 -215 -75.5 q-113 0 -175 65 l-117 -124 l-17 14 l119 127 q-45 61 -45 158 q0 113 53 229 q53 116 148.5 191.5 q95.5 75.5 215.5 75.5 q121 0 183 -73 l118 124 l15 -13 l-121 -127 ZM462 704 q-75 0 -145.5 -72 q-70.5 -72 -113.5 -186.5 q-43 -114.5 -43 -232.5 q0 -42 8 -80 l421 454 q-16 56 -49 86.5 q-33 30.5 -78 30.5 ZM298 4 q75 0 145.5 72 q70.5 72 113.5 186.5 q43 114.5 43 232.5 q0 37 -6 67 l-419 -454 q16 -49 48.5 -76.5 q32.5 -27.5 74.5 -27.5 Z" /><glyph glyph-name="OE" unicode="&#x152;" d="M806 705 q130 0 187 3 q-14 -38 -25 -74 q-11 -36 -13 -44 q-13 -35 -13 -62 l-22 0 q7 39 7 71 q0 47 -21 66.5 q-21 19.5 -67 19.5 l-83 0 q-35 0 -52.5 -5.5 q-17.5 -5.5 -27.5 -22.5 q-10 -17 -20 -55 l-63 -236 l98 0 q28 0 47 15 q19 15 30.5 37 q11.5 22 25.5 60 l22 0 q-16 -49 -27 -95 l-7 -27 q-14 -52 -26 -122 l-22 0 q0 16 3 31 q2 22 2 31 q0 22 -11 35 q-11 13 -41 15 l-99 0 l-64 -240 q-9 -38 -9 -49 q0 -21 14.5 -27.5 q14.5 -6.5 51.5 -6.5 l93 0 q48 0 79.5 16.5 q31.5 16.5 54 54.5 q22.5 38 45.5 106 l22 0 q-3 -6 -14 -45 q-4 -18 -7 -27 q-19 -67 -26 -128 q-65 3 -216 3 q-150 0 -239 -2 q-52 -15 -102 -15 q-102 0 -158.5 62.5 q-56.5 62.5 -56.5 177.5 q0 113 50.5 229 q50.5 116 141.5 191.5 q91 75.5 205 75.5 q58 0 101 -15 q93 -2 252 -2 ZM563 602 q6 21 6 37 q0 39 -29 52 q-29 13 -84 13 q-76 0 -144 -71.5 q-68 -71.5 -109 -186 q-41 -114.5 -41 -233.5 q0 -97 32.5 -153 q32.5 -56 85.5 -56 q66 0 101 22 q35 22 50 80 l132 496 Z" /><glyph glyph-name="P" unicode="p" d="M421 707 q98 0 148.5 -40.5 q50.5 -40.5 50.5 -110.5 q0 -78 -47.5 -140 q-47.5 -62 -133.5 -97 q-86 -35 -196 -35 l-30 0 l-47 -178 q-2 -7 -6 -23.5 q-4 -16.5 -4 -26.5 q0 -19 15 -27 q15 -8 54 -9 l-4 -20 q-46 3 -124 3 q-88 0 -130 -3 l4 20 q36 2 54 8 q18 6 28.5 23 q10.5 17 20.5 55 l132 496 q9 36 9 48 q0 20 -15 28.5 q-15 8.5 -53 9.5 l5 20 q40 -3 123 -3 q48 0 72 1 l74 1 ZM253 304 q140 0 203 73 q63 73 63 195 q0 59 -30 87.5 q-30 28.5 -97 28.5 q-30 0 -47 -7.5 q-17 -7.5 -27.5 -25.5 q-10.5 -18 -19.5 -53 l-79 -298 l34 0 Z" /><glyph glyph-name="Thorn" unicode="þ" d="M166 106 q-9 -38 -9 -49 q0 -21 14.5 -28 q14.5 -7 53.5 -9 l-4 -20 q-46 3 -127 3 q-84 0 -127 -3 l5 20 q35 2 52.5 8 q17.5 6 28 23.5 q10.5 17.5 20.5 54.5 l132 496 q8 34 8 48 q0 22 -14.5 29 q-14.5 7 -52.5 9 l5 20 q41 -3 127 -3 q80 0 128 3 l-5 -20 q-37 -2 -54.5 -8 q-17.5 -6 -28 -23 q-10.5 -17 -20.5 -55 l-8 -29 q70 2 106 2 q98 0 148.5 -40.5 q50.5 -40.5 50.5 -110.5 q0 -78 -47.5 -140 q-47.5 -62 -133.5 -97 q-86 -35 -196 -35 l-40 0 l-12 -46 ZM184 172 l44 0 q140 0 203 73 q63 73 63 195 q0 59 -30 87.5 q-30 28.5 -97 28.5 q-49 0 -82 -3 l-101 -381 Z" /><glyph glyph-name="Q" unicode="q" d="M647 50 q22 0 36 -15.5 q14 -15.5 14 -41.5 q0 -44 -39 -86 q-39 -42 -98.5 -68.5 q-59.5 -26.5 -118.5 -26.5 q-70 0 -124 35.5 q-54 35.5 -116 100.5 q-84 -30 -142 -30 q-49 0 -76.5 19.5 q-27.5 19.5 -27.5 54.5 q0 39 34.5 64 q34.5 25 87.5 25 q51 0 90 -21.5 q39 -21.5 97 -67.5 q99 51 187 135 q88 84 142.5 184.5 q54.5 100.5 54.5 197.5 q0 89 -44.5 142 q-44.5 53 -126.5 53 q-74 0 -132 -43 q-58 -43 -90 -111 q-32 -68 -32 -141 q0 -72 31 -107.5 q31 -35.5 83 -35.5 q44 0 80 24 q36 24 56.5 61 q20.5 37 20.5 73 q0 27 -7 40 q-10 -21 -31 -33 q-21 -12 -43 -12 q-22 0 -34.5 13 q-12.5 13 -12.5 34 q0 26 19.5 43.5 q19.5 17.5 49.5 17.5 q36 0 57.5 -27 q21.5 -27 21.5 -71 q0 -49 -27.5 -92 q-27.5 -43 -76.5 -68.5 q-49 -25.5 -111 -25.5 q-84 0 -131 48 q-47 48 -47 127 q0 85 53.5 155 q53.5 70 139.5 109.5 q86 39.5 180 39.5 q120 0 189 -55 q69 -55 69 -152 q0 -101 -69.5 -204.5 q-69.5 -103.5 -178.5 -189.5 q-109 -86 -225 -141 q62 -48 116.5 -74 q54.5 -26 128.5 -26 q50 0 85.5 15.5 q35.5 15.5 58.5 52.5 q-15 -6 -31 -6 q-23 0 -36 13.5 q-13 13.5 -13 34.5 q0 24 17 42 q17 18 42 18 ZM70 -65 q50 0 120 25 q-49 52 -79.5 75.5 q-30.5 23.5 -63.5 23.5 q-29 0 -51 -18 q-22 -18 -22 -47 q0 -59 96 -59 Z" /><glyph glyph-name="R" unicode="r" d="M592 121 l23 0 l-4 -13 q-18 -63 -45.5 -92.5 q-27.5 -29.5 -73.5 -29.5 q-47 0 -70 28 q-23 28 -20 68 l8 112 q1 12 1 32 q0 42 -15 65 q-15 23 -54.5 33.5 q-39.5 10.5 -114.5 11.5 l-61 -230 q-9 -30 -9 -49 q0 -20 14.5 -28 q14.5 -8 53.5 -9 l-4 -20 q-46 3 -124 3 q-88 0 -130 -3 l4 20 q36 2 54 8 q18 6 28.5 23 q10.5 17 20.5 55 l132 496 q9 34 9 47 q0 21 -15 29.5 q-15 8.5 -53 9.5 l5 20 q40 -3 123 -3 q48 0 72 1 l74 1 q98 0 148.5 -37.5 q50.5 -37.5 50.5 -103.5 q0 -82 -71 -142 q-71 -60 -190 -80 q13 -1 35 -5 q59 -11 85 -35 q26 -24 26 -77 q0 -13 -1 -20 l-8 -102 q-1 -7 -1 -21 q0 -61 32 -61 q17 0 31 20.5 q14 20.5 29 63.5 l5 14 ZM233 356 l30 0 q135 0 195.5 59 q60.5 59 60.5 157 q0 59 -30 87.5 q-30 28.5 -97 28.5 q-30 0 -47 -7.5 q-17 -7.5 -27.5 -25.5 q-10.5 -18 -19.5 -53 l-65 -246 Z" /><glyph glyph-name="S" unicode="s" d="M576 715 q-36 -91 -59 -204 l-20 0 q6 29 6 57 q0 59 -35 97 q-35 38 -107 38 q-63 0 -101.5 -32 q-38.5 -32 -38.5 -95 q0 -49 30.5 -90 q30.5 -41 91.5 -97 q43 -39 69 -68 q26 -29 44 -64 q18 -35 18 -75 q0 -65 -37.5 -109.5 q-37.5 -44.5 -95.5 -65.5 q-58 -21 -120 -21 q-53 0 -84.5 13 q-31.5 13 -57.5 33 q-19 15 -36 15 q-12 0 -20 -12 q-8 -12 -21 -42 l-20 0 q16 38 31.5 91.5 q15.5 53.5 36.5 148.5 l20 0 q-9 -47 -9 -74 q0 -73 40 -113 q40 -40 123 -40 q68 0 107.5 31 q39.5 31 39.5 94 q0 38 -15 70 q-15 32 -36.5 56.5 q-21.5 24.5 -59.5 61.5 q-40 38 -63.5 65 q-23.5 27 -40 63 q-16.5 36 -16.5 80 q0 62 31.5 106 q31.5 44 82 66.5 q50.5 22.5 106.5 22.5 q41 0 71 -10 q30 -10 59 -32 q24 -18 33 -18 q8 0 15.5 12.5 q7.5 12.5 17.5 40.5 l20 0 Z" /><glyph glyph-name="uni1E9E" unicode="&#x1e9e;" d="M45 -174 q-58 -2 -98 -14 l174 645 q36 134 112 199.5 q76 65.5 184 65.5 q73 0 112 -30 q39 -30 39 -91 q0 -82 -65 -141.5 q-65 -59.5 -158 -85.5 q87 -10 127.5 -55.5 q40.5 -45.5 40.5 -110.5 q0 -63 -35.5 -114 q-35.5 -51 -93.5 -79.5 q-58 -28.5 -122 -28.5 q-45 0 -75 14.5 q-30 14.5 -30 41.5 q0 21 16.5 39.5 q16.5 18.5 40.5 18.5 q18 0 29.5 -12 q11.5 -12 11.5 -29 q0 -16 -11 -29 q-11 -13 -28 -21 q22 -7 51 -7 q67 0 108.5 55 q41.5 55 41.5 142 q0 68 -25 117 q-25 49 -67 49 q-15 -5 -28.5 -8.5 q-13.5 -3.5 -22.5 -3.5 q-21 0 -21 12 q0 8 8 14 q8 6 23 6 q11 0 47 -9 q68 25 104.5 94 q36.5 69 36.5 144 q0 45 -17 69 q-17 24 -58 24 q-115 0 -167 -193 l-185 -688 Z" /><glyph glyph-name="uni018F" unicode="&#x18f;" d="M443 722 q119 0 180.5 -63.5 q61.5 -63.5 61.5 -189.5 q0 -121 -54.5 -232.5 q-54.5 -111.5 -151.5 -181 q-97 -69.5 -218 -69.5 q-101 0 -160 51 q-59 51 -59 150 q0 49 15 109 l494 0 q15 40 24.5 92.5 q9.5 52.5 9.5 96.5 q0 99 -47.5 155 q-47.5 56 -125.5 56 q-44 0 -93.5 -18 q-49.5 -18 -85.5 -52 q-25 -24 -44 -58 q-19 -34 -45 -100 l-23 0 q24 81 34.5 131.5 q10.5 50.5 20.5 108.5 l23 0 q-3 -21 -3 -34 q0 -25 13 -25 q9 0 23 8 q55 32 100 48.5 q45 16.5 111 16.5 ZM280 5 q83 0 152 68 q69 68 116 204 l-398 0 q-17 -59 -17 -107 q0 -75 38.5 -120 q38.5 -45 108.5 -45 Z" /><glyph glyph-name="T" unicode="t" d="M768 817 q22 0 33.5 -13.5 q11.5 -13.5 11.5 -34.5 q0 -22 -13 -40.5 q-13 -18.5 -34 -31.5 q-53 -33 -158 -33 q-44 0 -102 7 l-148 -555 q-9 -31 -9 -51 q0 -25 18.5 -34.5 q18.5 -9.5 65.5 -10.5 l-4 -20 q-52 3 -149 3 q-98 0 -146 -3 l4 20 q42 2 65.5 10.5 q23.5 8.5 36.5 28 q13 19.5 25 57.5 l151 567 q-81 11 -129 11 q-87 0 -112 -17 q8 -11 13 -27 q5 -16 5 -31 q0 -23 -13 -40.5 q-13 -17.5 -37 -17.5 q-21 0 -32.5 13.5 q-11.5 13.5 -11.5 36.5 q0 52 53 78 q47 23 134 23 q40 0 76 -3.5 q36 -3.5 91 -10.5 q52 -7 87.5 -10.5 q35.5 -3.5 74.5 -3.5 q45 0 75 5 q30 5 54 17 q-25 25 -25 56 q0 22 12.5 38.5 q12.5 16.5 36.5 16.5 Z" /><glyph glyph-name="U" unicode="u" d="M631 592 q7 25 7 44 q0 28 -17 39 q-17 11 -57 13 l5 20 q35 -3 101 -3 q59 0 94 3 l-5 -20 q-35 -2 -54.5 -10.5 q-19.5 -8.5 -31 -28 q-11.5 -19.5 -20.5 -57.5 l-78 -301 q-36 -138 -98 -212 q-37 -43 -90.5 -68 q-53.5 -25 -114.5 -25 q-107 0 -154 54 q-18 21 -26.5 45.5 q-8.5 24.5 -8.5 56.5 q0 54 25 146 l83 314 q8 34 8 48 q0 22 -14.5 29 q-14.5 7 -52.5 9 l6 20 q40 -3 129 -3 q77 0 125 3 l-6 -20 q-37 -2 -54.5 -8 q-17.5 -6 -28 -23 q-10.5 -17 -20.5 -55 l-88 -331 q-22 -85 -22 -135 q0 -55 27.5 -85 q27.5 -30 90.5 -30 q105 0 165.5 68 q60.5 68 92.5 191 l82 312 Z" /><glyph glyph-name="Uhorn" unicode="&#x1af;" d="M782 864 q27 0 41.5 -16 q14.5 -16 14.5 -40 q0 -25 -17.5 -47.5 q-17.5 -22.5 -47.5 -40.5 q-49 -29 -95 -34 l-103 -395 q-36 -140 -98 -212 q-38 -44 -91 -68.5 q-53 -24.5 -120 -24.5 q-99 0 -148 54 q-35 39 -35 103 q0 30 6.5 63.5 q6.5 33.5 18.5 81.5 l83 314 q8 32 8 47 q0 21 -14.5 29 q-14.5 8 -52.5 10 l6 20 q40 -3 127 -3 q79 0 127 3 l-6 -20 q-37 -2 -54.5 -8 q-17.5 -6 -28 -23 q-10.5 -17 -20.5 -55 l-88 -331 q-22 -82 -22 -134 q0 -58 28.5 -87 q28.5 -29 92.5 -29 q102 0 162.5 68.5 q60.5 68.5 92.5 190.5 l105 406 q-11 -1 -32 -1 q-30 0 -58 3 l5 20 q28 -3 74 -3 q37 0 64 5 q27 5 55 26 q-16 13 -27 30.5 q-11 17.5 -11 37.5 q0 25 15 42.5 q15 17.5 43 17.5 Z" /><glyph glyph-name="V" unicode="v" d="M666 705 q44 0 76 3 l-5 -20 q-53 -11 -101 -87 l-394 -606 l-15 0 l-79 629 q-4 33 -19.5 48 q-15.5 15 -32.5 16 l5 20 q39 -3 108 -3 q77 0 120 3 l-5 -20 q-32 -2 -48.5 -6 q-16.5 -4 -25 -16 q-8.5 -12 -8.5 -37 q0 -7 2 -25 l57 -483 l277 425 q43 67 43 99 q0 22 -18.5 32 q-18.5 10 -55.5 11 l5 20 q55 -3 114 -3 Z" /><glyph glyph-name="W" unicode="w" d="M918 705 q44 0 76 3 l-5 -20 q-59 -13 -95 -87 l-299 -606 l-16 0 l-72 456 l-271 -456 l-16 0 l-79 629 q-8 62 -55 64 l4 20 q40 -3 99 -3 q72 0 108 3 l-4 -20 q-31 -2 -44.5 -14 q-13.5 -12 -13.5 -44 q0 -6 2 -26 l56 -477 l209 355 l-22 142 q-10 62 -45 64 l4 20 q36 -3 89 -3 q86 0 128 3 l-4 -20 q-45 -2 -62 -12 q-17 -10 -17 -40 q0 -14 3 -32 l72 -455 l195 397 q33 68 33 97 q0 25 -18.5 34.5 q-18.5 9.5 -58.5 10.5 l5 20 q56 -3 114 -3 Z" /><glyph glyph-name="X" unicode="x" d="M690 722 q31 0 45 -14 q14 -14 14 -37 q0 -25 -15 -48.5 q-15 -23.5 -44 -23.5 q-19 0 -28.5 11 q-9.5 11 -9.5 27 q0 15 9 33.5 q9 18.5 23 30.5 l-3 0 q-35 0 -64 -21 q-45 -33 -100.5 -110.5 q-55.5 -77.5 -106.5 -187.5 l26 -227 q6 -53 24 -83.5 q18 -30.5 55 -30.5 q29 0 47 18 q18 18 33 60 l17 51 l20 0 l-26 -77 q-19 -55 -49 -81 q-30 -26 -73 -26 q-65 0 -94 43.5 q-29 43.5 -37 112.5 l-18 157 q-39 -83 -100.5 -161 q-61.5 -78 -116.5 -117 q-46 -35 -92 -35 q-31 0 -45 14 q-14 14 -14 37 q0 25 15 48.5 q15 23.5 44 23.5 q20 0 29 -11 q9 -11 9 -27 q0 -15 -9 -33.5 q-9 -18.5 -23 -30.5 l4 0 q34 1 63 21 q52 34 114.5 112.5 q62.5 78.5 117.5 191.5 l-26 221 q-6 53 -24 83.5 q-18 30.5 -55 30.5 q-29 0 -47 -18 q-18 -18 -33 -60 l-17 -51 l-20 0 l26 77 q19 55 49 81 q30 26 73 26 q65 0 94 -43.5 q29 -43.5 37 -112.5 l18 -155 q39 85 92 161.5 q53 76.5 100 114.5 q46 35 92 35 Z" /><glyph glyph-name="Y" unicode="y" d="M700 722 q29 0 42.5 -15 q13.5 -15 13.5 -38 q0 -25 -15 -47.5 q-15 -22.5 -44 -22.5 q-20 0 -29 11.5 q-9 11.5 -9 28.5 q0 16 9 32.5 q9 16.5 23 29.5 l-3 0 q-27 -1 -55 -22 q-52 -38 -112.5 -122.5 q-60.5 -84.5 -116.5 -218.5 l-58 -232 q-8 -34 -8 -48 q0 -22 14.5 -29 q14.5 -7 52.5 -9 l-5 -20 q-45 3 -124 3 q-87 0 -131 -3 l5 20 q36 2 54 8 q18 6 29 23.5 q11 17.5 20 54.5 l59 233 q-16 142 -43 235 q-27 93 -74 93 q-17 0 -28.5 -11 q-11.5 -11 -19.5 -36 l-28 -82 l-22 0 l33 97 q16 47 36.5 67 q20.5 20 61.5 20 q53 0 85.5 -43 q32.5 -43 50.5 -120 q18 -77 31 -199 q37 93 85 168 q48 75 102 129 q65 65 118 65 Z" /><glyph glyph-name="Z" unicode="z" d="M713 713 q6 -4 6 -13 q0 -14 -18.5 -30.5 q-18.5 -16.5 -56.5 -31.5 l-277 -272 l152 0 l-8 -20 l-164 0 l-283 -278 q92 54 173 54 q28 0 51 -7 q23 -7 55 -21 q34 -14 56.5 -21 q22.5 -7 51.5 -7 q33 0 50.5 17.5 q17.5 17.5 17.5 48.5 q0 59 -72 73 l4 20 q45 -8 75.5 -35.5 q30.5 -27.5 30.5 -80.5 q0 -54 -33 -88.5 q-33 -34.5 -88 -34.5 q-33 0 -58 13.5 q-25 13.5 -58 40.5 q-32 26 -57 39.5 q-25 13.5 -56 13.5 q-38 0 -69 -10.5 q-31 -10.5 -79 -34.5 q-18 -26 -38.5 -42 q-20.5 -16 -35.5 -16 q-9 0 -14 5 q-6 4 -6 13 q0 14 18.5 30.5 q18.5 16.5 56.5 31.5 l281 276 l-162 0 l7 20 l175 0 l279 274 q-92 -54 -173 -54 q-28 0 -51 7 q-23 7 -55 21 q-34 14 -56.5 21 q-22.5 7 -51.5 7 q-33 0 -50.5 -17.5 q-17.5 -17.5 -17.5 -48.5 q0 -59 72 -73 l-4 -20 q-45 8 -75.5 35.5 q-30.5 27.5 -30.5 80.5 q0 54 33 88.5 q33 34.5 88 34.5 q33 0 58 -13.5 q25 -13.5 58 -40.5 q32 -26 57 -39.5 q25 -13.5 56 -13.5 q38 0 69 10.5 q31 10.5 79 34.5 q18 26 38.5 42 q20.5 16 35.5 16 q9 0 14 -5 Z" /><glyph glyph-name="a" unicode="a" d="M455 163 l19 0 l-25 -73 q-20 -55 -51 -79.5 q-31 -24.5 -64 -24.5 q-19 0 -33 7 q-14 7 -22 19 q-9 15 -9 35 q0 21 7 47 q7 26 9 33 l18 72 q-48 -112 -97.5 -162.5 q-49.5 -50.5 -103.5 -50.5 q-46 0 -70 33 q-24 33 -24 88 q0 81 43 181 q43 100 112 170 q69 70 140 70 q27 0 44 -20 q17 -20 20 -56 l16 62 q55 2 92 14 l-125 -442 q-1 -4 -4 -15.5 q-3 -11.5 -3 -21.5 q0 -25 22 -25 q44 0 77 102 l12 37 ZM132 18 q28 0 67 43 q39 43 76.5 114.5 q37.5 71.5 61.5 152.5 l18 71 q1 8 1 22 q0 41 -14.5 64.5 q-14.5 23.5 -40.5 23.5 q-43 0 -91 -66.5 q-48 -66.5 -80.5 -164 q-32.5 -97.5 -32.5 -183.5 q0 -41 9 -59 q9 -18 26 -18 Z" /><glyph glyph-name="ae" unicode="æ" d="M645 452 q0 -78 -90.5 -136 q-90.5 -58 -209.5 -96 q-10 -53 -10 -96 q0 -96 69 -96 q82 0 150 100 l20 -8 q-32 -55 -86.5 -94.5 q-54.5 -39.5 -114.5 -39.5 q-49 0 -81.5 22.5 q-32.5 22.5 -44.5 66.5 q-57 -89 -144 -89 q-50 0 -75 30 q-25 30 -25 81 q0 86 54.5 185.5 q54.5 99.5 138 167.5 q83.5 68 162.5 68 q19 0 36.5 -8 q17.5 -8 29.5 -27 q61 45 127 45 q42 0 68 -19.5 q26 -19.5 26 -56.5 ZM529 509 q-29 0 -65 -37.5 q-36 -37.5 -67 -100 q-31 -62.5 -48 -132.5 q99 35 138 65 q37 29 57.5 70.5 q20.5 41.5 20.5 89.5 q0 21 -9.5 33 q-9.5 12 -26.5 12 ZM135 18 q25 0 53.5 19 q28.5 19 54.5 60 q-2 20 -2 30 q0 52 21.5 117.5 q21.5 65.5 60.5 127 q39 61.5 88 101.5 q-17 24 -46 24 q-53 0 -118.5 -60.5 q-65.5 -60.5 -110.5 -156 q-45 -95.5 -45 -195.5 q0 -31 11 -49 q11 -18 33 -18 Z" /><glyph glyph-name="b" unicode="b" d="M362 528 q49 0 76.5 -35.5 q27.5 -35.5 27.5 -105.5 q0 -81 -36 -175.5 q-36 -94.5 -103 -160 q-67 -65.5 -154 -65.5 q-30 0 -52.5 17.5 q-22.5 17.5 -31.5 49.5 l-85 -69 l-15 7 q12 25 19 58 l175 618 q4 13 4 27 q0 20 -15 29.5 q-15 9.5 -52 9.5 l5 21 q53 1 95 11 q42 10 81 30 l-129 -472 q47 108 92.5 156.5 q45.5 48.5 97.5 48.5 ZM172 9 q53 0 101 66.5 q48 66.5 77.5 161.5 q29.5 95 29.5 172 q0 43 -12.5 65 q-12.5 22 -34.5 22 q-40 0 -96.5 -88 q-56.5 -88 -101.5 -217 l-34 -127 q12 -30 29.5 -42.5 q17.5 -12.5 41.5 -12.5 Z" /><glyph glyph-name="c" unicode="c" d="M323 508 q-50 0 -99.5 -54 q-49.5 -54 -81 -143 q-31.5 -89 -31.5 -187 q0 -49 18.5 -72.5 q18.5 -23.5 51.5 -23.5 q82 0 150 100 l20 -8 q-32 -55 -86.5 -94.5 q-54.5 -39.5 -114.5 -39.5 q-61 0 -96.5 37.5 q-35.5 37.5 -35.5 109.5 q0 81 38 174 q38 93 107 157 q69 64 157 64 q46 0 77 -23 q31 -23 31 -62 q0 -31 -20 -55.5 q-20 -24.5 -51 -24.5 q-20 0 -30.5 11 q-10.5 11 -10.5 28 q0 28 22 48.5 q22 20.5 53 26.5 q-21 31 -68 31 Z" /><glyph glyph-name="d" unicode="d" d="M472 162 l19 0 l-23 -73 q-17 -55 -49 -79 q-32 -24 -67 -24 q-31 0 -47 16 q-16 16 -16 46 q0 28 13 78 l14 51 q-47 -101 -96 -146 q-49 -45 -104 -45 q-49 0 -76.5 33 q-27.5 33 -27.5 99 q0 83 43.5 180 q43.5 97 118 163.5 q74.5 66.5 161.5 66.5 q20 0 37 -13 q17 -13 24 -35 l50 187 q4 13 4 27 q0 20 -15.5 29.5 q-15.5 9.5 -52.5 9.5 l6 21 q53 1 95.5 11 q42.5 10 81.5 30 l-196 -710 q-6 -24 -6 -34 q0 -28 24 -28 q20 0 37 23 q17 23 36 79 l12 37 ZM145 18 q30 0 69 42 q39 42 77 112.5 q38 70.5 63 150.5 l35 131 q-6 26 -20.5 38.5 q-14.5 12.5 -32.5 12.5 q-61 0 -115 -64.5 q-54 -64.5 -87 -159.5 q-33 -95 -33 -176 q0 -87 44 -87 Z" /><glyph glyph-name="eth" unicode="ð" d="M345 675 q102 -107 102 -281 q0 -90 -34.5 -185 q-34.5 -95 -100.5 -159 q-66 -64 -154 -64 q-64 0 -100.5 39.5 q-36.5 39.5 -36.5 117.5 q0 78 34.5 169 q34.5 91 98.5 153.5 q64 62.5 147 62.5 q31 0 53 -15 q-14 80 -55 141 l-185 -82 l-6 18 l179 79 q-45 56 -122 96 l12 17 q93 -35 154 -93 l160 71 l6 -18 l-152 -67 ZM164 6 q51 0 96.5 65 q45.5 65 73 162.5 q27.5 97.5 27.5 187.5 q0 28 -4 72 q-19 15 -56 15 q-50 0 -94.5 -65 q-44.5 -65 -72 -163 q-27.5 -98 -27.5 -187 q0 -45 14 -66 q14 -21 43 -21 Z" /><glyph glyph-name="e" unicode="e" d="M416 462 q0 -81 -91 -142 q-91 -61 -208 -99 q-11 -50 -11 -97 q0 -96 69 -96 q86 0 154 100 l16 -8 q-32 -55 -86.5 -94.5 q-54.5 -39.5 -114.5 -39.5 q-62 0 -97 36 q-35 36 -35 105 q0 76 44.5 171.5 q44.5 95.5 120.5 162.5 q76 67 165 67 q32 0 53 -17 q21 -17 21 -49 ZM320 509 q-32 0 -71.5 -37.5 q-39.5 -37.5 -74 -99.5 q-34.5 -62 -52.5 -132 q95 33 136 64 q37 29 57.5 70.5 q20.5 41.5 20.5 89.5 q0 27 -4 36 q-4 9 -12 9 Z" /><glyph glyph-name="uni0259" unicode="&#x259;" d="M285 528 q62 0 97 -36 q35 -36 35 -105 q0 -76 -44.5 -171.5 q-44.5 -95.5 -120.5 -162.5 q-76 -67 -165 -67 q-32 0 -53 17 q-21 17 -21 49 q0 81 91 142 q91 61 208 99 q11 50 11 97 q0 96 -69 96 q-86 0 -154 -100 l-16 8 q32 55 86.5 94.5 q54.5 39.5 114.5 39.5 ZM109 5 q32 0 71.5 37.5 q39.5 37.5 74 99.5 q34.5 62 52.5 132 q-95 -33 -136 -64 q-37 -29 -57.5 -70 q-20.5 -41 -20.5 -90 q0 -27 4 -36 q4 -9 12 -9 Z" /><glyph glyph-name="uni0292" unicode="&#x292;" d="M196 208 q79 -12 127.5 -51.5 q48.5 -39.5 48.5 -112.5 q0 -68 -42 -121.5 q-42 -53.5 -109.5 -83.5 q-67.5 -30 -139.5 -30 q-58 0 -88 23 q-29 23 -29 56 q0 27 20.5 48 q20.5 21 48.5 21 q19 0 30 -10 q11 -10 11 -29 q0 -22 -15.5 -40.5 q-15.5 -18.5 -41.5 -25.5 q3 -10 20.5 -16.5 q17.5 -6.5 44.5 -6.5 q54 0 98 27 q44 27 70 76 q26 49 26 114 q0 61 -23.5 99 q-23.5 38 -66.5 51 q-13 -15 -27.5 -24 q-14.5 -9 -26.5 -9 q-8 0 -14 3.5 q-6 3.5 -6 11.5 q0 13 18.5 22 q18.5 9 41.5 11 l250 264 q-45 -28 -72.5 -40 q-27.5 -12 -53.5 -12 q-17 0 -32.5 4 q-15.5 4 -35.5 12 q-42 16 -67 16 q-27 0 -41.5 -12.5 q-14.5 -12.5 -14.5 -35.5 q0 -29 21.5 -48 q21.5 -19 57.5 -26 l-6 -15 q-97 23 -97 99 q0 43 28.5 73 q28.5 30 85.5 30 q24 0 42.5 -5.5 q18.5 -5.5 41.5 -15.5 q25 -11 44.5 -16.5 q19.5 -5.5 46.5 -5.5 q27 0 48 8 q21 8 41 29 l27 0 l-290 -306 Z" /><glyph glyph-name="f" unicode="f" d="M390 782 q44 0 69.5 -20 q25.5 -20 25.5 -51 q0 -26 -19.5 -47.5 q-19.5 -21.5 -47.5 -21.5 q-19 0 -30 9 q-11 9 -10 25 q0 24 15.5 41.5 q15.5 17.5 41.5 25.5 q0 9 -13.5 16.5 q-13.5 7.5 -32.5 7.5 q-30 0 -58 -26 q-21 -19 -35 -60.5 q-14 -41.5 -35 -122.5 l-11 -43 l0 -1 l118 0 l-6 -20 l-118 0 l-179 -668 q-54 -2 -90 -14 l182 682 l-90 0 l6 20 l90 0 l0 1 q22 82 45.5 133.5 q23.5 51.5 56.5 83.5 q23 23 56.5 36.5 q33.5 13.5 68.5 13.5 Z" /><glyph glyph-name="g" unicode="g" d="M443 569 q27 0 42.5 -15 q15.5 -15 15.5 -45 q0 -26 -13 -40 q-13 -14 -31 -14 q-19 0 -33.5 13 q-14.5 13 -14.5 38 q0 18 9 42 q-39 -17 -57 -42 q42 -29 42 -90 q0 -44 -21.5 -86 q-21.5 -42 -61 -72.5 q-39.5 -30.5 -91.5 -40.5 l-33 -18 q-47 -25 -68.5 -40 q-21.5 -15 -21.5 -29 q0 -11 14 -19 q14 -8 46 -16 l73 -19 q57 -15 85 -33 q28 -18 28 -54 q0 -38 -31.5 -81 q-31.5 -43 -97 -73 q-65.5 -30 -161.5 -30 q-77 0 -117.5 20 q-40.5 20 -40.5 55 q0 34 37 68.5 q37 34.5 105 54.5 l7 -15 q-65 -34 -65 -91 q0 -38 26.5 -56.5 q26.5 -18.5 70.5 -18.5 q44 0 91 18 q47 18 77.5 47.5 q30.5 29.5 30.5 61.5 q0 14 -8 19 q-8 5 -33 11 l-153 39 q-54 14 -54 60 q0 31 32.5 61.5 q32.5 30.5 122.5 73.5 l-7 0 q-58 0 -94 27.5 q-36 27.5 -36 81.5 q0 42 22 90 q22 48 71 82 q49 34 124 34 q43 0 72 -13 q19 24 46 39 q27 15 54 15 ZM194 231 q46 0 73 35.5 q27 35.5 37 82.5 q10 47 10 87 q0 37 -10 55.5 q-10 18.5 -37 18.5 q-48 0 -76.5 -42.5 q-28.5 -42.5 -39 -93.5 q-10.5 -51 -10.5 -83 q0 -60 53 -60 Z" /><glyph glyph-name="uni01E5" unicode="&#x1e5;" d="M443 569 q27 0 42.5 -15 q15.5 -15 15.5 -45 q0 -26 -13 -40 q-13 -14 -31 -14 q-19 0 -33.5 13 q-14.5 13 -14.5 38 q0 18 9 42 q-39 -17 -57 -42 q42 -29 42 -90 q0 -44 -21.5 -86 q-21.5 -42 -61 -72.5 q-39.5 -30.5 -91.5 -40.5 l-33 -18 q-47 -25 -68.5 -40 q-21.5 -15 -21.5 -29 q0 -11 14 -19 q14 -8 46 -16 l73 -19 q57 -15 85 -33 q28 -18 28 -54 q0 -21 -10 -44 l83 0 l-4 -20 l-89 0 q-31 -51 -99 -85.5 q-68 -34.5 -171 -34.5 q-77 0 -117.5 20 q-40.5 20 -40.5 55 q0 23 16 45 l-77 0 l4 20 l90 0 q40 38 109 58 l7 -15 q-34 -18 -51 -43 l282 0 l0 4 q0 14 -8 19 q-8 5 -33 11 l-153 39 q-54 14 -54 60 q0 31 32.5 61.5 q32.5 30.5 122.5 73.5 l-7 0 q-58 0 -94 27.5 q-36 27.5 -36 81.5 q0 42 22 90 q22 48 71 82 q49 34 124 34 q43 0 72 -13 q19 24 46 39 q27 15 54 15 ZM194 231 q46 0 73 35.5 q27 35.5 37 82.5 q10 47 10 87 q0 37 -10 55.5 q-10 18.5 -37 18.5 q-48 0 -76.5 -42.5 q-28.5 -42.5 -39 -93.5 q-10.5 -51 -10.5 -83 q0 -60 53 -60 ZM85 -178 q39 0 80 14 q41 14 72.5 37.5 q31.5 23.5 41.5 51.5 l-287 0 q-4 -12 -4 -28 q0 -38 26.5 -56.5 q26.5 -18.5 70.5 -18.5 Z" /><glyph glyph-name="h" unicode="h" d="M486 162 l-25 -73 q-36 -103 -121 -103 q-70 0 -70 62 q0 30 16 78 l95 286 q10 28 10 50 q0 34 -32 34 q-37 0 -79.5 -46.5 q-42.5 -46.5 -85.5 -130.5 q-43 -84 -80 -195 l-36 -124 l-87 0 l198 667 q5 17 5 27 q0 20 -16 29.5 q-16 9.5 -53 9.5 l6 21 q104 1 180 41 l-145 -496 q54 122 108 175.5 q54 53.5 118 53.5 q81 0 81 -76 q0 -32 -15 -75 l-97 -292 q-8 -24 -8 -38 q0 -24 24 -24 q20 0 38.5 22.5 q18.5 22.5 38.5 79.5 l13 37 l19 0 Z" /><glyph glyph-name="i" unicode="i" d="M188 683 q0 30 22.5 53.5 q22.5 23.5 51.5 23.5 q23 0 37 -15 q14 -15 14 -37 q0 -30 -23 -53 q-23 -23 -52 -23 q-22 0 -36 14.5 q-14 14.5 -14 36.5 ZM158 429 q8 24 8 37 q0 25 -22 25 q-23 0 -41 -24 q-18 -24 -38 -78 l-14 -37 l-19 0 l26 73 q20 57 53.5 80 q33.5 23 70.5 23 q66 0 66 -63 q0 -33 -16 -77 l-107 -303 q-8 -24 -8 -37 q0 -25 24 -25 q21 0 39 23 q18 23 39 79 l14 37 l19 0 l-26 -73 q-20 -55 -52.5 -79 q-32.5 -24 -70.5 -24 q-70 0 -70 61 q0 29 18 79 l107 303 Z" /><glyph glyph-name="dotlessi" unicode="&#x131;" d="M158 429 q8 24 8 37 q0 25 -22 25 q-23 0 -41 -24 q-18 -24 -38 -78 l-14 -37 l-19 0 l26 73 q20 57 53.5 80 q33.5 23 70.5 23 q66 0 66 -63 q0 -33 -16 -77 l-107 -303 q-8 -24 -8 -37 q0 -25 24 -25 q21 0 39 23 q18 23 39 79 l14 37 l19 0 l-26 -73 q-20 -55 -52.5 -79 q-32.5 -24 -70.5 -24 q-70 0 -70 61 q0 29 18 79 l107 303 Z" /><glyph glyph-name="ij" unicode="&#x133;" d="M205 683 q0 28 21.5 52.5 q21.5 24.5 52.5 24.5 q23 0 37 -14.5 q14 -14.5 14 -36.5 q0 -28 -22 -52.5 q-22 -24.5 -53 -24.5 q-22 0 -36 14.5 q-14 14.5 -14 36.5 ZM535 683 q0 28 21.5 52.5 q21.5 24.5 52.5 24.5 q23 0 37 -14.5 q14 -14.5 14 -36.5 q0 -28 -22 -52.5 q-22 -24.5 -53 -24.5 q-22 0 -36 14.5 q-14 14.5 -14 36.5 ZM256 91 q14 32 22 66.5 q8 34.5 20 98.5 q9 57 18.5 97.5 q9.5 40.5 25.5 75.5 q44 99 149 99 q82 0 82 -77 q0 -26 -10 -63 l-77 -273 q-69 -247 -195 -293 q-29 -10 -59 -10 q-23 0 -35 10.5 q-12 10.5 -12 28.5 q0 22 18 41.5 q18 19.5 41 19.5 q15 0 24 -8.5 q9 -8.5 9 -22.5 q0 -26 -28 -54 q38 5 61 29 q23 24 38 79 l139 494 q4 13 4 26 q0 36 -39 36 q-32 0 -55.5 -18.5 q-23.5 -18.5 -43.5 -69.5 q-11 -27 -17.5 -57 q-6.5 -30 -15.5 -84 q-14 -73 -23 -111.5 q-9 -38.5 -27 -77.5 q-39 -87 -139 -87 q-45 0 -68 22.5 q-23 22.5 -23 60.5 q0 26 11 57 l107 303 q9 26 9 40 q0 22 -23 22 q-23 0 -41 -24 q-18 -24 -38 -78 l-14 -37 l-19 0 l26 73 q20 57 53.5 80 q33.5 23 70.5 23 q67 0 67 -62 q0 -30 -17 -78 l-107 -303 q-4 -11 -4 -23 q0 -18 12 -28.5 q12 -10.5 35 -10.5 q27 0 49 14.5 q22 14.5 39 53.5 Z" /><glyph glyph-name="uni0237" unicode="&#x237;" d="M-133 -173 q62 3 106 53 q44 50 66 139 l115 410 q7 24 7 39 q0 23 -22 23 q-20 0 -38 -23.5 q-18 -23.5 -38 -78.5 l-13 -37 l-19 0 l24 73 q34 103 123 103 q67 0 67 -61 q0 -26 -15 -79 l-77 -273 q-41 -166 -133 -242 q-34 -28 -74.5 -44.5 q-40.5 -16.5 -82.5 -16.5 l4 15 Z" /><glyph glyph-name="k" unicode="k" d="M432 528 q30 0 44.5 -15 q14.5 -15 14.5 -39 q0 -22 -14.5 -45.5 q-14.5 -23.5 -43.5 -23.5 q-20 0 -29.5 11.5 q-9.5 11.5 -9.5 28.5 q0 14 9 31.5 q9 17.5 23 30.5 l-2 0 q-11 0 -19 -3.5 q-8 -3.5 -18 -10.5 q-14 -11 -24.5 -28.5 q-10.5 -17.5 -23.5 -47.5 q-25 -53 -50.5 -84 q-25.5 -31 -73.5 -42 q63 -3 103.5 -26.5 q40.5 -23.5 40.5 -73.5 q0 -12 -3 -27 l-20 -100 q-2 -8 -2 -20 q0 -11 5 -16 q5 -5 17 -5 q20 0 37.5 23.5 q17.5 23.5 36.5 78.5 l12 37 l19 0 l-24 -73 q-33 -103 -119 -103 q-29 0 -47 16 q-18 16 -18 49 q0 15 4 30 l18 86 q5 23 5 37 q0 38 -27 57 q-27 19 -91 24 l-84 -285 l-87 0 l198 667 q5 17 5 27 q0 20 -16 29.5 q-16 9.5 -53 9.5 l6 21 q104 1 180 41 l-146 -498 q47 4 76 22 q29 18 44.5 42 q15.5 24 33.5 63 q13 30 24.5 49 q11.5 19 28.5 32 q31 23 60 23 Z" /><glyph glyph-name="kgreenlandic" unicode="&#x138;" d="M463 528 q30 0 44.5 -15 q14.5 -15 14.5 -39 q0 -22 -14.5 -45.5 q-14.5 -23.5 -43.5 -23.5 q-20 0 -29.5 11.5 q-9.5 11.5 -9.5 28.5 q0 14 9 31.5 q9 17.5 23 30.5 l-2 0 q-11 0 -19 -3.5 q-8 -3.5 -18 -10.5 q-15 -13 -26 -32.5 q-11 -19.5 -25 -53.5 q-17 -41 -31.5 -67 q-14.5 -26 -39 -48 q-24.5 -22 -60.5 -30 q143 -8 143 -106 q0 -6 -2 -22 l-10 -70 q-2 -14 -2 -18 q0 -13 5 -18 q5 -5 17 -5 q20 0 37.5 23.5 q17.5 23.5 36.5 78.5 l12 37 l19 0 l-24 -73 q-33 -103 -119 -103 q-63 0 -63 68 q0 7 2 27 l8 56 q3 18 3 33 q0 40 -25 59.5 q-25 19.5 -89 25.5 l-64 -255 l-87 0 l120 429 q7 22 7 38 q0 24 -21 24 q-22 0 -40.5 -23.5 q-18.5 -23.5 -37.5 -78.5 l-13 -37 l-19 0 l25 73 q36 103 121 103 q30 0 43.5 -15 q13.5 -15 13.5 -43 q0 -26 -14 -82 l-30 -120 q48 4 78 25 q30 21 46.5 48 q16.5 27 34.5 71 q15 37 26.5 57.5 q11.5 20.5 28.5 35.5 q31 23 60 23 Z" /><glyph glyph-name="l" unicode="l" d="M102 85 q-6 -21 -6 -35 q0 -27 23 -27 q20 0 37.5 23 q17.5 23 37.5 79 l13 37 l19 0 l-25 -73 q-35 -103 -120 -103 q-69 0 -69 65 q0 25 14 75 l163 541 q5 18 5 28 q0 20 -15.5 29 q-15.5 9 -52.5 9 l7 21 q53 1 95.5 11 q42.5 10 82.5 30 l-209 -710 Z" /><glyph glyph-name="lslash" unicode="&#x142;" d="M117 85 q-6 -21 -6 -35 q0 -27 23 -27 q20 0 37.5 23 q17.5 23 37.5 79 l13 37 l19 0 l-25 -73 q-35 -103 -120 -103 q-69 0 -69 65 q0 25 14 75 l59 196 l-100 -67 l4 30 l106 72 l94 310 q5 18 5 28 q0 20 -15.5 29 q-15.5 9 -52.5 9 l7 21 q53 1 95.5 11 q42.5 10 82.5 30 l-115 -390 l138 92 l-4 -30 l-144 -95 l-84 -287 Z" /><glyph glyph-name="m" unicode="m" d="M759 162 l-25 -73 q-36 -103 -121 -103 q-45 0 -62 27 q-9 15 -9 35 q0 27 17 78 l95 286 q10 30 10 53 q0 31 -22 31 q-57 0 -128.5 -130.5 q-71.5 -130.5 -138.5 -345.5 l1 6 l-7 -26 l-90 0 l125 412 q10 30 10 51 q0 33 -28 33 q-37 0 -83 -58.5 q-46 -58.5 -90.5 -159.5 q-44.5 -101 -77.5 -223 l-14 -55 l-87 0 l120 429 q7 28 7 37 q0 25 -21 25 q-22 0 -40.5 -23.5 q-18.5 -23.5 -37.5 -78.5 l-13 -37 l-19 0 l25 73 q36 103 121 103 q58 0 58 -60 q0 -26 -15 -80 l-32 -127 q60 146 113 206.5 q53 60.5 119 60.5 q66 0 66 -70 q0 -31 -14 -81 l-36 -134 q42 105 79 166.5 q37 61.5 75.5 90 q38.5 28.5 85.5 28.5 q70 0 70 -75 q0 -32 -14 -76 l-97 -292 q-8 -26 -8 -38 q0 -24 24 -24 q20 0 38.5 22.5 q18.5 22.5 38.5 79.5 l13 37 l19 0 Z" /><glyph glyph-name="n" unicode="n" d="M530 162 l-25 -73 q-36 -103 -121 -103 q-45 0 -63 29 q-8 12 -8 33 q0 27 17 78 l95 286 q10 33 10 49 q0 35 -32 35 q-38 0 -86.5 -55.5 q-48.5 -55.5 -95.5 -152.5 q-47 -97 -81 -215 l-18 -73 l-87 0 l120 429 q7 26 7 37 q0 25 -22 25 q-22 0 -39 -22 q-17 -22 -38 -80 l-13 -37 l-19 0 l25 73 q36 103 119 103 q32 0 45.5 -15.5 q13.5 -15.5 13.5 -43.5 q0 -27 -14 -81 l-35 -137 q64 151 122.5 214 q58.5 63 128.5 63 q81 0 81 -75 q0 -33 -15 -76 l-97 -292 q-8 -24 -8 -38 q0 -24 24 -24 q20 0 38.5 22.5 q18.5 22.5 38.5 79.5 l13 37 l19 0 Z" /><glyph glyph-name="eng" unicode="&#x14b;" d="M435 528 q80 0 80 -72 q0 -32 -14 -79 l-74 -262 q-70 -247 -195 -293 q-29 -10 -59 -10 q-22 0 -34.5 10 q-12.5 10 -12.5 28 q0 10 2 16 q6 18 21.5 32 q15.5 14 35.5 14 q15 0 24 -9 q9 -9 9 -22 q0 -4 -2 -12 q-8 -25 -26 -42 q38 5 61 29 q23 24 38 79 l135 477 q10 35 10 52 q0 32 -32 32 q-38 0 -86.5 -55.5 q-48.5 -55.5 -95.5 -152.5 q-47 -97 -81 -215 l-18 -73 l-87 0 l120 429 q7 28 7 39 q0 23 -21 23 q-22 0 -40.5 -23.5 q-18.5 -23.5 -37.5 -78.5 l-13 -37 l-19 0 l25 73 q36 103 121 103 q30 0 43.5 -14.5 q13.5 -14.5 13.5 -42.5 q0 -27 -14 -83 l-43 -168 q65 169 125.5 238.5 q60.5 69.5 133.5 69.5 Z" /><glyph glyph-name="o" unicode="o" d="M21 143 q0 79 35 169.5 q35 90.5 101 153 q66 62.5 153 62.5 q64 0 100.5 -39.5 q36.5 -39.5 36.5 -117.5 q0 -79 -35 -169.5 q-35 -90.5 -101 -153 q-66 -62.5 -153 -62.5 q-64 0 -100.5 39.5 q-36.5 39.5 -36.5 117.5 ZM304 508 q-51 0 -96.5 -65 q-45.5 -65 -73 -162.5 q-27.5 -97.5 -27.5 -187.5 q0 -45 14 -66 q14 -21 43 -21 q51 0 96.5 65 q45.5 65 73 162.5 q27.5 97.5 27.5 187.5 q0 45 -14 66 q-14 21 -43 21 Z" /><glyph glyph-name="ohorn" unicode="&#x1a1;" d="M496 630 q22 0 33.5 -13.5 q11.5 -13.5 11.5 -34.5 q0 -22 -13 -40.5 q-13 -18.5 -34 -31.5 q-32 -20 -79 -27 q32 -40 32 -112 q0 -79 -35 -169.5 q-35 -90.5 -101 -153 q-66 -62.5 -153 -62.5 q-64 0 -100.5 39.5 q-36.5 39.5 -36.5 117.5 q0 79 35 169.5 q35 90.5 101 153 q66 62.5 153 62.5 q55 0 89 -28 q42 4 73 19 q-25 25 -25 56 q0 22 12.5 38.5 q12.5 16.5 36.5 16.5 ZM164 6 q51 0 96.5 65 q45.5 65 73 162.5 q27.5 97.5 27.5 187.5 q0 45 -14 66 q-14 21 -43 21 q-51 0 -96.5 -65 q-45.5 -65 -73 -162.5 q-27.5 -97.5 -27.5 -187.5 q0 -45 14 -66 q14 -21 43 -21 Z" /><glyph glyph-name="oslash" unicode="ø" d="M421 474 q26 -38 26 -103 q0 -79 -35 -169.5 q-35 -90.5 -101 -153 q-66 -62.5 -153 -62.5 q-67 0 -103 42 l-84 -101 l-14 13 l86 105 q-22 39 -22 98 q0 79 35 169.5 q35 90.5 101 153 q66 62.5 153 62.5 q64 0 100 -39 l80 97 l13 -12 l-82 -100 ZM304 508 q-49 0 -93 -60.5 q-44 -60.5 -72 -153 q-28 -92.5 -32 -181.5 l253 327 q-4 68 -56 68 ZM164 6 q51 0 95.5 62.5 q44.5 62.5 72 157.5 q27.5 95 29.5 185 l-254 -331 q4 -74 57 -74 Z" /><glyph glyph-name="oslashacute" unicode="&#x1ff;" d="M487 751 q-22 -23 -68 -55 q-7 -5 -42 -32.5 q-35 -27.5 -78 -64.5 l-10 9 q39 47 92 118 q39 53 58 72 q19 22 41 22 q14 0 22 -7 q8 -8 8 -19 q0 -20 -23 -43 ZM503 574 l-82 -100 q26 -38 26 -103 q0 -79 -35 -169.5 q-35 -90.5 -101 -153 q-66 -62.5 -153 -62.5 q-67 0 -103 42 l-84 -101 l-14 13 l86 105 q-22 39 -22 98 q0 79 35 169.5 q35 90.5 101 153 q66 62.5 153 62.5 q64 0 100 -39 l80 97 l13 -12 ZM304 508 q-49 0 -93 -60.5 q-44 -60.5 -72 -153 q-28 -92.5 -32 -181.5 l253 327 q-4 68 -56 68 ZM164 6 q51 0 95.5 62.5 q44.5 62.5 72 157.5 q27.5 95 29.5 185 l-254 -331 q4 -74 57 -74 Z" /><glyph glyph-name="oe" unicode="&#x153;" d="M705 452 q0 -78 -90.5 -136 q-90.5 -58 -209.5 -96 q-10 -53 -10 -96 q0 -96 69 -96 q82 0 150 100 l20 -8 q-32 -55 -86.5 -94.5 q-54.5 -39.5 -114.5 -39.5 q-59 0 -93.5 33 q-34.5 33 -38.5 95 q-63 -128 -164 -128 q-55 0 -88.5 40 q-33.5 40 -33.5 117 q0 74 43.5 163 q43.5 89 118.5 150.5 q75 61.5 165 61.5 q44 0 66 -18.5 q22 -18.5 22 -51.5 q0 -10 -1 -15 q39 44 85.5 69.5 q46.5 25.5 96.5 25.5 q42 0 68 -19.5 q26 -19.5 26 -56.5 ZM589 509 q-29 0 -65 -37.5 q-36 -37.5 -67 -100 q-31 -62.5 -48 -132.5 q99 35 138 65 q37 29 57.5 70.5 q20.5 41.5 20.5 89.5 q0 21 -9.5 33 q-9.5 12 -26.5 12 ZM304 166 q7 53 30.5 111.5 q23.5 58.5 58.5 109.5 q12 27 12 54 q0 24 -13.5 39 q-13.5 15 -42.5 15 q-66 0 -123 -62.5 q-57 -62.5 -91 -157 q-34 -94.5 -34 -182.5 q0 -44 11.5 -63 q11.5 -19 35.5 -19 q44 0 85.5 42 q41.5 42 70.5 113 Z" /><glyph glyph-name="p" unicode="p" d="M409 528 q49 0 76.5 -35.5 q27.5 -35.5 27.5 -105.5 q0 -81 -36 -175.5 q-36 -94.5 -103 -160 q-67 -65.5 -154 -65.5 q-27 0 -49 15.5 q-22 15.5 -32 42.5 l-38 -132 q-4 -12 -4 -24 q0 -26 22 -37 q22 -11 63 -11 l-6 -21 l-21 1 q-87 3 -113 3 q-27 0 -111 -4 l6 21 q36 0 52 13 q16 13 26 49 l187 667 q-30 -67 -70 -118 q-40 -51 -99 -107 l-11 13 q47 46 78.5 82 q31.5 36 63 87.5 q31.5 51.5 62.5 126.5 l4 14 q54 2 91 14 l-104 -364 q47 111 93.5 161 q46.5 50 98.5 50 ZM219 9 q53 0 101 66.5 q48 66.5 77.5 161.5 q29.5 95 29.5 172 q0 43 -12.5 65 q-12.5 22 -34.5 22 q-28 0 -65.5 -45.5 q-37.5 -45.5 -75.5 -122.5 q-38 -77 -67 -168 l-26 -91 q12 -32 30 -46 q18 -14 43 -14 Z" /><glyph glyph-name="thorn" unicode="þ" d="M409 528 q49 0 76.5 -35.5 q27.5 -35.5 27.5 -105.5 q0 -81 -36 -175.5 q-36 -94.5 -103 -160 q-67 -65.5 -154 -65.5 q-28 0 -49.5 15 q-21.5 15 -31.5 43 l-38 -132 q-4 -12 -4 -24 q0 -26 22 -37 q22 -11 63 -11 l-6 -21 l-21 1 q-87 3 -113 3 q-27 0 -111 -4 l6 21 q36 0 52 13 q16 13 26 49 l188 666 q-30 -66 -70.5 -117 q-40.5 -51 -99.5 -107 l-11 13 q48 47 79 82.5 q31 35.5 63 87 q32 51.5 63 125.5 l36 129 q54 2 91 14 l-126 -440 q44 92 87.5 132.5 q43.5 40.5 93.5 40.5 ZM219 9 q53 0 101 66.5 q48 66.5 77.5 161.5 q29.5 95 29.5 172 q0 43 -12.5 65 q-12.5 22 -34.5 22 q-26 0 -60 -33.5 q-34 -33.5 -67 -90.5 q-33 -57 -56 -123 l-51 -180 q13 -33 30.5 -46.5 q17.5 -13.5 42.5 -13.5 Z" /><glyph glyph-name="q" unicode="q" d="M326 -88 q-4 -13 -4 -26 q0 -46 65 -46 l-6 -21 l-21 1 q-87 3 -113 3 q-27 0 -111 -4 l6 21 q46 0 67 13 q21 13 31 49 l69 264 q-45 -96 -90.5 -138 q-45.5 -42 -96.5 -42 q-49 0 -76.5 35.5 q-27.5 35.5 -27.5 105.5 q0 81 36 175.5 q36 94.5 103 160 q67 65.5 154 65.5 q30 0 52.5 -17.5 q22.5 -17.5 31.5 -49.5 l85 69 l16 -7 q-13 -26 -21 -58 l-149 -553 ZM151 18 q28 0 64 37.5 q36 37.5 70.5 100.5 q34.5 63 56.5 135 l41 159 q-12 30 -29.5 42.5 q-17.5 12.5 -41.5 12.5 q-53 0 -101 -66.5 q-48 -66.5 -77.5 -161.5 q-29.5 -95 -29.5 -172 q0 -43 12.5 -65 q12.5 -22 34.5 -22 Z" /><glyph glyph-name="r" unicode="r" d="M395 528 q27 0 43 -16 q16 -16 16 -41 q0 -30 -21 -51 q-21 -21 -49 -21 q-18 0 -29 9.5 q-11 9.5 -11 26.5 q0 23 12 39 q12 16 33 25 q-4 4 -11 4 q-54 0 -117.5 -116.5 q-63.5 -116.5 -119.5 -307.5 l-20 -79 l-87 0 l120 429 q7 22 7 39 q0 23 -21 23 q-22 0 -40.5 -23.5 q-18.5 -23.5 -37.5 -78.5 l-13 -37 l-19 0 l25 73 q36 103 121 103 q57 0 57 -58 q0 -28 -14 -82 l-32 -126 q54 145 101.5 205.5 q47.5 60.5 106.5 60.5 Z" /><glyph glyph-name="s" unicode="s" d="M59 15 q10 -5 19.5 -7 q9.5 -2 26.5 -2 q45 0 73 27 q28 27 28 76 q0 32 -12 62.5 q-12 30.5 -40 69.5 q-34 46 -49.5 75.5 q-15.5 29.5 -15.5 69.5 q0 41 21 73.5 q21 32.5 56.5 50.5 q35.5 18 77.5 18 q52 0 87 -19.5 q35 -19.5 35 -67.5 q0 -18 -11.5 -35 q-11.5 -17 -34.5 -17 q-17 0 -28.5 12 q-11.5 12 -11.5 30 q0 32 28 67 q-19 12 -50 12 q-38 0 -62.5 -25.5 q-24.5 -25.5 -24.5 -69.5 q0 -26 9 -44.5 q9 -18.5 33 -54.5 l18 -26 q30 -46 44.5 -79 q14.5 -33 14.5 -68 q0 -45 -23.5 -81 q-23.5 -36 -63 -56 q-39.5 -20 -85.5 -20 q-57 0 -96 24.5 q-39 24.5 -39 74.5 q0 17 9.5 31 q9.5 14 29.5 14 q22 0 33 -18 q11 -18 11 -45 q0 -17 -7 -52 Z" /><glyph glyph-name="germandbls" unicode="ß" d="M366 767 q-43 0 -70.5 -40.5 q-27.5 -40.5 -53.5 -137.5 l-201 -763 q-54 -2 -90 -14 l182 695 q25 96 55 155 q30 59 76 89.5 q46 30.5 117 30.5 q70 0 103 -29 q33 -29 33 -72 q0 -43 -27.5 -79 q-27.5 -36 -80.5 -84 l-24 -23 q-34 -31 -34 -75 q0 -30 12.5 -53.5 q12.5 -23.5 37.5 -55.5 l16 -21 q28 -38 43.5 -73 q15.5 -35 15.5 -72 q0 -47 -24 -83 q-24 -36 -65 -56 q-41 -20 -90 -20 q-52 0 -90 22 q-38 22 -38 64 q0 22 11 35 q11 13 28 13 q24 0 33.5 -21.5 q9.5 -21.5 9.5 -46.5 q0 -14 -6 -38 q22 -8 42 -8 q46 0 75.5 28 q29.5 28 29.5 76 q0 65 -52 131 q-5 7 -24 30 q-19 23 -30 47.5 q-11 24.5 -11 50.5 q0 32 15 53 q15 21 48 49 q31 28 38 36 q64 67 64 154 q0 53 -20 79.5 q-20 26.5 -54 26.5 Z" /><glyph glyph-name="longs" unicode="&#x17f;" d="M390 782 q44 0 69.5 -20 q25.5 -20 25.5 -51 q0 -26 -19.5 -47.5 q-19.5 -21.5 -47.5 -21.5 q-19 0 -30 9 q-11 9 -10 25 q0 24 15.5 41.5 q15.5 17.5 41.5 25.5 q0 9 -13.5 16.5 q-13.5 7.5 -32.5 7.5 q-30 0 -58 -26 q-21 -19 -35 -60.5 q-14 -41.5 -35 -122.5 l-11 -43 l-185 -689 q-54 -2 -90 -14 l182 682 l-90 0 l6 20 l90 0 l0 1 q22 82 45.5 133.5 q23.5 51.5 56.5 83.5 q23 23 56.5 36.5 q33.5 13.5 68.5 13.5 Z" /><glyph glyph-name="t" unicode="t" d="M121 85 q-3 -12 -3 -22 q0 -20 12 -30 q12 -10 31 -10 q25 0 46.5 21.5 q21.5 21.5 42.5 78.5 l14 39 l19 0 l-21 -63 q-21 -62 -54.5 -87.5 q-33.5 -25.5 -82.5 -25.5 q-45 0 -67 22 q-22 22 -22 61 q0 26 9 57 l106 368 l-90 0 l5 20 l90 0 l44 152 q54 2 90 14 l-47 -166 l132 0 l-3 -20 l-135 0 l-116 -409 Z" /><glyph glyph-name="tbar" unicode="&#x167;" d="M237 494 l-21 -73 l137 0 l-3 -20 l-139 0 l-90 -316 q-3 -12 -3 -22 q0 -20 12 -30 q12 -10 31 -10 q25 0 46.5 21.5 q21.5 21.5 42.5 78.5 l14 39 l19 0 l-21 -63 q-21 -62 -54.5 -87.5 q-33.5 -25.5 -82.5 -25.5 q-45 0 -67 22 q-22 22 -22 61 q0 26 9 57 l79 275 l-85 0 l5 20 l86 0 l21 73 l-90 0 l5 20 l90 0 l44 152 q54 2 90 14 l-47 -166 l132 0 l-3 -20 l-135 0 Z" /><glyph glyph-name="u" unicode="u" d="M499 162 l19 0 l-25 -73 q-36 -103 -121 -103 q-16 0 -30 7 q-14 7 -21 20 q-6 14 -6 31 q0 26 14 82 l31 125 q-58 -143 -113 -204 q-55 -61 -120 -61 q-84 0 -84 77 q0 32 14 74 l97 292 q8 24 8 37 q0 25 -24 25 q-20 0 -38.5 -22.5 q-18.5 -22.5 -38.5 -79.5 l-13 -37 l-19 0 l25 73 q36 103 121 103 q70 0 70 -62 q0 -30 -16 -78 l-95 -286 q-10 -30 -10 -50 q0 -34 32 -34 q39 0 86 57.5 q47 57.5 93 159.5 q46 102 80 230 l12 49 q57 2 91 14 l-124 -443 q-7 -26 -7 -39 q0 -23 21 -23 q22 0 40.5 23.5 q18.5 23.5 37.5 78.5 l13 37 Z" /><glyph glyph-name="uhorn" unicode="&#x1b0;" d="M565 650 q22 0 33.5 -13.5 q11.5 -13.5 11.5 -34.5 q0 -22 -13 -40.5 q-13 -18.5 -34 -31.5 q-18 -10 -50 -22 l-119 -423 q-7 -26 -7 -39 q0 -23 21 -23 q22 0 40.5 23.5 q18.5 23.5 37.5 78.5 l13 37 l19 0 l-25 -73 q-36 -103 -121 -103 q-16 0 -30 7 q-14 7 -21 20 q-6 14 -6 31 q0 26 14 82 l31 125 q-58 -143 -113 -204 q-55 -61 -120 -61 q-84 0 -84 77 q0 32 14 74 l97 292 q8 24 8 37 q0 25 -24 25 q-20 0 -38.5 -22.5 q-18.5 -22.5 -38.5 -79.5 l-13 -37 l-19 0 l25 73 q36 103 121 103 q70 0 70 -62 q0 -30 -16 -78 l-95 -286 q-10 -30 -10 -50 q0 -34 32 -34 q39 0 86 57.5 q47 57.5 93 159.5 q46 102 80 230 l12 49 q47 2 73 9 q22 6 41 16 q-25 25 -25 56 q0 22 12.5 38.5 q12.5 16.5 36.5 16.5 Z" /><glyph glyph-name="v" unicode="v" d="M474 379 q-31 15 -52 41 q-21 26 -21 60 q0 25 13.5 37 q13.5 12 30.5 12 q28 0 42 -27 q14 -27 14 -74 q0 -26 -2 -40 q-12 -103 -52.5 -195 q-40.5 -92 -108 -149.5 q-67.5 -57.5 -155.5 -57.5 q-63 0 -90 36 q-27 36 -24 88 q6 82 68.5 183 q62.5 101 163.5 197 q-25 -10 -57 -30 q-25 -16 -43 -24.5 q-18 -8.5 -32 -8.5 q-11 0 -21 6 q-10 6 -13 7 q-18 12 -29 12 q-16 0 -26.5 -13.5 q-10.5 -13.5 -22.5 -48.5 l-11 -37 l-19 0 l22 73 q28 102 94 102 q13 0 22 -4.5 q9 -4.5 23 -14.5 q13 -10 23 -15 q10 -5 23 -5 q50 0 84 31 l10 19 l21 -10 q-81 -100 -126 -199 q-45 -99 -54 -203 q-1 -9 -1 -24 q0 -84 44 -84 q73 0 132 61 q59 61 93 146.5 q34 85.5 37 152.5 Z" /><glyph glyph-name="w" unicode="w" d="M619 410 q8 -33 8 -84 q0 -81 -26.5 -159 q-26.5 -78 -82 -129.5 q-55.5 -51.5 -137.5 -51.5 q-79 0 -106 61 q-68 -61 -138 -61 q-64 0 -94 32.5 q-30 32.5 -30 81.5 q0 85 84 184.5 q84 99.5 203 188.5 q-3 -1 -23 -14 q-28 -17 -44 -24.5 q-16 -7.5 -30 -7.5 q-12 0 -21.5 6 q-9.5 6 -11.5 7 q-18 12 -30 12 q-16 0 -27 -13.5 q-11 -13.5 -22 -48.5 l-12 -37 l-19 0 l23 73 q18 56 41.5 79 q23.5 23 51.5 23 q13 0 22 -4.5 q9 -4.5 23 -14.5 q15 -10 24.5 -15 q9.5 -5 22.5 -5 q24 0 43 7.5 q19 7.5 37 23.5 l14 19 l21 -10 q-122 -103 -197 -208 q-75 -105 -75 -215 q0 -48 14 -69 q14 -21 41 -21 q25 0 51.5 12 q26.5 12 51.5 36 q-7 28 -7 59 q0 56 24.5 111 q24.5 55 59 90 q34.5 35 62.5 35 q20 0 27.5 -21 q7.5 -21 7.5 -49 q0 -54 -29 -109 q-29 -55 -86 -99 q23 -66 80 -66 q64 0 108.5 49 q44.5 49 66.5 121 q22 72 22 140 q0 41 -7 66 q-36 7 -65.5 29.5 q-29.5 22.5 -29.5 59.5 q0 24 12.5 36 q12.5 12 29.5 12 q28 0 46 -32 q18 -32 28 -86 ZM401 337 q-17 0 -37 -26 q-20 -26 -34 -66.5 q-14 -40.5 -14 -81.5 q0 -36 7 -64 q45 37 71 88.5 q26 51.5 26 102.5 q0 47 -19 47 Z" /><glyph glyph-name="x" unicode="x" d="M478 528 q19 0 31.5 -10 q12.5 -10 12.5 -27 q0 -19 -15 -33.5 q-15 -14.5 -38 -14.5 q-34 0 -63 24 q-63 -57 -108 -175 l24 -214 q4 -25 12 -35.5 q8 -10.5 22 -10.5 q17 0 32.5 19.5 q15.5 19.5 34.5 72.5 l13 37 l19 0 l-25 -73 q-37 -102 -114 -102 q-72 0 -83 92 l-15 130 q-40 -89 -106 -160 q-31 -32 -54.5 -47 q-23.5 -15 -46.5 -15 q-22 0 -33.5 9.5 q-11.5 9.5 -11.5 27.5 q0 19 15 33.5 q15 14.5 37 14.5 q32 0 63 -24 q41 38 76 91 q35 53 57 106 l-21 192 q-4 25 -12 35.5 q-8 10.5 -22 10.5 q-17 0 -32.5 -19.5 q-15.5 -19.5 -34.5 -72.5 l-13 -37 l-19 0 l25 73 q37 102 114 102 q37 0 57 -20.5 q20 -20.5 26 -71.5 l12 -103 q33 76 84 134 q28 33 51.5 47 q23.5 14 48.5 14 Z" /><glyph glyph-name="y" unicode="y" d="M406 528 q52 0 52 -81 q0 -95 -59 -220 q-59 -125 -138 -224 q-93 -116 -197 -166 q-53 -25 -87 -25 q-21 0 -35.5 11 q-14.5 11 -14.5 30 q0 21 16 33 q16 12 38 12 q21 0 40.5 -10.5 q19.5 -10.5 42.5 -28.5 q78 42 150 120 l-74 448 q-5 31 -12 43 q-7 12 -20 12 q-13 0 -26.5 -19.5 q-13.5 -19.5 -32.5 -72.5 l-13 -37 l-19 0 l25 73 q35 102 115 102 q32 0 48.5 -20 q16.5 -20 23.5 -72 l51 -376 q55 76 95 159.5 q40 83.5 56 165.5 q-30 16 -53 39.5 q-23 23.5 -23 52.5 q0 23 14.5 37 q14.5 14 36.5 14 Z" /><glyph glyph-name="z" unicode="z" d="M25 39 q45 29 72.5 40.5 q27.5 11.5 54.5 11.5 q16 0 29.5 -4 q13.5 -4 35.5 -12 q22 -8 37.5 -12 q15.5 -4 32.5 -4 q26 0 40.5 12.5 q14.5 12.5 14.5 37.5 q0 26 -22 45.5 q-22 19.5 -57 26.5 l6 15 q47 -11 72 -35 q25 -24 25 -62 q0 -44 -28.5 -74.5 q-28.5 -30.5 -87.5 -30.5 q-23 0 -41.5 5.5 q-18.5 5.5 -40.5 15.5 q-25 11 -44.5 16.5 q-19.5 5.5 -45.5 5.5 q-28 0 -49 -8 q-21 -8 -41 -29 l-27 0 l451 475 q-45 -29 -72.5 -40.5 q-27.5 -11.5 -54.5 -11.5 q-16 0 -29.5 4 q-13.5 4 -35.5 12 q-22 8 -37.5 12 q-15.5 4 -32.5 4 q-26 0 -40.5 -12.5 q-14.5 -12.5 -14.5 -37.5 q0 -26 22 -45.5 q22 -19.5 57 -26.5 l-6 -15 q-47 11 -72 35 q-25 24 -25 62 q0 44 28.5 74.5 q28.5 30.5 87.5 30.5 q23 0 41.5 -5.5 q18.5 -5.5 40.5 -15.5 q25 -11 44.5 -16.5 q19.5 -5.5 45.5 -5.5 q28 0 49 8 q21 8 41 29 l27 0 l-451 -475 Z" /><glyph glyph-name="fi" unicode="&#xfb01;" d="M594 739 q9 -12 9 -31 q0 -30 -23 -53 q-23 -23 -52 -23 q-22 0 -36.5 14.5 q-14.5 14.5 -14.5 35.5 q0 4 2 14 q4 22 20.5 39.5 q16.5 17.5 38.5 22.5 q-23 9 -65 9 q-55 0 -105 -32 q-40 -26 -63.5 -75.5 q-23.5 -49.5 -48.5 -144.5 l0 -1 l190 0 q57 2 91 14 l-135 -443 q-7 -21 -7 -37 q0 -25 23 -25 q21 0 39 23 q18 23 39 79 l14 37 l19 0 l-26 -73 q-20 -55 -52.5 -79 q-32.5 -24 -70.5 -24 q-70 0 -70 61 q0 29 18 79 l112 368 l-190 0 l-190 -668 q-54 -2 -90 -14 l194 682 l-97 0 l6 20 l96 0 q20 72 44 119.5 q24 47.5 59 77.5 q42 36 96.5 53.5 q54.5 17.5 112.5 17.5 q36 0 66.5 -10.5 q30.5 -10.5 46.5 -32.5 Z" /><glyph glyph-name="fl" unicode="&#xfb02;" d="M518 162 l19 0 l-25 -73 q-35 -103 -120 -103 q-69 0 -69 65 q0 25 14 75 l163 541 q5 18 5 30 q0 21 -15 31.5 q-15 10.5 -51 10.5 l-12 0 q-34 0 -78 -26 q-34 -19 -53.5 -64 q-19.5 -45 -43.5 -134 l0 -1 l117 0 l-6 -20 l-117 0 l-185 -668 q-54 -2 -90 -14 l189 682 l-92 0 l6 20 l91 0 q18 66 39.5 108.5 q21.5 42.5 52.5 69.5 q34 30 78.5 46 q44.5 16 89.5 16 l19 0 q53 1 95.5 11 q42.5 10 82.5 30 l-209 -710 q-6 -21 -6 -35 q0 -27 23 -27 q20 0 37.5 23 q17.5 23 37.5 79 l13 37 Z" /><glyph glyph-name="ordfeminine" unicode="ª" d="M436 478 l19 0 l-18 -49 q-14 -39 -35.5 -54 q-21.5 -15 -54.5 -15 q-22 0 -32.5 9.5 q-10.5 9.5 -10.5 31.5 q0 20 9 53 l12 43 q-66 -137 -150 -137 q-36 0 -57 22 q-21 22 -21 58 q0 58 38.5 124.5 q38.5 66.5 96 112 q57.5 45.5 110.5 45.5 q14 0 25 -8.5 q11 -8.5 13 -26.5 l7 26 q40 0 70 9 l-94 -292 q-5 -17 -5 -25 q0 -16 16 -16 q16 0 28.5 14 q12.5 14 24.5 50 l9 25 ZM195 385 q21 0 51 29 q30 29 58.5 76 q28.5 47 47.5 100 l20 70 q-1 38 -25 38 q-34 0 -76 -39 q-42 -39 -71.5 -101 q-29.5 -62 -29.5 -126 q0 -47 25 -47 Z" /><glyph glyph-name="ordmasculine" unicode="º" d="M107 465 q0 53 25.5 113 q25.5 60 74 102 q48.5 42 112.5 42 q54 0 84.5 -26.5 q30.5 -26.5 30.5 -78.5 q0 -53 -25.5 -113 q-25.5 -60 -74 -101.5 q-48.5 -41.5 -112.5 -41.5 q-54 0 -84.5 26.5 q-30.5 26.5 -30.5 77.5 ZM314 704 q-35 0 -66.5 -41 q-31.5 -41 -50 -103.5 q-18.5 -62.5 -18.5 -122.5 q0 -58 48 -58 q35 0 66.5 41 q31.5 41 50 103.5 q18.5 62.5 18.5 122.5 q0 58 -48 58 Z" /><glyph glyph-name="uni0411" unicode="&#x411;" d="M439 705 q144 0 207 3 q-25 -66 -38 -118 q-6 -22 -13 -62 l-22 0 q7 39 7 71 q0 47 -21 66.5 q-21 19.5 -67 19.5 l-93 0 q-35 0 -52.5 -5.5 q-17.5 -5.5 -28 -22.5 q-10.5 -17 -20.5 -55 l-60 -226 l36 0 q98 0 160 -15 q62 -15 93.5 -51 q31.5 -36 31.5 -99 q0 -68 -43 -115.5 q-43 -47.5 -111.5 -71.5 q-68.5 -24 -143.5 -24 l-73 1 q-60 2 -99 2 q-80 0 -122 -3 l4 20 q36 2 54 8 q18 6 28.5 23 q10.5 17 20.5 55 l132 496 q8 34 8 48 q0 22 -14.5 29 q-14.5 7 -52.5 9 l5 20 l34 -1 q56 -2 87 -2 l64 0 l102 0 ZM234 359 l-67 -253 q-9 -36 -9 -49 q0 -18 13.5 -26 q13.5 -8 46.5 -8 q127 0 184 51.5 q57 51.5 57 151.5 q0 46 -17.5 75 q-17.5 29 -61 43.5 q-43.5 14.5 -119.5 14.5 l-27 0 Z" /><glyph glyph-name="uni0413" unicode="&#x413;" d="M166 106 q-8 -30 -8 -44 q0 -24 18.5 -32 q18.5 -8 67.5 -10 l-5 -20 q-52 3 -147 3 q-85 0 -127 -3 l5 20 q36 2 53.5 8 q17.5 6 28.5 23 q11 17 21 55 l133 496 q9 32 9 49 q0 21 -14.5 28 q-14.5 7 -52.5 9 l5 20 l40 -1 q60 -2 93 -2 l61 0 l96 0 q119 0 169 3 q-25 -71 -41 -128 q-10 -37 -19 -82 l-23 0 q11 60 11 94 q0 50 -18.5 71.5 q-18.5 21.5 -56.5 21.5 l-63 0 q-36 0 -53.5 -5.5 q-17.5 -5.5 -28.5 -22.5 q-11 -17 -21 -55 l-133 -496 Z" /><glyph glyph-name="uni0490" unicode="&#x490;" d="M481 708 q41 0 65 14.5 q24 14.5 41.5 46.5 q17.5 32 39.5 96 l23 0 q-9 -23 -19 -62 q-14 -54 -25 -118 l-204 0 q-36 0 -54 -5.5 q-18 -5.5 -28.5 -22.5 q-10.5 -17 -20.5 -55 l-133 -496 q-8 -30 -8 -44 q0 -24 18.5 -32 q18.5 -8 67.5 -10 l-5 -20 q-52 3 -147 3 q-85 0 -127 -3 l5 20 q37 2 54.5 8 q17.5 6 28 23 q10.5 17 20.5 55 l133 496 q9 38 9 49 q0 21 -14.5 28 q-14.5 7 -52.5 9 l5 20 q52 -3 150 -3 l88 1 q64 2 90 2 Z" /><glyph glyph-name="uni0414" unicode="&#x414;" d="M581 705 q85 0 129 3 l-5 -20 q-37 -2 -54.5 -8 q-17.5 -6 -28 -23 q-10.5 -17 -20.5 -55 l-132 -496 q-8 -34 -8 -49 q0 -22 15 -29.5 q15 -7.5 52 -7.5 l31 0 q-22 -56 -44 -148 q-5 -22 -13 -62 l-22 0 q7 41 7 75 q0 118 -91 118 q-34 0 -56 -1 q-70 -2 -152 -2 l-116 0 q-55 0 -104 -43.5 q-49 -43.5 -91 -146.5 l-22 0 q21 56 23 62 q30 89 41 148 l72 0 q17 0 35.5 7 q18.5 7 33.5 19 q37 31 82 107 q45 76 91 191.5 q46 115.5 84 257.5 q9 32 9 48 q0 22 -15 29 q-15 7 -53 9 l5 20 q31 -3 93 -3 q16 0 26 1 q30 2 63 2 q52 0 98 -2 q14 -1 37 -1 ZM509 602 q9 32 9 49 q0 22 -15 29.5 q-15 7.5 -53 7.5 l-14 0 q-34 0 -51 -6.5 q-17 -6.5 -27 -24 q-10 -17.5 -20 -55.5 q-47 -180 -120.5 -345 q-73.5 -165 -142.5 -223 q-10 -8 -20 -14 l224 0 q33 0 50.5 6.5 q17.5 6.5 27.5 24.5 q10 18 20 55 l132 496 Z" /><glyph glyph-name="uni0416" unicode="&#x416;" d="M350 358 q-31 -18 -56.5 -49 q-25.5 -31 -55.5 -94 l-53 -113 q-30 -63 -54.5 -89.5 q-24.5 -26.5 -68.5 -26.5 q-79 0 -105 92 l15 7 q21 -44 60 -44 q20 0 31.5 12 q11.5 12 24.5 39 l58 113 q31 62 59 94.5 q28 32.5 57 46.5 q29 14 74 23 q-43 6 -60.5 31.5 q-17.5 25.5 -17.5 67.5 q0 21 4 48 q4 27 9 52 q11 57 11 83 q0 21 -8.5 35.5 q-8.5 14.5 -29.5 14.5 l-3 0 q8 -14 8 -32 q0 -27 -21 -48.5 q-21 -21.5 -48 -21.5 q-31 0 -31 31 q0 36 29 64 q29 28 69 28 q27 0 42 -16 q15 -16 15 -46 q0 -24 -12 -86 q-14 -68 -14 -101 q0 -40 18 -64.5 q18 -24.5 62 -29.5 q26 9 41 9 q20 0 20 -16 q0 -22 -26 -22 q-11 0 -43 8 ZM920 722 q30 0 44.5 -15 q14.5 -15 14.5 -39 q0 -22 -14.5 -45.5 q-14.5 -23.5 -43.5 -23.5 q-20 0 -29.5 11.5 q-9.5 11.5 -9.5 28.5 q0 14 9 31.5 q9 17.5 23 30.5 l-3 0 q-20 -1 -36 -14 q-17 -15 -28.5 -40.5 q-11.5 -25.5 -29.5 -75.5 q-21 -59 -40 -97.5 q-19 -38.5 -52 -68 q-33 -29.5 -83 -36.5 q37 -8 59 -21.5 q22 -13.5 34 -47 q12 -33.5 10 -95.5 l-4 -113 q-1 -26 4.5 -38.5 q5.5 -12.5 25.5 -12.5 q25 0 42.5 18.5 q17.5 18.5 31.5 59.5 l17 51 l20 0 l-26 -77 q-19 -55 -49 -81 q-30 -26 -73 -26 q-92 0 -84 116 l7 113 q2 24 2 37 q0 33 -8.5 59.5 q-8.5 26.5 -29.5 46.5 q-18 -6 -38 -6 q-20 0 -20 14 q0 20 25 20 q15 0 36 -7 q51 6 83.5 34.5 q32.5 28.5 50 65.5 q17.5 37 38.5 96 q18 52 31 79.5 q13 27.5 33 44.5 q29 23 60 23 ZM469 106 q-1 -5 -5.5 -22 q-4.5 -17 -4.5 -27 q0 -18 15 -26.5 q15 -8.5 53 -10.5 l-4 -20 q-46 3 -129 3 q-81 0 -125 -3 l5 20 q35 2 52.5 8 q17.5 6 28 23.5 q10.5 17.5 20.5 54.5 l131 496 q9 34 9 47 q0 19 -14.5 28 q-14.5 9 -52.5 11 l5 20 q40 -3 125 -3 q82 0 130 3 l-5 -20 q-37 -2 -54.5 -8 q-17.5 -6 -28 -23 q-10.5 -17 -20.5 -55 l-131 -496 Z" /><glyph glyph-name="uni0417" unicode="&#x417;" d="M167 3 q57 0 108.5 25.5 q51.5 25.5 83 70.5 q31.5 45 31.5 101 q0 62 -38 110.5 q-38 48.5 -104 55.5 q-30 -14 -46 -14 q-21 0 -21 13 q0 19 29 19 q19 0 32 -5 q54 10 102.5 41 q48.5 31 78.5 75.5 q30 44.5 30 95.5 q0 49 -28.5 72 q-28.5 23 -75.5 23 q-81 0 -134 -54.5 q-53 -54.5 -86 -153.5 l-22 0 q45 146 58 230 l21 0 q-3 -21 -3 -30 q0 -28 14 -28 q8 0 18 7 q51 34 88 49.5 q37 15.5 89 15.5 q72 0 115 -31.5 q43 -31.5 43 -89.5 q0 -60 -45.5 -107 q-45.5 -47 -111 -77 q-65.5 -30 -126.5 -42 q52 0 102.5 -19.5 q50.5 -19.5 83.5 -59 q33 -39.5 33 -95.5 q0 -66 -46 -115 q-46 -49 -119 -74.5 q-73 -25.5 -153 -25.5 q-95 0 -141 36 q-29 23 -29 54 q0 28 20.5 49 q20.5 21 48.5 21 q19 0 30 -10 q11 -10 11 -29 q0 -22 -15.5 -40.5 q-15.5 -18.5 -41.5 -25.5 q6 -15 41 -26.5 q35 -11.5 75 -11.5 Z" /><glyph glyph-name="uni0418" unicode="&#x418;" d="M718 705 q86 0 128 3 l-5 -20 q-37 -2 -54.5 -8 q-17.5 -6 -28.5 -23 q-11 -17 -21 -55 l-133 -496 q-9 -31 -9 -49 q0 -21 14.5 -28 q14.5 -7 52.5 -9 l-5 -20 q-42 3 -128 3 q-80 0 -127 -3 l5 20 q37 2 54.5 8 q17.5 6 28.5 23 q11 17 21 55 l125 465 l-472 -472 q-7 -31 -7 -42 q0 -21 14.5 -28 q14.5 -7 52.5 -9 l-5 -20 q-46 3 -127 3 q-85 0 -127 -3 l5 20 q36 2 53.5 8 q17.5 6 28.5 23 q11 17 21 55 l133 496 q9 32 9 49 q0 21 -14.5 28 q-14.5 7 -52.5 9 l5 20 q42 -3 128 -3 q81 0 127 3 l-5 -20 q-37 -2 -54.5 -8 q-17.5 -6 -28.5 -23 q-11 -17 -21 -55 l-125 -464 l472 472 q7 30 7 41 q0 21 -15 28 q-15 7 -52 9 l5 20 q47 -3 127 -3 Z" /><glyph glyph-name="uni041B" unicode="&#x41b;" d="M3 7 q33 1 66 26 q59 48 132.5 200.5 q73.5 152.5 134.5 368.5 q8 34 8 48 q0 22 -14.5 29 q-14.5 7 -52.5 9 l5 20 q32 -3 93 -3 q16 0 26 1 q30 2 63 2 q52 0 98 -2 q14 -1 37 -1 q86 0 129 3 l-5 -20 q-37 -2 -54.5 -8 q-17.5 -6 -28 -23 q-10.5 -17 -20.5 -55 l-132 -496 q-9 -38 -9 -49 q0 -21 14.5 -28 q14.5 -7 53.5 -9 l-4 -20 q-42 3 -128 3 q-80 0 -127 -3 l4 20 q36 2 54 8 q18 6 28.5 23 q10.5 17 20.5 55 l132 496 q9 32 9 49 q0 22 -15 29.5 q-15 7.5 -53 7.5 l-14 0 q-34 0 -51 -6.5 q-17 -6.5 -27 -24 q-10 -17.5 -20 -55.5 q-49 -185 -125 -354 q-76 -169 -148 -227 q-42 -35 -89 -35 q-31 0 -45 14.5 q-14 14.5 -14 38.5 q0 25 15 47.5 q15 22.5 44 22.5 q20 0 29 -11.5 q9 -11.5 9 -28.5 q0 -14 -9 -31.5 q-9 -17.5 -23 -30.5 l3 0 Z" /><glyph glyph-name="uni041F" unicode="&#x41f;" d="M487 708 q83 0 151 -2 q21 -1 54 -1 q86 0 129 3 l-5 -20 q-37 -2 -54.5 -8 q-17.5 -6 -28 -23 q-10.5 -17 -20.5 -55 l-132 -496 q-9 -38 -9 -49 q0 -21 14.5 -28 q14.5 -7 53.5 -9 l-4 -20 q-42 3 -128 3 q-80 0 -127 -3 l4 20 q36 2 54 8 q18 6 28.5 23 q10.5 17 20.5 55 l132 496 q9 32 9 49 q0 22 -15 29.5 q-15 7.5 -53 7.5 l-164 0 q-33 0 -50.5 -6.5 q-17.5 -6.5 -27.5 -24.5 q-10 -18 -20 -55 l-132 -496 q-9 -38 -9 -49 q0 -21 14.5 -28 q14.5 -7 53.5 -9 l-4 -20 q-46 3 -127 3 q-83 0 -127 -3 l5 20 q35 2 52.5 8 q17.5 6 28 23.5 q10.5 17.5 20.5 54.5 l132 496 q8 34 8 48 q0 22 -14.5 29 q-14.5 7 -52.5 9 l5 20 q40 -3 127 -3 q34 0 56 1 q70 2 152 2 Z" /><glyph glyph-name="uni0423" unicode="&#x423;" d="M686 705 q38 0 65 3 l-5 -20 q-18 -1 -41.5 -16.5 q-23.5 -15.5 -44.5 -47.5 l-304 -470 q-39 -63 -63 -94.5 q-24 -31.5 -57.5 -52.5 q-33.5 -21 -80.5 -21 q-46 0 -74 14.5 q-28 14.5 -28 42.5 q0 22 16 39.5 q16 17.5 39 17.5 q18 0 30 -12 q12 -12 12 -30 q0 -16 -11.5 -29.5 q-11.5 -13.5 -28.5 -21.5 q15 -5 39 -5 q48 0 81.5 25 q33.5 25 69.5 79 l-123 518 q-8 32 -30 47.5 q-22 15.5 -42 16.5 l5 20 q39 -3 108 -3 q76 0 120 3 l-5 -20 q-36 -2 -50.5 -10.5 q-14.5 -8.5 -14.5 -30.5 q0 -18 7 -43 l96 -393 l254 393 q26 39 26 56 q0 14 -14.5 20.5 q-14.5 6.5 -47.5 7.5 l5 20 q28 -3 92 -3 Z" /><glyph glyph-name="uni0424" unicode="&#x424;" d="M919 361 q0 -74 -55 -142 q-55 -68 -160.5 -112.5 q-105.5 -44.5 -249.5 -49.5 q-31 -111 -88.5 -178 q-57.5 -67 -149.5 -67 q-42 0 -70 14 q-28 14 -28 43 q0 22 16 39.5 q16 17.5 39 17.5 q18 0 30 -12 q12 -12 12 -30 q0 -16 -11.5 -29.5 q-11.5 -13.5 -28.5 -21.5 q15 -5 34 -5 q43 0 71.5 30.5 q28.5 30.5 46 77.5 q17.5 47 36.5 121 q-157 8 -242.5 63 q-85.5 55 -85.5 147 q0 77 60 147.5 q60 70.5 174 114 q114 43.5 268 43.5 l14 0 q32 35 76.5 66 q44.5 31 110.5 68 q-56 -28 -112.5 -44 q-56.5 -16 -103.5 -16 q-47 0 -80 14 q-33 14 -70 39 q-29 18 -44.5 25.5 q-15.5 7.5 -34.5 7.5 q-20 0 -31.5 -10 q-11.5 -10 -11.5 -27 q0 -24 23 -42 l-14 -16 q-38 25 -38 66 q0 37 28 58 q28 21 74 21 q36 0 66.5 -12 q30.5 -12 76.5 -37 q41 -24 71.5 -36 q30.5 -12 64.5 -12 q30 0 65 9.5 q35 9.5 79 25.5 q38 58 63 58 q8 0 13 -5 q6 -6 6 -12 q0 -24 -73 -52 q-90 -59 -139 -140 q145 -11 224 -65 q79 -54 79 -143 ZM142 258 q0 -166 226 -182 q5 23 17 69 l52 194 q20 73 43 124.5 q23 51.5 55 90.5 l-2 0 q-128 0 -215.5 -36.5 q-87.5 -36.5 -131.5 -103 q-44 -66.5 -44 -156.5 ZM459 75 q172 8 262.5 87 q90.5 79 90.5 208 q0 81 -54 125.5 q-54 44.5 -153 54.5 q-38 -66 -64 -166 l-82 -309 Z" /><glyph glyph-name="uni0427" unicode="&#x427;" d="M604 705 q80 0 127 3 l-5 -20 q-37 -2 -54.5 -8 q-17.5 -6 -28.5 -23 q-11 -17 -21 -55 l-133 -496 q-9 -31 -9 -49 q0 -21 14.5 -28 q14.5 -7 52.5 -9 l-5 -20 q-42 3 -128 3 q-94 0 -147 -3 l5 20 q45 2 67 8 q22 6 34.5 23 q12.5 17 22.5 55 l54 203 q-33 -19 -84 -33 q-51 -14 -99 -14 q-86 0 -126 49 q-24 30 -24 76 q0 32 11 74 l41 154 q5 16 5 33 q0 22 -14.5 30.5 q-14.5 8.5 -46.5 8.5 l5 21 q92 -4 122 -4 q29 0 113 4 l-5 -21 q-38 0 -56.5 -15.5 q-18.5 -15.5 -29.5 -56.5 l-44 -157 q-13 -45 -13 -75 q0 -43 26 -66 q26 -23 85 -23 q38 0 76 9 q38 9 63 23 l74 276 q9 32 9 49 q0 21 -14.5 28 q-14.5 7 -52.5 9 l5 20 q42 -3 128 -3 Z" /><glyph glyph-name="uni0426" unicode="&#x426;" d="M508 3 q-34 0 -56 -1 q-70 -2 -152 -2 q-83 0 -151 2 q-21 1 -54 1 q-85 0 -129 -3 l5 20 q37 2 54.5 8 q17.5 6 28 23 q10.5 17 20.5 55 l132 496 q9 38 9 49 q0 21 -14.5 28 q-14.5 7 -53.5 9 l4 20 q42 -3 128 -3 q81 0 127 3 l-4 -20 q-36 -2 -54 -8 q-18 -6 -28.5 -23 q-10.5 -17 -20.5 -55 l-132 -496 q-9 -31 -9 -49 q0 -22 15.5 -29.5 q15.5 -7.5 52.5 -7.5 l164 0 q33 0 50.5 6.5 q17.5 6.5 27.5 24.5 q10 18 20 55 l132 496 q9 38 9 49 q0 21 -14.5 28 q-14.5 7 -53.5 9 l4 20 q47 -3 127 -3 q84 0 127 3 l-5 -20 q-35 -2 -52.5 -8 q-17.5 -6 -28 -23.5 q-10.5 -17.5 -20.5 -54.5 l-132 -496 q-8 -34 -8 -49 q0 -22 15 -29.5 q15 -7.5 52 -7.5 l31 0 q-22 -56 -44 -148 q-5 -22 -13 -62 l-22 0 q7 41 7 75 q0 118 -91 118 Z" /><glyph glyph-name="uni0428" unicode="&#x428;" d="M343 2 q-58 -2 -99 -2 l-74 1 q-52 2 -78 2 q-85 0 -127 -3 l5 20 q36 2 53.5 8 q17.5 6 28.5 23 q11 17 21 55 l133 496 q9 32 9 49 q0 21 -14.5 28 q-14.5 7 -52.5 9 l5 20 q42 -3 128 -3 q73 0 117 3 l-5 -20 q-32 -2 -48 -8 q-16 -6 -26 -23 q-10 -17 -20 -55 l-133 -496 q-9 -31 -9 -50 q0 -22 14.5 -29 q14.5 -7 52.5 -7 l54 0 q35 0 53.5 6.5 q18.5 6.5 29.5 24 q11 17.5 21 55.5 l133 496 q10 38 10 52 q0 19 -12.5 25.5 q-12.5 6.5 -45.5 8.5 l5 20 q44 -3 117 -3 q79 0 118 3 l-5 -20 q-33 -2 -48.5 -8 q-15.5 -6 -25.5 -23 q-10 -17 -20 -55 l-133 -496 q-9 -31 -9 -50 q0 -22 14.5 -29 q14.5 -7 52.5 -7 l54 0 q35 0 53.5 6.5 q18.5 6.5 29.5 24 q11 17.5 21 55.5 l133 496 q10 38 10 52 q0 19 -12.5 25.5 q-12.5 6.5 -45.5 8.5 l5 20 q43 -3 117 -3 q86 0 128 3 l-5 -20 q-37 -2 -54.5 -8 q-17.5 -6 -28.5 -23 q-11 -17 -21 -55 l-133 -496 q-9 -31 -9 -49 q0 -21 14.5 -28 q14.5 -7 52.5 -9 l-5 -20 q-42 3 -128 3 q-28 0 -80 -2 l-73 -1 q-39 0 -97 2 l-57 1 l-59 -1 Z" /><glyph glyph-name="uni0429" unicode="&#x429;" d="M708 2 q-45 0 -72 -1 l-80 -1 q-40 0 -96 2 l-57 1 l-59 -1 q-60 -2 -100 -2 l-74 1 q-52 2 -77 2 q-86 0 -128 -3 l5 20 q36 2 54 8 q18 6 29 23 q11 17 21 55 l132 496 q9 32 9 49 q0 21 -14.5 28 q-14.5 7 -52.5 9 l6 20 q40 -3 127 -3 q73 0 118 3 l-6 -20 q-32 -2 -48 -8 q-16 -6 -26 -23 q-10 -17 -20 -55 l-132 -496 q-9 -33 -9 -51 q0 -21 14.5 -28 q14.5 -7 51.5 -7 l54 0 q36 0 54 6.5 q18 6.5 29.5 24 q11.5 17.5 21.5 55.5 l132 496 q10 38 10 52 q0 19 -12.5 25.5 q-12.5 6.5 -45.5 8.5 l6 20 q42 -3 116 -3 q79 0 119 3 l-6 -20 q-32 -2 -48 -8 q-16 -6 -26 -23 q-10 -17 -20 -55 l-132 -496 q-9 -33 -9 -51 q0 -21 14.5 -28 q14.5 -7 51.5 -7 l54 0 q36 0 54 6.5 q18 6.5 29.5 24 q11.5 17.5 21.5 55.5 l132 496 q10 38 10 52 q0 19 -12.5 25.5 q-12.5 6.5 -45.5 8.5 l6 20 q42 -3 116 -3 q85 0 129 3 l-6 -20 q-36 -2 -54 -8 q-18 -6 -29 -23 q-11 -17 -21 -55 l-132 -496 q-9 -31 -9 -50 q0 -20 14.5 -27 q14.5 -7 51.5 -9 l11 0 q-25 -71 -41 -128 q-14 -57 -19 -82 l-23 0 q12 61 12 101 q0 49 -18 70 q-18 21 -56 21 Z" /><glyph glyph-name="uni040F" unicode="&#x40f;" d="M692 705 q84 0 127 3 l-5 -20 q-35 -2 -52.5 -8 q-17.5 -6 -28 -23.5 q-10.5 -17.5 -20.5 -54.5 l-132 -496 q-8 -34 -8 -48 q0 -22 14.5 -29 q14.5 -7 52.5 -9 l-5 -20 q-40 3 -127 3 q-39 0 -65 -1 l-36 -1 q-35 -3 -58 -20 q-23 -17 -40 -49 q-17 -32 -40 -92 l-23 0 q13 63 13 94 q0 32 -13 47.5 q-13 15.5 -45 19.5 l-42 1 q-26 1 -64 1 q-85 0 -129 -3 l5 20 q37 2 54.5 8 q17.5 6 28 23 q10.5 17 20.5 55 l132 496 q9 38 9 49 q0 21 -14.5 28 q-14.5 7 -53.5 9 l4 20 q42 -3 128 -3 q81 0 127 3 l-4 -20 q-36 -2 -54 -8 q-18 -6 -28.5 -23 q-10.5 -17 -20.5 -55 l-132 -496 q-9 -31 -9 -49 q0 -22 15.5 -29.5 q15.5 -7.5 52.5 -7.5 l164 0 q33 0 50.5 6.5 q17.5 6.5 27.5 24.5 q10 18 20 55 l132 496 q9 38 9 49 q0 21 -14.5 28 q-14.5 7 -53.5 9 l4 20 q47 -3 127 -3 Z" /><glyph glyph-name="uni042C" unicode="&#x42c;" d="M274 376 q98 0 160 -15 q62 -15 93.5 -51 q31.5 -36 31.5 -99 q0 -68 -43 -115.5 q-43 -47.5 -111.5 -71.5 q-68.5 -24 -143.5 -24 l-73 1 q-60 2 -99 2 q-80 0 -122 -3 l4 20 q36 2 54 8 q18 6 28.5 23 q10.5 17 20.5 55 l132 496 q8 34 8 48 q0 22 -14.5 29 q-14.5 7 -52.5 9 l5 20 q40 -3 127 -3 q80 0 128 3 l-5 -20 q-37 -2 -54.5 -8 q-17.5 -6 -28 -23 q-10.5 -17 -20.5 -55 l-60 -226 l35 0 ZM218 23 q127 0 184 51.5 q57 51.5 57 151.5 q0 46 -17.5 75 q-17.5 29 -61 43.5 q-43.5 14.5 -119.5 14.5 l-27 0 l-67 -253 q-9 -36 -9 -49 q0 -18 13.5 -26 q13.5 -8 46.5 -8 Z" /><glyph glyph-name="uni042A" unicode="&#x42a;" d="M403 376 q98 0 160 -15 q62 -15 93.5 -51 q31.5 -36 31.5 -99 q0 -68 -43 -115.5 q-43 -47.5 -111.5 -71.5 q-68.5 -24 -143.5 -24 l-73 1 q-60 2 -99 2 q-80 0 -122 -3 l4 20 q36 2 54 8 q18 6 28.5 23 q10.5 17 20.5 55 l132 496 q9 33 9 52 q0 21 -13 28.5 q-13 7.5 -46 7.5 q-79 0 -115 -27 q8 -11 13 -27 q5 -16 5 -31 q0 -23 -13 -40.5 q-13 -17.5 -37 -17.5 q-21 0 -32.5 13.5 q-11.5 13.5 -11.5 36.5 q0 49 52 79 q55 32 135 32 q25 0 41 -1 q48 -2 92 -2 q74 0 122 3 l-5 -20 q-37 -2 -54.5 -8 q-17.5 -6 -28 -23 q-10.5 -17 -20.5 -55 l-60 -226 l35 0 ZM347 23 q127 0 184 51.5 q57 51.5 57 151.5 q0 46 -17.5 75 q-17.5 29 -61 43.5 q-43.5 14.5 -119.5 14.5 l-27 0 l-67 -253 q-9 -36 -9 -49 q0 -18 13.5 -26 q13.5 -8 46.5 -8 Z" /><glyph glyph-name="uni0409" unicode="&#x409;" d="M595 376 q98 0 160 -15 q62 -15 93.5 -51 q31.5 -36 31.5 -99 q0 -68 -43 -115.5 q-43 -47.5 -111.5 -71.5 q-68.5 -24 -143.5 -24 l-73 1 q-60 2 -99 2 q-80 0 -122 -3 l4 20 q36 2 54 8 q18 6 28.5 23 q10.5 17 20.5 55 l132 496 q9 32 9 49 q0 22 -15 29.5 q-15 7.5 -53 7.5 l-14 0 q-34 0 -51 -6.5 q-17 -6.5 -27 -24 q-10 -17.5 -20 -55.5 q-49 -185 -125 -354 q-76 -169 -148 -227 q-42 -35 -89 -35 q-31 0 -45 14.5 q-14 14.5 -14 38.5 q0 25 15 47.5 q15 22.5 44 22.5 q20 0 29 -11.5 q9 -11.5 9 -28.5 q0 -14 -9 -31.5 q-9 -17.5 -23 -30.5 l2 0 q36 2 67 26 q59 48 132.5 200.5 q73.5 152.5 134.5 368.5 q8 34 8 48 q0 22 -14.5 29 q-14.5 7 -52.5 9 l5 20 q32 -3 93 -3 q16 0 26 1 q30 2 63 2 q52 0 98 -2 q14 -1 37 -1 q86 0 129 3 l-5 -20 q-37 -2 -54.5 -8 q-17.5 -6 -28 -23 q-10.5 -17 -20.5 -55 l-60 -226 l35 0 ZM539 23 q127 0 184 51.5 q57 51.5 57 151.5 q0 46 -17.5 75 q-17.5 29 -61 43.5 q-43.5 14.5 -119.5 14.5 l-27 0 l-67 -253 q-9 -36 -9 -49 q0 -18 13.5 -26 q13.5 -8 46.5 -8 Z" /><glyph glyph-name="uni040A" unicode="&#x40a;" d="M752 366 q99 0 149 -37.5 q50 -37.5 50 -106.5 q0 -71 -52.5 -121.5 q-52.5 -50.5 -132.5 -75.5 q-80 -25 -162 -25 l-44 1 q-34 2 -51 2 q-83 0 -127 -3 l5 20 q35 2 52.5 8 q17.5 6 28 23.5 q10.5 17.5 20.5 54.5 l64 240 l-321 0 l-64 -240 q-9 -38 -9 -49 q0 -21 14.5 -28 q14.5 -7 53.5 -9 l-4 -20 q-46 3 -127 3 q-83 0 -127 -3 l5 20 q35 2 52.5 8 q17.5 6 28 23.5 q10.5 17.5 20.5 54.5 l132 496 q8 34 8 48 q0 22 -14.5 29 q-14.5 7 -52.5 9 l5 20 q40 -3 127 -3 q80 0 128 3 l-5 -20 q-37 -2 -54.5 -8 q-17.5 -6 -28 -23 q-10.5 -17 -20.5 -55 l-63 -236 l321 0 l63 236 q8 34 8 48 q0 22 -14.5 29 q-14.5 7 -52.5 9 l5 20 q40 -3 127 -3 q80 0 128 3 l-5 -20 q-37 -2 -54.5 -8 q-17.5 -6 -28 -23 q-10.5 -17 -20.5 -55 l-63 -236 l102 0 ZM617 21 q109 0 171 58 q62 58 62 159 q0 58 -29.5 83 q-29.5 25 -97.5 25 l-78 0 l-64 -240 q-9 -31 -9 -50 q0 -19 10.5 -27 q10.5 -8 34.5 -8 Z" /><glyph glyph-name="uni0404" unicode="&#x404;" d="M712 708 q-33 -86 -64 -230 l-22 0 q6 39 6 69 q0 48 -16 79 q-18 37 -53.5 57.5 q-35.5 20.5 -77.5 20.5 q-65 0 -128 -49.5 q-63 -49.5 -111.5 -131 q-48.5 -81.5 -73.5 -173.5 q24 37 59.5 58 q35.5 21 71.5 21 q32 0 55 -10.5 q23 -10.5 53 -31.5 q30 -20 50.5 -30 q20.5 -10 48.5 -10 q23 0 47.5 13.5 q24.5 13.5 46.5 40.5 l13 -9 q-82 -103 -164 -103 q-33 0 -57 11 q-24 11 -52 31 q-30 20 -50.5 30 q-20.5 10 -49.5 10 q-45 0 -79 -52 q-14 -62 -14 -119 q0 -96 38 -146 q38 -50 105 -50 q44 0 93 20.5 q49 20.5 85 57.5 q26 26 45 60.5 q19 34.5 45 97.5 l22 0 q-47 -173 -59 -240 l-22 0 q3 21 3 34 q0 26 -12 26 q-7 0 -21 -9 q-52 -34 -91 -49.5 q-39 -15.5 -98 -15.5 q-111 0 -172 60 q-61 60 -61 175 q0 115 57.5 232 q57.5 117 158 193 q100.5 76 220.5 76 q58 0 88.5 -16.5 q30.5 -16.5 60.5 -48.5 q7 -9 15 -9 q9 0 18.5 14.5 q9.5 14.5 21.5 45.5 l21 0 Z" /><glyph glyph-name="uni042D" unicode="&#x42d;" d="M416 722 q116 0 175 -70 q59 -70 59 -185 q0 -113 -54.5 -225 q-54.5 -112 -151.5 -184 q-97 -72 -220 -72 q-59 0 -90.5 16 q-31.5 16 -63.5 49 q-7 8 -15 8 q-21 0 -41 -59 l-22 0 q32 97 69 240 l22 0 q-8 -54 -8 -81 q0 -45 14 -77 q16 -36 53 -57 q37 -21 84 -21 q75 0 138 54 q63 54 106.5 138.5 q43.5 84.5 64.5 177.5 q-23 -40 -60 -62.5 q-37 -22.5 -74 -22.5 q-32 0 -55 10.5 q-23 10.5 -53 31.5 q-30 20 -50.5 30 q-20.5 10 -48.5 10 q-23 0 -47.5 -13.5 q-24.5 -13.5 -46.5 -40.5 l-13 9 q82 103 164 103 q33 0 57 -11 q24 -11 52 -31 q30 -20 50.5 -30 q20.5 -10 49.5 -10 q46 0 81 55 q10 51 10 102 q0 89 -36 144.5 q-36 55.5 -106 55.5 q-42 0 -89.5 -20.5 q-47.5 -20.5 -84.5 -57.5 q-29 -28 -47 -60 q-18 -32 -41 -88 l-22 0 q45 146 58 230 l21 0 q-3 -21 -3 -30 q0 -28 14 -28 q8 0 18 7 q48 33 87 49 q39 16 96 16 Z" /><glyph glyph-name="uni040B" unicode="&#x40b;" d="M740 817 q22 0 33.5 -13.5 q11.5 -13.5 11.5 -34.5 q0 -22 -13 -40.5 q-13 -18.5 -34 -31.5 q-44 -33 -128 -33 q-55 0 -137 11 l-82 -307 q34 19 85 33.5 q51 14.5 98 14.5 q86 0 126 -49 q24 -30 24 -76 q0 -32 -11 -74 l-32 -124 q-5 -16 -5 -33 q0 -22 14.5 -30.5 q14.5 -8.5 46.5 -8.5 l-5 -21 q-92 4 -122 4 q-29 0 -113 -4 l5 21 q38 0 56.5 15.5 q18.5 15.5 29.5 56.5 l35 127 q13 46 13 75 q0 43 -26 66 q-26 23 -85 23 q-38 0 -76 -9 q-38 -9 -62 -24 l-63 -235 q-9 -31 -9 -51 q0 -25 18.5 -34.5 q18.5 -9.5 65.5 -10.5 l-4 -20 q-52 3 -149 3 q-98 0 -146 -3 l4 20 q43 2 66.5 10.5 q23.5 8.5 37 28 q13.5 19.5 23.5 57.5 l152 571 q-56 7 -94 7 q-86 0 -112 -17 q8 -11 13 -27 q5 -16 5 -31 q0 -23 -13 -40.5 q-13 -17.5 -37 -17.5 q-21 0 -32.5 13.5 q-11.5 13.5 -11.5 36.5 q0 52 53 78 q47 23 134 23 q40 0 76 -3.5 q36 -3.5 91 -10.5 q52 -7 87.5 -10.5 q35.5 -3.5 74.5 -3.5 q35 0 58 5 q23 5 41 17 q-25 25 -25 56 q0 22 12.5 38.5 q12.5 16.5 36.5 16.5 Z" /><glyph glyph-name="uni042E" unicode="&#x42e;" d="M790 722 q112 0 174 -63 q62 -63 62 -178 q0 -113 -53.5 -228.5 q-53.5 -115.5 -149.5 -191 q-96 -75.5 -215 -75.5 q-111 0 -173 63 q-62 63 -62 177 q0 60 15 120 l-157 0 l-64 -240 q-9 -38 -9 -49 q0 -21 14.5 -28 q14.5 -7 53.5 -9 l-4 -20 q-46 3 -127 3 q-83 0 -127 -3 l5 20 q35 2 52.5 8 q17.5 6 28 23.5 q10.5 17.5 20.5 54.5 l132 496 q8 34 8 48 q0 22 -14.5 29 q-14.5 7 -52.5 9 l5 20 q40 -3 127 -3 q80 0 128 3 l-5 -20 q-37 -2 -54.5 -8 q-17.5 -6 -28 -23 q-10.5 -17 -20.5 -55 l-63 -236 l157 0 q26 94 82.5 175.5 q56.5 81.5 137.5 131 q81 49.5 177 49.5 ZM617 4 q75 0 145.5 72 q70.5 72 113.5 186.5 q43 114.5 43 232.5 q0 97 -38 153 q-38 56 -100 56 q-75 0 -145.5 -72 q-70.5 -72 -113.5 -186.5 q-43 -114.5 -43 -232.5 q0 -97 38 -153 q38 -56 100 -56 Z" /><glyph glyph-name="uni042F" unicode="&#x42f;" d="M581 705 q83 0 127 3 l-5 -20 q-35 -2 -52.5 -8 q-17.5 -6 -28 -23.5 q-10.5 -17.5 -20.5 -54.5 l-132 -496 q-8 -34 -8 -48 q0 -22 14.5 -29 q14.5 -7 52.5 -9 l-5 -20 q-41 3 -127 3 q-80 0 -128 -3 l5 20 q37 2 54.5 8 q17.5 6 28 23 q10.5 17 20.5 55 l63 235 q-46 -15 -81 -16 q-46 -9 -78 -28.5 q-32 -19.5 -54 -71.5 l-53 -123 q-26 -60 -54 -88 q-28 -28 -76 -28 q-79 0 -105 92 l15 7 q21 -44 60 -44 q23 0 36.5 12.5 q13.5 12.5 26.5 38.5 l58 123 q28 60 67.5 84 q39.5 24 95.5 31 q-77 14 -118 56 q-41 42 -41 100 q0 72 48 122 q48 50 127.5 75 q79.5 25 171.5 25 l44 -1 q34 -2 51 -2 ZM509 602 q9 32 9 50 q0 19 -10.5 27 q-10.5 8 -34.5 8 q-111 0 -172 -54.5 q-61 -54.5 -61 -162.5 q0 -65 30 -95.5 q30 -30.5 97 -30.5 q35 0 78 16 l64 242 Z" /><glyph glyph-name="uni0402" unicode="&#x402;" d="M605 664 q-51 0 -132 11 l-86 -324 q37 28 90.5 46.5 q53.5 18.5 107.5 18.5 q77 0 121 -39 q44 -39 44 -115 q0 -69 -36 -133 q-36 -64 -98.5 -103.5 q-62.5 -39.5 -138.5 -39.5 q-48 0 -80 17.5 q-32 17.5 -32 52.5 q0 29 19.5 49.5 q19.5 20.5 49.5 20.5 q19 0 30 -9.5 q11 -9.5 11 -27.5 q0 -23 -16.5 -43 q-16.5 -20 -40.5 -28 q11 -17 50 -17 q58 0 101 39.5 q43 39.5 65 99.5 q22 60 22 119 q0 69 -30.5 97 q-30.5 28 -83.5 28 q-43 0 -88 -15 q-45 -15 -73 -38 l-91 -342 q-46 14 -125 14 q-31 0 -64 -3 l5 20 q45 2 67 9 q22 7 34.5 26 q12.5 19 23.5 61 l152 571 q-58 7 -99 7 q-81 0 -107 -17 q8 -11 13 -27 q5 -16 5 -31 q0 -23 -13 -40.5 q-13 -17.5 -37 -17.5 q-21 0 -32.5 13.5 q-11.5 13.5 -11.5 36.5 q0 52 53 78 q47 23 134 23 q40 0 77 -3.5 q37 -3.5 91 -10.5 q53 -7 87.5 -10.5 q34.5 -3.5 71.5 -3.5 q37 0 60 5 q23 5 41 17 q-25 25 -25 56 q0 22 12.5 38.5 q12.5 16.5 36.5 16.5 q22 0 33.5 -13.5 q11.5 -13.5 11.5 -34.5 q0 -22 -13 -40.5 q-13 -18.5 -34 -31.5 q-23 -17 -54 -25 q-31 -8 -79 -8 Z" /><glyph glyph-name="uni0462" unicode="&#x462;" d="M274 376 q98 0 160 -15 q62 -15 93.5 -51 q31.5 -36 31.5 -99 q0 -68 -43 -115.5 q-43 -47.5 -111.5 -71.5 q-68.5 -24 -143.5 -24 l-73 1 q-60 2 -99 2 q-80 0 -122 -3 l4 20 q36 2 54 8 q18 6 28.5 23 q10.5 17 20.5 55 l116 435 l-119 0 l4 20 l120 0 l11 41 q8 34 8 48 q0 22 -14.5 29 q-14.5 7 -52.5 9 l5 20 q40 -3 127 -3 q80 0 128 3 l-5 -20 q-37 -2 -54.5 -8 q-17.5 -6 -28 -23 q-10.5 -17 -20.5 -55 l-11 -41 l142 0 l-4 -20 l-143 0 l-44 -165 l35 0 ZM218 23 q127 0 184 51.5 q57 51.5 57 151.5 q0 46 -17.5 75 q-17.5 29 -61 43.5 q-43.5 14.5 -119.5 14.5 l-27 0 l-67 -253 q-9 -36 -9 -49 q0 -18 13.5 -26 q13.5 -8 46.5 -8 Z" /><glyph glyph-name="uni046A" unicode="&#x46a;" d="M894 688 q-34 -4 -62.5 -24.5 q-28.5 -20.5 -69.5 -64.5 l-207 -224 q79 -1 119 -14 q40 -13 57 -49 q17 -36 14 -107 l-4 -113 q-1 -26 4.5 -38.5 q5.5 -12.5 25.5 -12.5 q25 0 42.5 18.5 q17.5 18.5 31.5 59.5 l17 51 l20 0 l-26 -77 q-19 -55 -49 -81 q-30 -26 -73 -26 q-92 0 -84 116 l7 113 q1 11 1 30 q0 57 -25.5 82.5 q-25.5 25.5 -92.5 31.5 l-5 -6 l-66 -247 q-2 -7 -6 -23.5 q-4 -16.5 -4 -25.5 q0 -18 15 -26.5 q15 -8.5 53 -10.5 l-4 -20 q-46 3 -129 3 q-81 0 -125 -3 l5 20 q35 2 52.5 8 q17.5 6 28 23 q10.5 17 20.5 55 l67 251 l-1 2 q-61 -3 -95.5 -17.5 q-34.5 -14.5 -57.5 -42.5 q-23 -28 -50 -84 l-53 -113 q-30 -63 -54.5 -89.5 q-24.5 -26.5 -68.5 -26.5 q-79 0 -105 92 l15 7 q21 -44 60 -44 q20 0 31.5 12 q11.5 12 24.5 39 l58 113 q36 71 70.5 106.5 q34.5 35.5 83.5 49.5 q49 14 133 14 l-116 256 q-16 34 -30.5 45 q-14.5 11 -43.5 11 l5 21 q194 -3 333 -3 q135 0 318 3 l-5 -20 ZM687 549 q55 61 55 91 q0 25 -37 36 q-37 11 -117 11 q-86 0 -128.5 -10.5 q-42.5 -10.5 -42.5 -39.5 q0 -9 6 -23 l106 -239 l158 174 Z" /><glyph glyph-name="uni0492" unicode="&#x492;" d="M443 705 q119 0 169 3 q-25 -71 -41 -128 q-10 -37 -19 -82 l-23 0 q11 60 11 94 q0 50 -18.5 71.5 q-18.5 21.5 -56.5 21.5 l-63 0 q-36 0 -53.5 -5.5 q-17.5 -5.5 -28.5 -22.5 q-11 -17 -21 -55 l-74 -277 l126 0 l-4 -20 l-128 0 l-53 -199 q-8 -30 -8 -44 q0 -24 18.5 -32 q18.5 -8 67.5 -10 l-5 -20 q-52 3 -147 3 q-85 0 -127 -3 l5 20 q36 2 53.5 8 q17.5 6 28.5 23 q11 17 21 55 l53 199 l-114 0 l4 20 l116 0 l74 277 q9 32 9 49 q0 21 -14.5 28 q-14.5 7 -52.5 9 l5 20 l40 -1 q60 -2 93 -2 l61 0 l96 0 Z" /><glyph glyph-name="uni0496" unicode="&#x496;" d="M350 358 q-31 -18 -56.5 -49 q-25.5 -31 -55.5 -94 l-53 -113 q-29 -63 -54 -89.5 q-25 -26.5 -68 -26.5 q-79 0 -106 92 l15 7 q21 -44 60 -44 q20 0 31.5 12 q11.5 12 24.5 39 l58 113 q32 62 60 95 q28 33 57 47 q29 14 73 22 q-43 6 -60.5 31.5 q-17.5 25.5 -17.5 67.5 q0 21 4 49 q4 28 9 54 q11 55 11 79 q0 51 -38 51 l-3 0 q8 -14 8 -31 q0 -27 -21 -49 q-21 -22 -48 -22 q-31 0 -31 32 q0 35 29 63 q29 28 68 28 q28 0 43 -16 q15 -16 15 -48 q0 -20 -12 -82 q-14 -70 -14 -103 q0 -40 18 -64.5 q18 -24.5 62 -29.5 q26 9 40 9 q21 0 21 -16 q0 -10 -7 -16 q-7 -6 -20 -6 q-10 0 -42 8 ZM921 722 q29 0 43.5 -15 q14.5 -15 14.5 -37 q0 -23 -14.5 -47 q-14.5 -24 -43.5 -24 q-20 0 -29.5 12 q-9.5 12 -9.5 26 q0 13 12.5 38.5 q12.5 25.5 19.5 25.5 l-3 0 q-20 -1 -36 -14 q-17 -15 -28.5 -40.5 q-11.5 -25.5 -29.5 -75.5 q-21 -59 -40 -97.5 q-19 -38.5 -52 -68 q-33 -29.5 -83 -36.5 q37 -8 59 -21.5 q22 -13.5 34 -47 q12 -33.5 10 -95.5 l-5 -136 q-1 -30 15.5 -39.5 q16.5 -9.5 56.5 -9.5 l31 0 q-20 -54 -44 -148 q-6 -23 -13 -62 l-22 0 q7 56 7 96 q0 44 -12.5 64.5 q-12.5 20.5 -42.5 31.5 q-27 9 -40.5 17.5 q-13.5 8.5 -20.5 27.5 q-7 19 -5 55 l7 113 q1 11 1 30 q0 47 -9 70.5 q-9 23.5 -29 42.5 q-18 -6 -36 -6 q-21 0 -21 14 q0 20 25 20 q15 0 36 -7 q51 6 83.5 34.5 q32.5 28.5 50 65.5 q17.5 37 38.5 96 q18 52 31 79.5 q13 27.5 33 44.5 q29 23 61 23 ZM469 106 q-1 -5 -5.5 -22 q-4.5 -17 -4.5 -27 q0 -18 15 -26.5 q15 -8.5 53 -10.5 l-4 -20 q-46 3 -129 3 q-81 0 -125 -3 l5 20 q35 2 52.5 8 q17.5 6 28 23.5 q10.5 17.5 20.5 54.5 l131 496 q9 34 9 46 q0 19 -15 28.5 q-15 9.5 -52 11.5 l5 20 q40 -3 125 -3 q82 0 130 3 l-5 -20 q-37 -2 -54.5 -8 q-17.5 -6 -28 -23 q-10.5 -17 -20.5 -55 l-131 -496 Z" /><glyph glyph-name="uni049A" unicode="&#x49a;" d="M648 722 q30 0 44.5 -15 q14.5 -15 14.5 -39 q0 -22 -14.5 -45.5 q-14.5 -23.5 -43.5 -23.5 q-20 0 -29.5 11.5 q-9.5 11.5 -9.5 28.5 q0 14 9 31.5 q9 17.5 23 30.5 l-3 0 q-20 -1 -36 -14 q-17 -15 -28.5 -40.5 q-11.5 -25.5 -29.5 -75.5 q-21 -59 -40 -97.5 q-19 -38.5 -52 -68 q-33 -29.5 -83 -36.5 q37 -8 59 -21.5 q22 -13.5 34 -47 q12 -33.5 10 -95.5 l-5 -136 q-1 -30 15.5 -39.5 q16.5 -9.5 56.5 -9.5 l31 0 q-22 -56 -44 -148 q-6 -22 -13 -62 l-22 0 q7 56 7 96 q0 44 -12.5 64.5 q-12.5 20.5 -42.5 31.5 q-27 9 -40.5 17.5 q-13.5 8.5 -20.5 27.5 q-7 19 -5 55 l7 113 q1 13 1 36 q0 46 -9 69 q-9 23 -28 38 q-37 -9 -57 -9 q-31 0 -31 20 q0 20 30 20 q22 0 61 -10 q51 6 83.5 34.5 q32.5 28.5 50 65.5 q17.5 37 38.5 96 q18 52 31 79.5 q13 27.5 33 44.5 q29 23 60 23 ZM166 106 q-9 -38 -9 -49 q0 -21 14.5 -28 q14.5 -7 53.5 -9 l-4 -20 q-46 3 -127 3 q-84 0 -127 -3 l5 20 q35 2 52.5 8 q17.5 6 28 23.5 q10.5 17.5 20.5 54.5 l132 496 q8 34 8 48 q0 22 -14.5 29 q-14.5 7 -52.5 9 l5 20 q41 -3 127 -3 q80 0 128 3 l-5 -20 q-37 -2 -54.5 -8 q-17.5 -6 -28 -23 q-10.5 -17 -20.5 -55 l-132 -496 Z" /><glyph glyph-name="uni04A2" unicode="&#x4a2;" d="M691 705 q86 0 129 3 l-5 -20 q-37 -2 -54.5 -8 q-17.5 -6 -28 -23 q-10.5 -17 -20.5 -55 l-132 -496 q-9 -38 -9 -49 q2 -15 5 -20 q6 -9 20.5 -12 q14.5 -3 42.5 -5 l1 0 l31 0 q-15 -39 -31.5 -99.5 q-16.5 -60.5 -25.5 -110.5 l-22 0 q7 41 7 75 q0 118 -91 118 l-1 0 q-80 0 -127 -3 l4 20 q36 2 54 8 q18 6 28.5 23 q10.5 17 20.5 55 l64 240 l-321 0 l-64 -240 q-9 -38 -9 -49 q0 -21 14.5 -28 q14.5 -7 53.5 -9 l-4 -20 q-46 3 -127 3 q-84 0 -127 -3 l5 20 q35 2 52.5 8 q17.5 6 28 23.5 q10.5 17.5 20.5 54.5 l132 496 q8 34 8 48 q0 22 -14.5 29 q-14.5 7 -52.5 9 l5 20 q41 -3 127 -3 q80 0 128 3 l-5 -20 q-37 -2 -54.5 -8 q-17.5 -6 -28 -23 q-10.5 -17 -20.5 -55 l-63 -236 l321 0 l63 236 q9 32 9 48 q0 22 -15 29 q-15 7 -53 9 l5 20 q45 -3 126 -3 Z" /><glyph glyph-name="uni04B0" unicode="&#x4b0;" d="M700 722 q29 0 42.5 -15 q13.5 -15 13.5 -38 q0 -25 -15 -47.5 q-15 -22.5 -44 -22.5 q-20 0 -29 11.5 q-9 11.5 -9 28.5 q0 16 9 32.5 q9 16.5 23 29.5 l-3 0 q-27 -1 -55 -22 q-52 -38 -112.5 -122.5 q-60.5 -84.5 -116.5 -218.5 l-18 -74 l165 0 l0 -20 l-170 0 l-35 -138 q-8 -34 -8 -48 q0 -22 14.5 -29 q14.5 -7 52.5 -9 l-5 -20 q-45 3 -124 3 q-87 0 -131 -3 l5 20 q36 2 54 8 q18 6 29 23.5 q11 17.5 20 54.5 l35 138 l-170 0 l0 20 l175 0 l19 75 q-16 142 -43 235 q-27 93 -74 93 q-17 0 -28.5 -11 q-11.5 -11 -19.5 -36 l-28 -82 l-22 0 l33 97 q16 47 36.5 67 q20.5 20 61.5 20 q53 0 85.5 -43 q32.5 -43 50.5 -120 q18 -77 31 -199 q37 93 85 168 q48 75 102 129 q65 65 118 65 Z" /><glyph glyph-name="uni04C9" unicode="&#x4c9;" d="M691 705 q86 0 129 3 l-5 -20 q-37 -2 -54.5 -8 q-17.5 -6 -28 -23 q-10.5 -17 -20.5 -55 l-132 -496 q-9 -38 -9 -49 q2 -15 5 -20 q6 -9 20.5 -12 q14.5 -3 42.5 -5 l1 0 l31 0 q-12 -30 -41 -71.5 q-29 -41.5 -70.5 -81.5 q-41.5 -40 -88.5 -63 l-12 17 q54 44 81 81 q27 37 27 62 q0 19 -15.5 29 q-15.5 10 -43.5 10 l-1 0 q-80 0 -127 -3 l4 20 q36 2 54 8 q18 6 28.5 23 q10.5 17 20.5 55 l64 240 l-321 0 l-64 -240 q-9 -38 -9 -49 q0 -21 14.5 -28 q14.5 -7 53.5 -9 l-4 -20 q-46 3 -127 3 q-84 0 -127 -3 l5 20 q35 2 52.5 8 q17.5 6 28 23.5 q10.5 17.5 20.5 54.5 l132 496 q8 34 8 48 q0 22 -14.5 29 q-14.5 7 -52.5 9 l5 20 q41 -3 127 -3 q80 0 128 3 l-5 -20 q-37 -2 -54.5 -8 q-17.5 -6 -28 -23 q-10.5 -17 -20.5 -55 l-63 -236 l321 0 l63 236 q9 32 9 48 q0 22 -15 29 q-15 7 -53 9 l5 20 q45 -3 126 -3 Z" /><glyph glyph-name="uni04E8" unicode="&#x4e8;" d="M471 722 q112 0 174 -63 q62 -63 62 -178 q0 -113 -53.5 -228.5 q-53.5 -115.5 -149.5 -191 q-96 -75.5 -215 -75.5 q-111 0 -173 63 q-62 63 -62 177 q0 113 53 229 q53 116 148.5 191.5 q95.5 75.5 215.5 75.5 ZM462 704 q-59 0 -116 -45.5 q-57 -45.5 -101 -123 q-44 -77.5 -66 -169.5 l408 0 q13 68 13 129 q0 97 -38 153 q-38 56 -100 56 ZM298 4 q60 0 117.5 46.5 q57.5 46.5 101 124.5 q43.5 78 65.5 171 l-408 0 q-14 -68 -14 -133 q0 -97 38 -153 q38 -56 100 -56 Z" /><glyph glyph-name="uni0431" unicode="&#x431;" d="M623 782 q-36 -66 -77 -97 q-24 -18 -48 -26.5 q-24 -8.5 -63 -14.5 l-22 -3 q-46 -6 -83 -15 q-58 -14 -96 -38 q-38 -24 -70 -74 q-32 -50 -63 -138 q39 69 96 110.5 q57 41.5 127 41.5 q64 0 100.5 -39.5 q36.5 -39.5 36.5 -117.5 q0 -79 -35 -169.5 q-35 -90.5 -101 -153 q-66 -62.5 -153 -62.5 q-64 0 -100.5 39.5 q-36.5 39.5 -36.5 117.5 l0 1 l0 0 q0 38 3.5 64.5 q3.5 26.5 11.5 69.5 q21 95 62 191 q41 96 102 158 q26 26 56.5 43 q30.5 17 75.5 28 q30 7 96 16 q15 1 38 5 q49 7 77 20.5 q28 13.5 52 46.5 l14 -4 ZM318 508 q-51 0 -96.5 -65 q-45.5 -65 -73 -162.5 q-27.5 -97.5 -27.5 -187.5 q0 -45 14 -66 q14 -21 43 -21 q51 0 96.5 65 q45.5 65 73 162.5 q27.5 97.5 27.5 187.5 q0 45 -14 66 q-14 21 -43 21 Z" /><glyph glyph-name="uni0432" unicode="&#x432;" d="M463 443 q0 -57 -56 -105.5 q-56 -48.5 -141 -72.5 q54 -2 88.5 -29 q34.5 -27 34.5 -76 q0 -43 -27 -83 q-27 -40 -75 -65.5 q-48 -25.5 -108 -25.5 q-84 0 -122 48 q-38 48 -38 122 q0 86 46 173 q46 87 122.5 143 q76.5 56 162.5 56 q52 0 82.5 -21.5 q30.5 -21.5 30.5 -63.5 ZM127 264 q66 -3 125 18.5 q59 21.5 95 63.5 q36 42 36 96 q0 34 -14.5 50.5 q-14.5 16.5 -37.5 16.5 q-35 0 -76 -32 q-41 -32 -76 -88.5 q-35 -56.5 -52 -124.5 ZM305 154 q0 45 -22 71 q-22 26 -60 30 q-47 -9 -100 -7 q-10 -50 -10 -94 q0 -69 21.5 -109.5 q21.5 -40.5 62.5 -40.5 q31 0 55.5 22.5 q24.5 22.5 38.5 57.5 q14 35 14 70 Z" /><glyph glyph-name="uni0433" unicode="&#x433;" d="M139 41 q45 0 80 32.5 q35 32.5 58 91.5 l16 -5 q-27 -76 -76 -125 q-49 -49 -120 -49 q-46 0 -74 22 q-28 22 -28 63 q0 32 17 58.5 q17 26.5 42 48 q25 21.5 68 51.5 q47 33 76.5 58 q29.5 25 49.5 58.5 q20 33.5 20 75.5 q0 54 -50 54 q-38 0 -77 -33.5 q-39 -33.5 -68 -104.5 l-15 5 q31 92 85.5 139 q54.5 47 120.5 47 q41 0 66 -18.5 q25 -18.5 25 -54.5 q0 -30 -17.5 -57.5 q-17.5 -27.5 -42.5 -50 q-25 -22.5 -69 -58.5 q-47 -37 -76 -63.5 q-29 -26.5 -48.5 -59.5 q-19.5 -33 -19.5 -70 q0 -55 57 -55 Z" /><glyph glyph-name="uni0491" unicode="&#x491;" d="M474 674 q-5 -14 -22 -72 q-17 -60 -25 -108 l-208 0 l-135 -494 l-87 0 l140 514 q57 2 91 14 l-4 -14 l48 0 q48 0 79.5 15.5 q31.5 15.5 54.5 49 q23 33.5 46 95.5 l22 0 Z" /><glyph glyph-name="uni0434" unicode="&#x434;" d="M177 782 q127 -48 198.5 -143.5 q71.5 -95.5 71.5 -244.5 q0 -90 -34.5 -185 q-34.5 -95 -100.5 -159 q-66 -64 -154 -64 q-64 0 -100.5 39.5 q-36.5 39.5 -36.5 117.5 q0 78 34.5 169 q34.5 91 98.5 153.5 q64 62.5 147 62.5 q31 0 53 -15 q-17 96 -66 155 q-49 59 -123 97 l12 17 ZM164 6 q51 0 96.5 65 q45.5 65 73 162.5 q27.5 97.5 27.5 187.5 q0 28 -4 72 q-19 15 -56 15 q-50 0 -94.5 -65 q-44.5 -65 -72 -163 q-27.5 -98 -27.5 -187 q0 -45 14 -66 q14 -21 43 -21 Z" /><glyph glyph-name="uni0436" unicode="&#x436;" d="M854 528 q41 0 69.5 -23 q28.5 -23 28.5 -62 q0 -31 -20 -55.5 q-20 -24.5 -51 -24.5 q-20 0 -30.5 11 q-10.5 11 -10.5 28 q0 28 22 48.5 q22 20.5 53 26.5 q-18 31 -58 31 q-43 0 -85.5 -54 q-42.5 -54 -69.5 -143 q-27 -89 -27 -187 q0 -96 56 -96 q30 0 63 24 q33 24 61 76 l20 -8 q-31 -60 -71.5 -97 q-40.5 -37 -101.5 -37 q-58 0 -89 37 q-31 37 -31 110 q0 62 19 126 l-90 0 l-68 -259 l-87 0 l68 259 l-85 0 q-20 -71 -56 -133 q-36 -62 -87 -101 q-51 -39 -112 -39 q-41 0 -69.5 23 q-28.5 23 -28.5 62 q0 31 20 55.5 q20 24.5 51 24.5 q20 0 30.5 -11 q10.5 -11 10.5 -28 q0 -28 -22 -48.5 q-22 -20.5 -53 -26.5 q18 -31 58 -31 q43 0 85.5 54 q42.5 54 69.5 143 q27 89 27 187 q0 96 -56 96 q-30 0 -63 -24 q-33 -24 -61 -76 l-20 8 q31 60 71.5 97 q40.5 37 101.5 37 q58 0 89 -37 q31 -37 31 -110 q0 -48 -12 -102 l85 0 l61 235 q57 2 91 14 l-65 -249 l90 0 q33 105 98 177 q65 72 150 72 Z" /><glyph glyph-name="uni0437" unicode="&#x437;" d="M141 4 q66 0 109 42.5 q43 42.5 43 107.5 q0 47 -24.5 75 q-24.5 28 -74.5 27 q-26 -13 -45 -13 q-22 0 -18 17 q2 8 9 12 q7 4 21 4 q9 0 18 -2.5 q9 -2.5 20 -1.5 q32 4 64.5 25 q32.5 21 53.5 55 q21 34 21 73 q0 34 -17 49.5 q-17 15.5 -52 15.5 q-52 0 -102 -33 q-50 -33 -80 -105 l-18 0 q32 89 94.5 132.5 q62.5 43.5 138.5 43.5 q59 0 94.5 -24.5 q35.5 -24.5 35.5 -68.5 q0 -44 -35.5 -80.5 q-35.5 -36.5 -86.5 -60 q-51 -23.5 -97 -29.5 q77 -2 124 -31 q47 -29 47 -86 q0 -51 -37.5 -87.5 q-37.5 -36.5 -93.5 -55.5 q-56 -19 -109 -19 q-33 0 -71 9 q-38 9 -66 29.5 q-28 20.5 -28 53.5 q0 28 20 48 q20 20 48 20 q19 0 30.5 -10.5 q11.5 -10.5 11.5 -30.5 q0 -22 -14 -39.5 q-14 -17.5 -41 -24.5 q7 -14 40 -25.5 q33 -11.5 67 -11.5 Z" /><glyph glyph-name="uni043A" unicode="&#x43a;" d="M465 528 q30 0 44.5 -15 q14.5 -15 14.5 -39 q0 -22 -14.5 -45.5 q-14.5 -23.5 -43.5 -23.5 q-20 0 -29.5 11.5 q-9.5 11.5 -9.5 28.5 q0 14 9 31.5 q9 17.5 23 30.5 l-2 0 q-11 0 -19 -3.5 q-8 -3.5 -18 -10.5 q-14 -11 -25 -30.5 q-11 -19.5 -24 -50.5 q-18 -40 -32.5 -64.5 q-14.5 -24.5 -38.5 -46 q-24 -21.5 -59 -29.5 q65 -3 106 -27 q41 -24 41 -74 q0 -12 -3 -27 l-16 -80 q-2 -8 -2 -20 q0 -11 5 -16 q5 -5 17 -5 q20 0 37.5 23.5 q17.5 23.5 36.5 78.5 l12 37 l19 0 l-24 -73 q-33 -103 -119 -103 q-29 0 -47 16 q-18 16 -18 49 q0 15 4 30 l14 66 q4 19 4 37 q0 38 -28 57.5 q-28 19.5 -94 24.5 l-77 -266 l-86 0 l134 429 q9 23 9 39 q0 23 -21 23 q-22 0 -41 -23.5 q-19 -23.5 -40 -78.5 l-14 -37 l-19 0 l27 73 q22 57 55 80 q33 23 70 23 q30 0 42.5 -14 q12.5 -14 12.5 -40 q0 -29 -17 -86 l-32 -111 q48 3 79 23 q31 20 47.5 47.5 q16.5 27.5 34.5 70.5 q14 33 26 53.5 q12 20.5 29 33.5 q31 23 60 23 Z" /><glyph glyph-name="uni043B" unicode="&#x43b;" d="M467 163 l19 0 l-25 -73 q-20 -55 -51 -79.5 q-31 -24.5 -64 -24.5 q-19 0 -33 7 q-14 7 -22 19 q-9 15 -9 35 q0 21 7 47 q7 26 9 33 l69 272 q1 8 1 23 q0 41 -14.5 64 q-14.5 23 -42.5 23 q-32 0 -55 -30 q-23 -30 -38 -71.5 q-15 -41.5 -32 -105.5 l-8 -30 q-21 -77 -37.5 -125.5 q-16.5 -48.5 -41 -88 q-24.5 -39.5 -58.5 -58.5 q-26 -14 -56 -14 q-25 0 -37.5 10.5 q-12.5 10.5 -12.5 28.5 q0 23 17.5 42 q17.5 19 41.5 19 q16 0 24.5 -8.5 q8.5 -8.5 8.5 -22.5 q0 -28 -28 -54 l1 0 q43 9 74 54.5 q31 45.5 49.5 100 q18.5 54.5 36.5 126.5 l6 21 q31 117 63.5 171 q32.5 54 83.5 54 q30 0 47.5 -20 q17.5 -20 19.5 -55 l16 61 q55 2 92 14 l-125 -442 q-1 -4 -4 -15.5 q-3 -11.5 -3 -21.5 q0 -25 22 -25 q44 0 77 102 l12 37 Z" /><glyph glyph-name="uni043C" unicode="&#x43c;" d="M588 163 l19 0 l-25 -73 q-19 -56 -50 -80 q-31 -24 -65 -24 q-19 0 -33 7 q-14 7 -22 19 q-9 15 -9 35 q0 21 7 47 q7 26 9 33 l77 305 l-253 -437 l-19 0 l-17 436 q-31 -195 -70 -299 q-39 -104 -93 -133 q-24 -13 -58 -13 q-25 0 -37.5 10.5 q-12.5 10.5 -12.5 28.5 q0 23 17.5 42 q17.5 19 41.5 19 q16 0 24.5 -8.5 q8.5 -8.5 8.5 -22.5 q0 -28 -28 -54 l1 0 q19 2 41 16 q56 38 92 161.5 q36 123.5 70 335.5 q49 2 82 14 l10 -406 l217 376 l4 16 q55 2 92 14 l-125 -442 q-1 -4 -4 -15.5 q-3 -11.5 -3 -21.5 q0 -25 22 -25 q44 0 77 102 l12 37 Z" /><glyph glyph-name="uni043D" unicode="&#x43d;" d="M518 162 l19 0 l-25 -73 q-36 -103 -121 -103 q-16 0 -30 7 q-14 7 -21 20 q-6 14 -6 31 q0 26 14 82 l34 133 l-196 0 l-65 -259 l-87 0 l120 429 q7 23 7 37 q0 25 -21 25 q-22 0 -40.5 -23.5 q-18.5 -23.5 -37.5 -78.5 l-13 -37 l-19 0 l25 73 q36 103 121 103 q57 0 57 -59 q0 -29 -14 -81 l-28 -109 l196 0 l59 235 q57 2 91 14 l-124 -443 q-7 -26 -7 -39 q0 -23 21 -23 q22 0 40.5 23.5 q18.5 23.5 37.5 78.5 l13 37 Z" /><glyph glyph-name="uni0444" unicode="&#x444;" d="M626 528 q49 0 76.5 -35.5 q27.5 -35.5 27.5 -105.5 q0 -81 -36 -175.5 q-36 -94.5 -103 -160 q-67 -65.5 -154 -65.5 q-26 0 -47 13.5 q-21 13.5 -32 38.5 l-57 -212 q-54 -2 -90 -14 l90 338 q-43 -88 -86.5 -126 q-43.5 -38 -92.5 -38 q-49 0 -76.5 35.5 q-27.5 35.5 -27.5 105.5 q0 81 36 175.5 q36 94.5 103 160 q67 65.5 154 65.5 q26 0 46.5 -13 q20.5 -13 31.5 -37 l10 37 q22 82 45.5 133.5 q23.5 51.5 56.5 83.5 q23 23 56.5 36.5 q33.5 13.5 68.5 13.5 q44 0 69.5 -20 q25.5 -20 25.5 -51 q0 -26 -19.5 -47.5 q-19.5 -21.5 -47.5 -21.5 q-19 0 -30 9 q-11 9 -10 25 q0 24 15.5 41.5 q15.5 17.5 41.5 25.5 q0 9 -13.5 16.5 q-13.5 7.5 -32.5 7.5 q-30 0 -58 -26 q-21 -19 -35 -60.5 q-14 -41.5 -35 -122.5 l-11 -43 l-46 -170 q45 98 90 140.5 q45 42.5 96 42.5 ZM151 18 q25 0 57.5 31.5 q32.5 31.5 64.5 85 q32 53.5 55 116.5 l54 201 q-12 29 -29 41 q-17 12 -41 12 q-53 0 -101 -66.5 q-48 -66.5 -77.5 -161.5 q-29.5 -95 -29.5 -172 q0 -43 12.5 -65 q12.5 -22 34.5 -22 ZM436 9 q53 0 101 66.5 q48 66.5 77.5 161.5 q29.5 95 29.5 172 q0 43 -12.5 65 q-12.5 22 -34.5 22 q-26 0 -60 -33.5 q-34 -33.5 -66.5 -90.5 q-32.5 -57 -55.5 -123 l-50 -185 q12 -30 29.5 -42.5 q17.5 -12.5 41.5 -12.5 Z" /><glyph glyph-name="uni0447" unicode="&#x447;" d="M498 162 l19 0 l-25 -73 q-19 -56 -51.5 -79.5 q-32.5 -23.5 -68.5 -23.5 q-21 0 -37.5 7 q-16.5 7 -24.5 20 q-7 11 -7 31 q0 28 15 82 l37 134 q-32 -28 -75.5 -46 q-43.5 -18 -83.5 -18 q-84 0 -84 77 q0 32 14 74 l27 82 q8 24 8 37 q0 25 -24 25 q-20 0 -38.5 -22.5 q-18.5 -22.5 -38.5 -79.5 l-13 -37 l-19 0 l25 73 q36 103 121 103 q70 0 70 -62 q0 -30 -16 -78 l-25 -76 q-10 -29 -10 -49 q0 -19 11 -27 q11 -8 34 -8 q31 0 65 16 q34 16 60 43 l63 227 q57 2 91 14 l-124 -443 q-7 -26 -7 -39 q0 -23 21 -23 q22 0 40.5 23.5 q18.5 23.5 37.5 78.5 l13 37 Z" /><glyph glyph-name="uni0446" unicode="&#x446;" d="M499 162 l19 0 l-25 -73 q-2 -6 -4 -10 q-32 -96 -53 -146.5 q-21 -50.5 -44.5 -77 q-23.5 -26.5 -55.5 -26.5 q-23 0 -39.5 13 q-16.5 13 -35.5 38 q-17 21 -29.5 31.5 q-12.5 10.5 -28.5 10.5 q8 -21 8 -34 q0 -25 -16.5 -39.5 q-16.5 -14.5 -37.5 -14.5 q-15 0 -24 9 q-9 9 -9 27 q0 25 23 45 q23 20 56 20 q23 0 41 -6 q18 -6 43 -18 q26 -11 40.5 -16 q14.5 -5 32.5 -5 q30 0 47.5 29 q17.5 29 43.5 99 q-32 -32 -79 -32 q-16 0 -30 7 q-14 7 -21 20 q-6 14 -6 31 q0 26 14 82 l31 125 q-58 -143 -113 -204 q-55 -61 -120 -61 q-84 0 -84 77 q0 32 14 74 l97 292 q8 24 8 37 q0 25 -24 25 q-20 0 -38.5 -22.5 q-18.5 -22.5 -38.5 -79.5 l-13 -37 l-19 0 l25 73 q36 103 121 103 q70 0 70 -62 q0 -30 -16 -78 l-95 -286 q-10 -30 -10 -50 q0 -34 32 -34 q39 0 86 57.5 q47 57.5 93 159.5 q46 102 80 230 l12 49 q57 2 91 14 l-124 -443 q-7 -26 -7 -39 q0 -23 21 -23 q22 0 40.5 23.5 q18.5 23.5 37.5 78.5 l13 37 Z" /><glyph glyph-name="uni0448" unicode="&#x448;" d="M738 162 l19 0 l-25 -73 q-36 -103 -121 -103 q-57 0 -57 59 q0 29 14 81 l32 127 q-60 -146 -113 -206.5 q-53 -60.5 -119 -60.5 q-66 0 -66 70 q0 31 14 81 l36 134 q-42 -105 -79 -166.5 q-37 -61.5 -75.5 -90 q-38.5 -28.5 -85.5 -28.5 q-70 0 -70 75 q0 32 14 76 l97 292 q8 26 8 38 q0 24 -24 24 q-20 0 -38.5 -22.5 q-18.5 -22.5 -38.5 -79.5 l-13 -37 l-19 0 l25 73 q36 103 121 103 q70 0 70 -62 q0 -30 -16 -78 l-95 -286 q-10 -30 -10 -53 q0 -31 22 -31 q57 0 128.5 130.5 q71.5 130.5 138.5 345.5 l-1 -6 l7 26 q57 2 91 14 l-126 -426 q-10 -36 -10 -52 q0 -32 28 -32 q37 0 83 58.5 q46 58.5 90.5 159.5 q44.5 101 77.5 223 l14 55 q57 2 91 14 l-124 -443 q-7 -28 -7 -37 q0 -25 21 -25 q22 0 40.5 23.5 q18.5 23.5 37.5 78.5 l13 37 Z" /><glyph glyph-name="uni0449" unicode="&#x449;" d="M738 162 l19 0 l-25 -73 q-2 -6 -4 -10 q-32 -96 -53 -146.5 q-21 -50.5 -44.5 -77 q-23.5 -26.5 -55.5 -26.5 q-23 0 -39.5 13 q-16.5 13 -35.5 38 q-17 21 -29.5 31.5 q-12.5 10.5 -28.5 10.5 q8 -21 8 -34 q0 -25 -16.5 -39.5 q-16.5 -14.5 -37.5 -14.5 q-15 0 -24 9 q-9 9 -9 27 q0 25 23 45 q23 20 56 20 q23 0 41 -6 q18 -6 43 -18 q26 -11 40.5 -16 q14.5 -5 32.5 -5 q30 0 47.5 29 q17.5 29 43.5 99 q-32 -32 -79 -32 q-57 0 -57 59 q0 29 14 81 l32 127 q-60 -146 -113 -206.5 q-53 -60.5 -119 -60.5 q-66 0 -66 70 q0 31 14 81 l36 134 q-42 -105 -79 -166.5 q-37 -61.5 -75.5 -90 q-38.5 -28.5 -85.5 -28.5 q-70 0 -70 75 q0 32 14 76 l97 292 q8 26 8 38 q0 24 -24 24 q-20 0 -38.5 -22.5 q-18.5 -22.5 -38.5 -79.5 l-13 -37 l-19 0 l25 73 q36 103 121 103 q70 0 70 -62 q0 -30 -16 -78 l-95 -286 q-10 -30 -10 -53 q0 -31 22 -31 q57 0 128.5 130.5 q71.5 130.5 138.5 345.5 l-1 -6 l7 26 q57 2 91 14 l-126 -426 q-10 -36 -10 -52 q0 -32 28 -32 q37 0 83 58.5 q46 58.5 90.5 159.5 q44.5 101 77.5 223 l14 55 q57 2 91 14 l-124 -443 q-7 -28 -7 -37 q0 -25 21 -25 q22 0 40.5 23.5 q18.5 23.5 37.5 78.5 l13 37 Z" /><glyph glyph-name="uni045F" unicode="&#x45f;" d="M499 162 l19 0 l-25 -73 q-36 -103 -121 -103 q-16 0 -30 7 q-14 7 -21 20 q-6 14 -6 31 q0 26 14 82 l31 125 q-50 -124 -99 -186 l-16 -24 q-21 -32 -30 -48.5 q-9 -16.5 -9 -31.5 q0 -12 10 -26 q10 -14 10 -27 q0 -25 -24 -49.5 q-24 -24.5 -61 -46.5 l-9 13 q33 25 33 50 q0 11 -10 29 q-10 16 -10 26 q0 12 7 22 q7 10 24 26 q20 20 31 33 q-38 -25 -80 -25 q-84 0 -84 77 q0 32 14 74 l97 292 q8 24 8 37 q0 25 -24 25 q-20 0 -38.5 -22.5 q-18.5 -22.5 -38.5 -79.5 l-13 -37 l-19 0 l25 73 q36 103 121 103 q70 0 70 -62 q0 -30 -16 -78 l-95 -286 q-10 -30 -10 -50 q0 -34 32 -34 q39 0 86 57.5 q47 57.5 93 159.5 q46 102 80 230 l12 49 q57 2 91 14 l-124 -443 q-7 -26 -7 -39 q0 -23 21 -23 q22 0 40.5 23.5 q18.5 23.5 37.5 78.5 l13 37 Z" /><glyph glyph-name="uni044C" unicode="&#x44c;" d="M283 288 q53 0 82 -28.5 q29 -28.5 29 -77.5 q0 -47 -26.5 -92.5 q-26.5 -45.5 -75.5 -74.5 q-49 -29 -112 -29 q-59 0 -96 28.5 q-37 28.5 -37 89.5 q0 48 26 116 l81 209 q8 19 8 37 q0 25 -23 25 q-22 0 -40 -24.5 q-18 -24.5 -37 -77.5 l-13 -37 l-19 0 l25 73 q19 55 51.5 79 q32.5 24 69.5 24 q64 0 64 -54 q0 -33 -21 -86 l-60 -152 q26 26 58.5 39 q32.5 13 65.5 13 ZM176 4 q32 0 64 21 q32 21 53 60 q21 39 21 89 q0 85 -65 85 q-27 0 -56 -15 q-29 -15 -47 -41 l-5 -12 q-27 -70 -27 -114 q0 -38 17.5 -55.5 q17.5 -17.5 44.5 -17.5 Z" /><glyph glyph-name="uni044A" unicode="&#x44a;" d="M356 288 q54 0 83 -28.5 q29 -28.5 29 -77.5 q0 -46 -25.5 -91.5 q-25.5 -45.5 -74.5 -75 q-49 -29.5 -116 -29.5 q-71 0 -105 33 q-34 33 -34 84 q0 76 67 183 q67 107 169 204 q-18 -6 -37 -16.5 q-19 -10.5 -24 -13.5 q-28 -16 -47 -24.5 q-19 -8.5 -37 -8.5 q-12 0 -25.5 4 q-13.5 4 -25.5 9 q-30 12 -45 12 q-17 0 -29.5 -13.5 q-12.5 -13.5 -23.5 -48.5 l-11 -37 l-19 0 l22 73 q13 46 34.5 74 q21.5 28 61.5 28 q16 0 27.5 -4 q11.5 -4 30.5 -14 q22 -11 36.5 -16 q14.5 -5 36.5 -5 q25 0 50 8.5 q25 8.5 42 22.5 l10 19 l21 -10 q-66 -78 -108 -151 q-42 -73 -63 -148 q27 31 61.5 44.5 q34.5 13.5 68.5 13.5 ZM260 4 q28 0 58 21 q30 21 50 60 q20 39 20 89 q0 85 -65 85 q-25 0 -54 -12 q-29 -12 -47 -33 q-9 -37 -14 -87 q-2 -22 -2 -35 q0 -88 54 -88 Z" /><glyph glyph-name="uni044B" unicode="&#x44b;" d="M283 288 q53 0 82 -28.5 q29 -28.5 29 -77.5 q0 -47 -26.5 -92.5 q-26.5 -45.5 -75.5 -74.5 q-49 -29 -112 -29 q-59 0 -96 28.5 q-37 28.5 -37 89.5 q0 48 26 116 l81 209 q8 19 8 37 q0 25 -23 25 q-22 0 -40 -24.5 q-18 -24.5 -37 -77.5 l-13 -37 l-19 0 l25 73 q19 55 51.5 79 q32.5 24 69.5 24 q64 0 64 -54 q0 -33 -21 -86 l-60 -152 q26 26 58.5 39 q32.5 13 65.5 13 ZM625 162 l19 0 l-25 -73 q-20 -57 -52 -80 q-32 -23 -66 -23 q-19 0 -35 6.5 q-16 6.5 -24 20.5 q-6 12 -6 31 q0 32 14 82 l103 388 q57 2 91 14 l-124 -443 q-7 -26 -7 -39 q0 -23 21 -23 q22 0 40.5 23.5 q18.5 23.5 37.5 78.5 l13 37 ZM176 4 q32 0 64 21 q32 21 53 60 q21 39 21 89 q0 85 -65 85 q-27 0 -56 -15 q-29 -15 -47 -41 l-5 -12 q-27 -70 -27 -114 q0 -38 17.5 -55.5 q17.5 -17.5 44.5 -17.5 Z" /><glyph glyph-name="uni0459" unicode="&#x459;" d="M537 288 q53 0 82 -28.5 q29 -28.5 29 -77.5 q0 -47 -26.5 -92.5 q-26.5 -45.5 -75.5 -74.5 q-49 -29 -112 -29 q-62 0 -98 26 q-36 26 -36 88 q0 30 11 76 l56 222 q1 9 1 26 q0 39 -14.5 62 q-14.5 23 -42.5 23 q-32 0 -55 -30 q-23 -30 -38 -71.5 q-15 -41.5 -32 -105.5 l-8 -30 q-21 -77 -37.5 -125.5 q-16.5 -48.5 -41 -88 q-24.5 -39.5 -58.5 -58.5 q-26 -14 -56 -14 q-25 0 -37.5 10.5 q-12.5 10.5 -12.5 28.5 q0 23 17.5 42 q17.5 19 41.5 19 q16 0 24.5 -8.5 q8.5 -8.5 8.5 -22.5 q0 -28 -28 -54 l1 0 q43 9 74 54.5 q31 45.5 49.5 100 q18.5 54.5 36.5 126.5 l6 21 q31 117 63.5 171 q32.5 54 83.5 54 q30 0 47.5 -20 q17.5 -20 19.5 -56 l16 62 q57 2 91 14 l-86 -305 q27 33 63.5 49 q36.5 16 72.5 16 ZM430 4 q32 0 64 21 q32 21 53 60 q21 39 21 89 q0 85 -65 85 q-30 0 -61.5 -18 q-31.5 -18 -48.5 -49 l0 1 l-7 -24 q-15 -52 -15 -91 q0 -74 59 -74 Z" /><glyph glyph-name="uni045A" unicode="&#x45a;" d="M587 288 q53 0 82 -28.5 q29 -28.5 29 -77.5 q0 -47 -26.5 -92.5 q-26.5 -45.5 -75.5 -74.5 q-49 -29 -112 -29 q-62 0 -98 26 q-36 26 -36 88 q0 30 11 76 l21 83 l-196 0 l-65 -259 l-87 0 l120 429 q7 23 7 37 q0 25 -21 25 q-22 0 -40.5 -23.5 q-18.5 -23.5 -37.5 -78.5 l-13 -37 l-19 0 l25 73 q36 103 121 103 q57 0 57 -59 q0 -29 -14 -81 l-28 -109 l196 0 l59 235 q57 2 91 14 l-86 -305 q27 33 63.5 49 q36.5 16 72.5 16 ZM480 4 q32 0 64 21 q32 21 53 60 q21 39 21 89 q0 85 -65 85 q-30 0 -61.5 -18 q-31.5 -18 -48.5 -49 l0 1 l-7 -24 q-15 -52 -15 -91 q0 -74 59 -74 Z" /><glyph glyph-name="uni0454" unicode="&#x454;" d="M316 402 q0 28 22 48.5 q22 20.5 53 26.5 q-21 31 -68 31 q-41 0 -82 -36.5 q-41 -36.5 -72.5 -99 q-31.5 -62.5 -46.5 -138.5 q36 67 88 67 q13 0 22 -3.5 q9 -3.5 22 -11.5 q11 -7 19.5 -10.5 q8.5 -3.5 19.5 -3.5 q32 0 55 38 l14 -5 q-18 -37 -42.5 -57 q-24.5 -20 -50.5 -20 q-11 0 -19.5 3.5 q-8.5 3.5 -19.5 10.5 q-12 7 -21 10.5 q-9 3.5 -22 3.5 q-43 0 -70 -49 q-6 -40 -6 -83 q0 -49 18.5 -72.5 q18.5 -23.5 51.5 -23.5 q82 0 150 100 l20 -8 q-32 -55 -86.5 -94.5 q-54.5 -39.5 -114.5 -39.5 q-61 0 -96.5 37.5 q-35.5 37.5 -35.5 109.5 q0 81 38 174 q38 93 107 157 q69 64 157 64 q46 0 77 -23 q31 -23 31 -62 q0 -31 -20 -55.5 q-20 -24.5 -51 -24.5 q-20 0 -30.5 11 q-10.5 11 -10.5 28 Z" /><glyph glyph-name="uni044D" unicode="&#x44d;" d="M266 528 q62 0 97 -37.5 q35 -37.5 35 -109.5 q0 -81 -38 -174 q-38 -93 -107 -157 q-69 -64 -157 -64 q-46 0 -77 23 q-31 23 -31 62 q0 31 20 55.5 q20 24.5 51 24.5 q20 0 30.5 -11 q10.5 -11 10.5 -28 q0 -28 -22 -48.5 q-22 -20.5 -53 -26.5 q21 -31 68 -31 q42 0 84.5 39 q42.5 39 74.5 106 q32 67 45 147 q-34 -66 -87 -66 q-13 0 -22 3.5 q-9 3.5 -22 11.5 q-11 7 -19.5 10.5 q-8.5 3.5 -19.5 3.5 q-32 0 -55 -38 l-14 5 q18 37 42.5 57 q24.5 20 50.5 20 q11 0 19.5 -3.5 q8.5 -3.5 19.5 -10.5 q12 -7 21 -10.5 q9 -3.5 22 -3.5 q41 0 68 46 q4 29 4 67 q0 49 -18.5 72.5 q-18.5 23.5 -51.5 23.5 q-82 0 -150 -100 l-20 8 q32 55 86.5 94.5 q54.5 39.5 114.5 39.5 Z" /><glyph glyph-name="uni044E" unicode="&#x44e;" d="M564 528 q64 0 100.5 -39.5 q36.5 -39.5 36.5 -117.5 q0 -79 -35 -169.5 q-35 -90.5 -101 -153 q-66 -62.5 -153 -62.5 q-64 0 -100.5 39.5 q-36.5 39.5 -36.5 117.5 q0 53 17 116 l-108 0 l-75 -259 l-87 0 l135 429 q9 23 9 39 q0 23 -21 23 q-22 0 -41 -23.5 q-19 -23.5 -40 -78.5 l-14 -37 l-19 0 l27 73 q22 57 55 80 q33 23 70 23 q30 0 42.5 -14 q12.5 -14 12.5 -40 q0 -29 -17 -86 l-31 -109 l108 0 q33 105 102.5 177 q69.5 72 163.5 72 ZM418 6 q51 0 96.5 65 q45.5 65 73 162.5 q27.5 97.5 27.5 187.5 q0 45 -14 66 q-14 21 -43 21 q-51 0 -96.5 -65 q-45.5 -65 -73 -162.5 q-27.5 -97.5 -27.5 -187.5 q0 -45 14 -66 q14 -21 43 -21 Z" /><glyph glyph-name="uni044F" unicode="&#x44f;" d="M484 162 l-25 -73 q-19 -55 -52 -79 q-33 -24 -72 -24 q-67 0 -67 63 q0 30 17 78 l47 133 q-26 -6 -61 -10 q-41 -8 -61.5 -24.5 q-20.5 -16.5 -42.5 -60.5 l-24 -63 q-23 -63 -52 -89.5 q-29 -26.5 -68 -26.5 q-32 0 -54 17 q-22 17 -34 55 l13 9 q8 -13 22.5 -19.5 q14.5 -6.5 27.5 -6.5 q20 0 30.5 11.5 q10.5 11.5 23.5 39.5 l28 63 q22 46 51.5 67.5 q29.5 21.5 67.5 28.5 q-48 7 -73.5 33 q-25.5 26 -25.5 65 q0 38 22.5 79 q22.5 41 77 70.5 q54.5 29.5 144.5 29.5 q69 0 99.5 -19.5 q30.5 -19.5 30.5 -60.5 q0 -31 -15 -73 l-103 -290 q-7 -23 -7 -34 q0 -28 26 -28 q21 0 39.5 23.5 q18.5 23.5 37.5 78.5 l13 37 l19 0 ZM338 510 q-43 0 -79 -19 q-36 -19 -57.5 -53.5 q-21.5 -34.5 -21.5 -78.5 q0 -41 21 -64.5 q21 -23.5 68 -23.5 q23 0 69 6 l40 114 q16 47 16 73 q0 26 -14 36 q-14 10 -42 10 Z" /><glyph glyph-name="uni0452" unicode="&#x452;" d="M393 528 q80 0 80 -72 q0 -32 -14 -79 l-74 -262 q-70 -247 -195 -293 q-29 -10 -59 -10 q-22 0 -34.5 10 q-12.5 10 -12.5 28 q0 10 2 16 q6 18 21.5 32 q15.5 14 35.5 14 q15 0 24 -9 q9 -9 9 -22 q0 -4 -2 -12 q-8 -25 -26 -42 q38 5 61 29 q23 24 38 79 l135 477 q10 35 10 52 q0 32 -32 32 q-34 0 -76.5 -44.5 q-42.5 -44.5 -84.5 -123.5 q-42 -79 -77 -179 l-44 -149 l-87 0 l180 608 l-90 0 l6 20 l90 0 l12 39 q5 17 5 27 q0 20 -16 29.5 q-16 9.5 -53 9.5 l6 21 q104 1 180 41 l-49 -167 l169 0 l-6 -20 l-169 0 l-94 -320 q56 130 111 185 q55 55 120 55 Z" /><glyph glyph-name="uni0463" unicode="&#x463;" d="M562 288 q52 0 81 -28.5 q29 -28.5 29 -77.5 q0 -47 -26.5 -92.5 q-26.5 -45.5 -75 -74.5 q-48.5 -29 -111.5 -29 q-58 0 -96 28 q-38 28 -38 90 q0 48 26 116 l74 192 q10 26 10 48 q0 36 -31 36 q-40 0 -88.5 -56 q-48.5 -56 -95 -153 q-46.5 -97 -80.5 -214 l-18 -73 l-87 0 l120 429 q7 23 7 38 q0 24 -23 24 q-21 0 -38.5 -23 q-17.5 -23 -37.5 -79 l-13 -37 l-19 0 l25 73 q35 103 118 103 q33 0 46.5 -15.5 q13.5 -15.5 13.5 -42.5 q0 -26 -14 -82 l-35 -137 q62 148 121.5 212.5 q59.5 64.5 124.5 64.5 q41 0 59.5 -21 q18.5 -21 18.5 -56 q0 -34 -16 -74 l-56 -141 q26 26 58.5 39 q32.5 13 66.5 13 ZM454 4 q32 0 64 21 q32 21 53 60 q21 39 21 89 q0 85 -64 85 q-28 0 -57 -15 q-29 -15 -47 -41 l-5 -12 q-27 -70 -27 -114 q0 -38 17.5 -55.5 q17.5 -17.5 44.5 -17.5 Z" /><glyph glyph-name="uni046B" unicode="&#x46b;" d="M687 76 q4 -27 16 -39.5 q12 -12.5 41 -15.5 l-5 -21 q-38 -7 -63 -7 q-36 0 -50 17.5 q-14 17.5 -21 62.5 l-12 76 q-10 61 -38 84 q-28 23 -90 24 l-41 -164 q-5 -23 -5 -34 q0 -21 12.5 -29.5 q12.5 -8.5 40.5 -8.5 l-5 -21 q-84 4 -108 4 q-26 0 -110 -4 l5 21 q37 0 55.5 15.5 q18.5 15.5 28.5 56.5 l36 145 l-12 19 q-44 0 -76 -10.5 q-32 -10.5 -56 -37.5 q-32 -33 -57.5 -81 q-25.5 -48 -29.5 -55 q-26 -44 -55.5 -62 q-29.5 -18 -71.5 -18 q-24 0 -59 7 l5 21 q30 3 48 15.5 q18 12.5 37 39.5 q17 26 28 46 q38 63 57 85 q26 29 52 43 q26 14 63.5 19 q37.5 5 105.5 5 l-96 164 q-15 26 -24 37 q-9 11 -19.5 15 q-10.5 4 -30.5 4 l5 21 q213 -5 299 -5 q47 0 227 4 l32 1 l-5 -20 q-25 -1 -39.5 -11 q-14.5 -10 -39.5 -36 q-23 -23 -23 -23 l-157 -151 q74 -1 111.5 -10 q37.5 -9 55.5 -33 q18 -24 26 -74 l12 -81 ZM472 490 q-59 0 -89 -8 q-30 -8 -30 -32 q0 -16 11 -34 l85 -151 l140 136 q31 31 31 49 q0 20 -36 30 q-36 10 -112 10 Z" /><glyph glyph-name="uni0493" unicode="&#x493;" d="M184 255 q-48 -40 -75 -78 q-27 -38 -27 -81 q0 -55 57 -55 q45 0 80 32.5 q35 32.5 58 91.5 l16 -5 q-27 -76 -76 -125 q-49 -49 -120 -49 q-46 0 -74 22 q-28 22 -28 63 q0 32 17 59 q17 27 42 48 q25 21 69 52 q24 16 36 25 l-159 0 l4 20 l180 0 q40 32 62 67 q22 35 22 79 q0 54 -50 54 q-38 0 -77 -33.5 q-39 -33.5 -68 -104.5 l-15 5 q31 92 85.5 139 q54.5 47 120.5 47 q41 0 66 -18.5 q25 -18.5 25 -54.5 q0 -30 -17.5 -58 q-17.5 -28 -43 -51 q-25.5 -23 -69.5 -58 l-17 -13 l165 0 l-4 -20 l-185 0 Z" /><glyph glyph-name="uni0497" unicode="&#x497;" d="M854 528 q41 0 69.5 -23 q28.5 -23 28.5 -62 q0 -31 -20 -55.5 q-20 -24.5 -51 -24.5 q-20 0 -30.5 11 q-10.5 11 -10.5 28 q0 28 22 48.5 q22 20.5 53 26.5 q-18 31 -58 31 q-43 0 -85.5 -54 q-42.5 -54 -69.5 -143 q-27 -89 -27 -187 q0 -96 56 -96 q30 0 63 24 q33 24 61 76 l20 -8 q-39 -118 -62 -175 q-23 -57 -47.5 -86.5 q-24.5 -29.5 -57.5 -29.5 q-23 0 -39.5 13 q-16.5 13 -35.5 38 q-17 21 -29.5 31.5 q-12.5 10.5 -28.5 10.5 q8 -21 8 -34 q0 -25 -16.5 -39.5 q-16.5 -14.5 -37.5 -14.5 q-15 0 -24 9 q-9 9 -9 27 q0 25 23 45 q23 20 56 20 q23 0 41 -6 q18 -6 43 -18 q26 -11 40.5 -16 q14.5 -5 32.5 -5 q21 0 36.5 16 q15.5 16 27.5 43 q12 27 31 81 q3 8 6 15.5 q3 7.5 5 13.5 q-57 -73 -136 -73 q-58 0 -89 37 q-31 37 -31 110 q0 62 19 126 l-90 0 l-68 -259 l-87 0 l68 259 l-85 0 q-20 -71 -56 -133 q-36 -62 -87 -101 q-51 -39 -112 -39 q-41 0 -69.5 23 q-28.5 23 -28.5 62 q0 31 20 55.5 q20 24.5 51 24.5 q20 0 30.5 -11 q10.5 -11 10.5 -28 q0 -28 -22 -48.5 q-22 -20.5 -53 -26.5 q18 -31 58 -31 q43 0 85.5 54 q42.5 54 69.5 143 q27 89 27 187 q0 96 -56 96 q-30 0 -63 -24 q-33 -24 -61 -76 l-20 8 q31 60 71.5 97 q40.5 37 101.5 37 q58 0 89 -37 q31 -37 31 -110 q0 -48 -12 -102 l85 0 l61 235 q57 2 91 14 l-65 -249 l90 0 q33 105 98 177 q65 72 150 72 Z" /><glyph glyph-name="uni049B" unicode="&#x49b;" d="M465 528 q30 0 44.5 -15 q14.5 -15 14.5 -39 q0 -22 -14.5 -45.5 q-14.5 -23.5 -43.5 -23.5 q-20 0 -29.5 11.5 q-9.5 11.5 -9.5 28.5 q0 14 9 31.5 q9 17.5 23 30.5 l-2 0 q-11 0 -19 -3.5 q-8 -3.5 -18 -10.5 q-14 -11 -25 -30.5 q-11 -19.5 -24 -50.5 q-18 -40 -32.5 -64.5 q-14.5 -24.5 -38.5 -46 q-24 -21.5 -59 -29.5 q65 -3 106 -27 q41 -24 41 -74 q0 -12 -3 -27 l-16 -80 q-2 -8 -2 -20 q0 -11 5 -16 q5 -5 17 -5 q20 0 37.5 23.5 q17.5 23.5 36.5 78.5 l12 37 l19 0 l-24 -73 q-4 -10 -5 -15 q-31 -93 -52.5 -143 q-21.5 -50 -45 -76 q-23.5 -26 -54.5 -26 q-23 0 -39.5 13 q-16.5 13 -35.5 38 q-17 21 -29.5 31.5 q-12.5 10.5 -28.5 10.5 q8 -21 8 -34 q0 -25 -16.5 -39.5 q-16.5 -14.5 -37.5 -14.5 q-15 0 -24 9 q-9 9 -9 27 q0 25 23 45 q23 20 56 20 q23 0 41 -6 q18 -6 43 -18 q26 -11 40.5 -16 q14.5 -5 32.5 -5 q29 0 47.5 28.5 q18.5 28.5 42.5 95.5 q-31 -28 -76 -28 q-29 0 -47 16 q-18 16 -18 49 q0 15 4 30 l14 66 q4 19 4 37 q0 38 -28 57.5 q-28 19.5 -94 24.5 l-77 -266 l-86 0 l134 429 q9 23 9 39 q0 23 -21 23 q-22 0 -41 -23.5 q-19 -23.5 -40 -78.5 l-14 -37 l-19 0 l27 73 q22 57 55 80 q33 23 70 23 q30 0 42.5 -14 q12.5 -14 12.5 -40 q0 -29 -17 -86 l-32 -111 q48 3 79 23 q31 20 47.5 47.5 q16.5 27.5 34.5 70.5 q14 33 26 53.5 q12 20.5 29 33.5 q31 23 60 23 Z" /><glyph glyph-name="uni04A3" unicode="&#x4a3;" d="M518 162 l19 0 l-25 -73 q-2 -6 -4 -10 q-32 -96 -53 -146.5 q-21 -50.5 -44.5 -77 q-23.5 -26.5 -55.5 -26.5 q-23 0 -39.5 13 q-16.5 13 -35.5 38 q-17 21 -29.5 31.5 q-12.5 10.5 -28.5 10.5 q8 -21 8 -34 q0 -25 -16.5 -39.5 q-16.5 -14.5 -37.5 -14.5 q-15 0 -24 9 q-9 9 -9 27 q0 25 23 45 q23 20 56 20 q23 0 41 -6 q18 -6 43 -18 q26 -11 40.5 -16 q14.5 -5 32.5 -5 q30 0 47.5 29 q17.5 29 43.5 99 q-32 -32 -79 -32 q-16 0 -30 7 q-14 7 -21 20 q-6 14 -6 31 q0 26 14 82 l34 133 l-196 0 l-65 -259 l-87 0 l120 429 q7 23 7 37 q0 25 -21 25 q-22 0 -40.5 -23.5 q-18.5 -23.5 -37.5 -78.5 l-13 -37 l-19 0 l25 73 q36 103 121 103 q57 0 57 -59 q0 -29 -14 -81 l-28 -109 l196 0 l59 235 q57 2 91 14 l-124 -443 q-7 -26 -7 -39 q0 -23 21 -23 q22 0 40.5 23.5 q18.5 23.5 37.5 78.5 l13 37 Z" /><glyph glyph-name="uni04AF" unicode="&#x4af;" d="M510 512 q44 0 77 3 l-5 -20 q-21 -2 -40.5 -18 q-19.5 -16 -42.5 -52 l-206 -327 l-43 -173 q-8 -32 -8 -48 q0 -22 14.5 -29 q14.5 -7 52.5 -9 l-5 -20 q-45 3 -126 3 q-85 0 -129 -3 l5 20 q37 2 55 8 q18 6 28.5 23 q10.5 17 19.5 55 l39 158 l-58 355 q-6 34 -17.5 45 q-11.5 11 -26.5 11 l5 21 q50 -4 87 -4 q76 0 131 4 l-5 -21 q-29 0 -45 -2.5 q-16 -2.5 -26.5 -14.5 q-10.5 -12 -10.5 -37 q0 -6 2 -24 l47 -304 l182 289 q25 41 25 59 q0 16 -15.5 24.5 q-15.5 8.5 -48.5 10.5 l5 20 q51 -3 83 -3 Z" /><glyph glyph-name="uni04B1" unicode="&#x4b1;" d="M510 512 q44 0 77 3 l-5 -20 q-21 -2 -40.5 -18 q-19.5 -16 -42.5 -52 l-206 -327 l-15 -59 l125 0 l-4 -20 l-126 0 l-23 -94 q-8 -32 -8 -48 q0 -22 14.5 -29 q14.5 -7 52.5 -9 l-5 -20 q-45 3 -126 3 q-85 0 -129 -3 l5 20 q37 2 55 8 q18 6 28.5 23 q10.5 17 19.5 55 l23 94 l-124 0 l4 20 l125 0 l11 44 l-58 355 q-6 34 -17.5 45 q-11.5 11 -26.5 11 l5 21 q50 -4 87 -4 q76 0 131 4 l-5 -21 q-29 0 -45 -2.5 q-16 -2.5 -26.5 -14.5 q-10.5 -12 -10.5 -37 q0 -6 2 -24 l47 -304 l182 289 q25 41 25 59 q0 16 -15.5 24.5 q-15.5 8.5 -48.5 10.5 l5 20 q51 -3 83 -3 Z" /><glyph glyph-name="uni04CA" unicode="&#x4ca;" d="M419 106 q-8 -32 -8 -47 q0 -23 15.5 -31 q15.5 -8 53.5 -8 l31 0 q-24 -65 -75.5 -122.5 q-51.5 -57.5 -124.5 -93.5 l-12 17 q55 48 78.5 77 q23.5 29 23.5 49 q0 13 -9 23.5 q-9 10.5 -27 21.5 q-18 12 -25 21 q-7 9 -7 28 q0 24 15 85 l34 133 l-196 0 l-65 -259 l-87 0 l120 429 q7 26 7 37 q0 25 -22 25 q-22 0 -40 -24.5 q-18 -24.5 -37 -77.5 l-13 -37 l-19 0 l25 73 q20 57 52 80 q32 23 67 23 q32 0 45.5 -15.5 q13.5 -15.5 13.5 -43.5 q0 -27 -14 -81 l-28 -109 l196 0 l59 235 q57 2 91 14 l-118 -422 Z" /><glyph glyph-name="uni04E9" unicode="&#x4e9;" d="M310 528 q64 0 100.5 -39.5 q36.5 -39.5 36.5 -117.5 q0 -79 -35 -169.5 q-35 -90.5 -101 -153 q-66 -62.5 -153 -62.5 q-64 0 -100.5 39.5 q-36.5 39.5 -36.5 117.5 q0 79 35 169.5 q35 90.5 101 153 q66 62.5 153 62.5 ZM304 508 q-52 0 -98 -66.5 q-46 -66.5 -73 -166.5 l211 0 q17 76 17 146 q0 45 -14 66 q-14 21 -43 21 ZM164 6 q54 0 102 72 q48 72 74 177 l-212 0 q-21 -87 -21 -162 q0 -45 14 -66 q14 -21 43 -21 Z" /><glyph glyph-name="uni0394" unicode="&#x394;" d="M465 0 q-109 3 -220 3 q-111 0 -222 -3 l233 722 l16 0 l193 -722 ZM53 30 l304 0 l-141 512 l-163 -512 Z" /><glyph glyph-name="uni03A9" unicode="&#x3a9;" d="M405 722 q138 0 213 -66 q75 -66 75 -184 q0 -56 -16 -105 q-16 -49 -40.5 -89 q-24.5 -40 -67.5 -102 q-64 -89 -98 -153 l48 0 q50 0 79 16 q29 16 44 51.5 q15 35.5 21 99.5 l23 0 q-3 -27 -3 -72 q0 -52 7 -118 q-29 3 -102 3 l-79 -1 q-38 -2 -63 -2 l0 16 q56 83 101.5 195.5 q45.5 112.5 45.5 240.5 q0 124 -44 188 q-44 64 -144 64 q-100 0 -144 -64 q-44 -64 -44 -188 q0 -128 45.5 -240.5 q45.5 -112.5 101.5 -195.5 l0 -16 q-25 0 -63 2 l-79 1 q-73 0 -102 -3 q7 66 7 118 q0 45 -3 72 l23 0 q6 -64 21 -99.5 q15 -35.5 44 -51.5 q29 -16 79 -16 l48 0 q-34 64 -98 153 q-43 62 -67.5 102 q-24.5 40 -40.5 89 q-16 49 -16 105 q0 118 75 184 q75 66 213 66 Z" /><glyph glyph-name="uni03BC" unicode="&#x3bc;" d="M583 220 q-30 -83 -79.5 -158.5 q-49.5 -75.5 -111.5 -75.5 q-51 0 -51 58 q0 26 15 82 q-38 -61 -84.5 -100.5 q-46.5 -39.5 -100.5 -39.5 q-64 0 -64 68 q0 9 2 25 q-53 -157 -98 -228 q-25 -39 -65 -39 q-17 0 -26 9 q-9 9 -9 23 q0 16 9 29 q9 13 33 37 l18 18 q69 70 108.5 142 q39.5 72 60.5 177 q41 208 47 228 q10 29 27.5 41.5 q17.5 12.5 37.5 12.5 q31 0 31 -29 q0 -8 -1 -13 q-3 -15 -13 -33.5 q-10 -18.5 -28 -45.5 q-25 -40 -39.5 -64.5 q-14.5 -24.5 -27.5 -57.5 q-29 -80 -29 -127 q0 -40 18 -53 q18 -13 44 -13 q55 0 97.5 29.5 q42.5 29.5 79.5 95.5 l12 39 q17 95 16 87 q21 114 27 131 q10 29 27.5 41.5 q17.5 12.5 37.5 12.5 q31 0 31 -29 q0 -18 -7.5 -34 q-7.5 -16 -25.5 -43 q-25 -36 -45.5 -75 q-20.5 -39 -41.5 -99 q-16 -54 -23 -81 q-6 -21 -6 -35 q0 -40 42 -40 q40 0 72.5 30.5 q32.5 30.5 64.5 100.5 l18 -4 Z" /><glyph glyph-name="pi" unicode="&#x3c0;" d="M343 168 q-6 -19 -6 -35 q0 -40 42 -40 q40 0 72.5 30.5 q32.5 30.5 64.5 100.5 l18 -4 q-30 -83 -79.5 -158.5 q-49.5 -75.5 -111.5 -75.5 q-50 0 -50 57 q0 30 14 77 l93 309 l-108 0 q-38 -167 -88.5 -269 q-50.5 -102 -90.5 -147 q-24 -27 -59 -27 q-16 0 -25.5 9 q-9.5 9 -9.5 24 q0 22 13 36.5 q13 14.5 45 38.5 q22 16 34 26 q37 30 62.5 60 q25.5 30 50.5 89.5 q25 59.5 49 159.5 l-37 0 q-44 0 -75 -10 q-31 -10 -59 -40 q-28 -30 -57 -87 l-16 4 q47 110 113 163.5 q66 53.5 179 53.5 l288 0 l-15 -84 l-175 0 l-76 -261 Z" /><glyph glyph-name="zero" unicode="0" d="M356 529 q76 0 116.5 -46.5 q40.5 -46.5 40.5 -130.5 q0 -89 -43.5 -174 q-43.5 -85 -117 -138.5 q-73.5 -53.5 -157.5 -53.5 q-77 0 -120.5 46 q-43.5 46 -43.5 132 q0 89 45.5 174 q45.5 85 120.5 138 q75 53 159 53 ZM337 511 q-54 0 -103.5 -50.5 q-49.5 -50.5 -80 -133 q-30.5 -82.5 -30.5 -172.5 q0 -151 91 -151 q56 0 103.5 53 q47.5 53 75.5 137.5 q28 84.5 28 172.5 q0 77 -22 110.5 q-22 33.5 -62 33.5 Z" /><glyph glyph-name="one" unicode="1" d="M159 0 l-87 0 l128 433 q-58 -33 -150 -61 l3 21 q83 25 133.5 56 q50.5 31 107.5 77 l20 0 l-155 -526 Z" /><glyph glyph-name="two" unicode="2" d="M304 528 q62 0 98.5 -26 q36.5 -26 36.5 -73 q0 -49 -39.5 -99.5 q-39.5 -50.5 -92.5 -92.5 q-53 -42 -129 -95 q-56 -39 -75 -55 q27 0 103 -14 q78 -14 109 -14 q69 0 69 48 q0 37 -44 57 l13 13 q55 -26 55 -79 q0 -43 -31.5 -73.5 q-31.5 -30.5 -93.5 -30.5 q-21 0 -41 3.5 q-20 3.5 -49 10.5 q-31 8 -55.5 12 q-24.5 4 -51.5 4 q-29 0 -52.5 -5.5 q-23.5 -5.5 -54.5 -18.5 l5 21 q11 9 32 23.5 q21 14.5 33 23.5 q86 61 146.5 110.5 q60.5 49.5 106.5 112.5 q46 63 46 127 q0 41 -20 64.5 q-20 23.5 -57 23.5 q-36 0 -76.5 -24 q-40.5 -24 -67.5 -61.5 q-27 -37.5 -27 -75.5 q0 -25 13.5 -36.5 q13.5 -11.5 44.5 -11.5 q26 0 46.5 9.5 q20.5 9.5 45.5 31.5 l12 -14 q-26 -25 -55 -36.5 q-29 -11.5 -56 -11.5 q-31 0 -53 15 q-22 15 -22 53 q0 44 31.5 87 q31.5 43 84 70 q52.5 27 112.5 27 Z" /><glyph glyph-name="three" unicode="3" d="M303 531 q62 0 98.5 -26 q36.5 -26 36.5 -73 q0 -43 -31.5 -80 q-31.5 -37 -79.5 -63.5 q-48 -26.5 -96 -38.5 q70 -2 115 -31.5 q45 -29.5 45 -82.5 q0 -86 -75.5 -151 q-75.5 -65 -186 -99.5 q-110.5 -34.5 -209.5 -36.5 l5 18 q86 5 172 38.5 q86 33.5 143.5 94.5 q57.5 61 57.5 143 q0 40 -22.5 64.5 q-22.5 24.5 -62.5 26.5 q-16 -7 -31.5 -12 q-15.5 -5 -26.5 -5 q-22 0 -17 15 q4 19 48 19 l19 -1 q62 24 104.5 69.5 q42.5 45.5 42.5 99.5 q0 42 -22 66 q-22 24 -60 24 q-34 0 -72 -19.5 q-38 -19.5 -63.5 -50 q-25.5 -30.5 -25.5 -61.5 q0 -25 13.5 -36.5 q13.5 -11.5 44.5 -11.5 q33 0 62 15 l11 -15 q-39 -21 -80 -21 q-31 0 -53 15 q-22 15 -22 53 q0 36 30 72 q30 36 80 59 q50 23 108 23 Z" /><glyph glyph-name="four" unicode="4" d="M418 34 l-133 0 l-47 -175 l-87 0 l47 175 l-249 0 l6 21 l436 474 l26 0 l-117 -438 l134 0 l-16 -57 ZM213 91 l82 307 l-281 -307 l199 0 Z" /><glyph glyph-name="five" unicode="5" d="M439 531 q-51 -110 -137 -110 q-22 0 -56 19 q-3 2 -15.5 7.5 q-12.5 5.5 -22.5 7.5 q-10 2 -17 1 l-112 -229 q32 17 65.5 25.5 q33.5 8.5 74.5 8.5 q77 0 115 -31 q38 -31 38 -83 q0 -92 -73 -157.5 q-73 -65.5 -179 -100 q-106 -34.5 -201 -37.5 l5 18 q81 1 163 33.5 q82 32.5 136 95 q54 62.5 54 146.5 q0 40 -26 63 q-26 23 -79 23 q-52 0 -111 -27 l-10 5 l150 309 q30 1 65 -11 q40 -14 78 -14 q57 0 83 45 l12 -7 Z" /><glyph glyph-name="six" unicode="6" d="M530 702 q-96 -23 -189.5 -105 q-93.5 -82 -153.5 -203.5 q-60 -121.5 -60 -256.5 q0 -73 18 -102 q18 -29 54 -29 q53 0 94 49 q41 49 63.5 120 q22.5 71 22.5 133 q0 101 -65 101 q-33 0 -64 -28.5 q-31 -28.5 -54 -93.5 l-16 6 q25 78 70.5 111.5 q45.5 33.5 96.5 33.5 q57 0 91.5 -39.5 q34.5 -39.5 34.5 -110.5 q0 -77 -40 -147 q-40 -70 -107 -112.5 q-67 -42.5 -143 -42.5 q-75 0 -111 45 q-36 45 -36 134 q0 142 80.5 263 q80.5 121 195.5 198.5 q115 77.5 212 95.5 l6 -20 Z" /><glyph glyph-name="seven" unicode="7" d="M541 514 q-23 -32 -94 -113 q-66 -76 -110.5 -133.5 q-44.5 -57.5 -84.5 -130.5 q-40 -73 -62 -155 q-4 -14 -12 -53 l-5 -26 q-6 -22 -22.5 -36.5 q-16.5 -14.5 -39.5 -14.5 q-31 0 -31 34 q0 6 2 22 q11 64 58.5 141.5 q47.5 77.5 106 149 q58.5 71.5 142.5 165.5 q63 70 90 104 q-63 -42 -146 -42 q-28 0 -50.5 4 q-22.5 4 -49.5 12 q-45 13 -74 13 q-39 0 -62.5 -17 q-23.5 -17 -23.5 -50 q0 -42 34 -70 q34 -28 105 -45 l-6 -15 q-157 30 -157 141 q0 30 15.5 58 q15.5 28 47 45.5 q31.5 17.5 78.5 17.5 q30 0 54.5 -6 q24.5 -6 63.5 -19 q35 -13 59.5 -19 q24.5 -6 53.5 -6 q31 0 53.5 9.5 q22.5 9.5 40.5 34.5 l26 0 Z" /><glyph glyph-name="eight" unicode="8" d="M537 616 q0 -114 -198 -220 q40 -38 63 -64.5 q23 -26.5 39.5 -61.5 q16.5 -35 16.5 -77 q0 -62 -36 -109 q-36 -47 -98 -72.5 q-62 -25.5 -137 -25.5 q-81 0 -129 32 q-48 32 -48 97 q0 82 70 147 q70 65 169 108 q-45 44 -68.5 81.5 q-23.5 37.5 -23.5 86.5 q0 54 34.5 96 q34.5 42 89.5 65 q55 23 115 23 q63 0 102 -26.5 q39 -26.5 39 -79.5 ZM328 407 q54 36 91 93.5 q37 57.5 37 118.5 q0 85 -78 85 q-37 0 -69 -18.5 q-32 -18.5 -50.5 -51.5 q-18.5 -33 -18.5 -74 q0 -42 22.5 -77 q22.5 -35 65.5 -76 ZM369 172 q0 39 -14.5 71 q-14.5 32 -36 56.5 q-21.5 24.5 -57.5 59.5 q-72 -40 -117.5 -109 q-45.5 -69 -45.5 -144 q0 -48 22.5 -75 q22.5 -27 75.5 -27 q45 0 85 20 q40 20 64 58.5 q24 38.5 24 89.5 Z" /><glyph glyph-name="nine" unicode="9" d="M319 528 q75 0 111 -45 q36 -45 36 -134 q0 -137 -78.5 -254 q-78.5 -117 -191.5 -191.5 q-113 -74.5 -208 -91.5 l-6 20 q94 22 185 101 q91 79 149.5 196.5 q58.5 117.5 58.5 247.5 q0 73 -18 102 q-18 29 -54 29 q-53 0 -94 -49 q-41 -49 -63.5 -120 q-22.5 -71 -22.5 -133 q0 -101 65 -101 q33 0 64 28.5 q31 28.5 54 93.5 l16 -6 q-25 -78 -70.5 -111.5 q-45.5 -33.5 -96.5 -33.5 q-57 0 -91.5 39.5 q-34.5 39.5 -34.5 110.5 q0 77 40 147 q40 70 107 112.5 q67 42.5 143 42.5 Z" /><glyph glyph-name="onesuperior" unicode="¹" d="M215 437 l-59 0 l81 251 q-31 -18 -58.5 -30.5 q-27.5 -12.5 -67.5 -23.5 l5 19 q63 19 99.5 41.5 q36.5 22.5 81.5 58.5 l19 0 l-101 -316 Z" /><glyph glyph-name="twosuperior" unicode="²" d="M294 754 q37 0 58 -14 q21 -14 21 -43 q0 -44 -39.5 -82.5 q-39.5 -38.5 -110.5 -87.5 q-36 -25 -51 -37 q22 0 63 -9 q6 -1 28 -5 q22 -4 35 -4 q21 0 34 9.5 q13 9.5 13 25.5 q0 11 -4 19 l17 7 q10 -15 10 -32 q0 -29 -24 -48.5 q-24 -19.5 -66 -19.5 q-19 0 -57 8 q-42 10 -75 10 q-19 0 -32 -3 q-13 -3 -33 -11 l4 18 l36 23 q84 53 138.5 101 q54.5 48 54.5 98 q0 43 -54 43 q-62 0 -107 -52 l-14 11 q26 32 66 53.5 q40 21.5 89 21.5 Z" /><glyph glyph-name="threesuperior" unicode="³" d="M299 754 q36 0 58 -13.5 q22 -13.5 22 -40.5 q0 -39 -44.5 -70.5 q-44.5 -31.5 -94.5 -43.5 q47 -2 78 -19.5 q31 -17.5 31 -54.5 q0 -47 -48 -83 q-48 -36 -119 -57 q-71 -21 -139 -26 l0 18 q60 5 117 25 q57 20 93 53.5 q36 33.5 36 77.5 q0 50 -55 52 q-19 -10 -32 -10 q-7 0 -12.5 3 q-5.5 3 -5.5 10 q0 19 44 17 q43 16 68 40 q25 24 25 54 q0 18 -12.5 27.5 q-12.5 9.5 -34.5 9.5 q-60 0 -116 -56 l-14 12 q25 29 66.5 52 q41.5 23 88.5 23 Z" /><glyph glyph-name="fraction" unicode="&#x2044;" d="M477 811 l-833 -866 l-15 13 l833 866 l15 -13 Z" /><glyph glyph-name="period" unicode="." d="M-1 37 q0 30 22.5 53.5 q22.5 23.5 51.5 23.5 q23 0 37 -15 q14 -15 14 -37 q0 -30 -23 -53 q-23 -23 -52 -23 q-22 0 -36 14.5 q-14 14.5 -14 36.5 Z" /><glyph glyph-name="comma" unicode="," d="M129 55 q0 -53 -39.5 -104.5 q-39.5 -51.5 -107.5 -84.5 l-5 14 q47 29 75 63 q28 34 31 68 q-29 -25 -52 -25 q-18 0 -28 9.5 q-10 9.5 -10 25.5 q0 21 13.5 43 q13.5 22 35 36 q21.5 14 43.5 14 q22 0 33 -17 q11 -17 11 -42 Z" /><glyph glyph-name="exclam" unicode="!" d="M94 199 q21 79 36 158.5 q15 79.5 32 185.5 q3 20 15 89 q12 69 24 111 q5 19 17 29 q12 10 28 10 q22 0 34 -11.5 q12 -11.5 12 -28.5 q0 -13 -4 -22 q-13 -45 -56 -161 q-39 -103 -68 -189 q-29 -86 -52 -174 l-18 3 ZM7 37 q0 30 22.5 53.5 q22.5 23.5 51.5 23.5 q23 0 37 -15 q14 -15 14 -37 q0 -30 -23 -53 q-23 -23 -52 -23 q-22 0 -36 14.5 q-14 14.5 -14 36.5 Z" /><glyph glyph-name="exclamdown" unicode="¡" d="M106 451 q0 30 22.5 53.5 q22.5 23.5 51.5 23.5 q23 0 37 -15 q14 -15 14 -37 q0 -30 -23 -53 q-23 -23 -52 -23 q-22 0 -36 14.5 q-14 14.5 -14 36.5 ZM142 316 q-17 -68 -29 -135 q-12 -67 -27 -162 q-2 -13 -11.5 -72 q-9.5 -59 -19.5 -96 q-4 -19 -16.5 -29 q-12.5 -10 -28.5 -10 q-23 0 -34.5 11 q-11.5 11 -11.5 30 q0 7 4 21 q11 37 51 140 q35 90 60 161 q25 71 45 144 l18 -3 Z" /><glyph glyph-name="question" unicode="?" d="M311 765 q-33 0 -64.5 -13 q-31.5 -13 -39.5 -36 q9 -2 17 -13.5 q8 -11.5 8 -26.5 q0 -21 -15.5 -35 q-15.5 -14 -37.5 -14 q-20 0 -30 11.5 q-10 11.5 -10 30.5 q0 32 27 58 q27 26 71 40.5 q44 14.5 90 14.5 q67 0 107.5 -31 q40.5 -31 40.5 -87 q0 -48 -36.5 -97.5 q-36.5 -49.5 -128.5 -120.5 q-6 -5 -53 -40 q-62 -45 -85 -70.5 q-23 -25.5 -23 -61.5 q0 -30 17 -49.5 q17 -19.5 54 -19.5 q30 0 58 12 q28 12 38 32 q-10 1 -18.5 11.5 q-8.5 10.5 -7.5 23.5 q0 16 13 28.5 q13 12.5 32 12.5 q15 0 24.5 -8.5 q9.5 -8.5 9.5 -26.5 q0 -30 -26 -53 q-26 -23 -65 -36 q-39 -13 -77 -13 q-52 0 -83.5 25 q-31.5 25 -31.5 72 q0 36 19.5 67.5 q19.5 31.5 50 57.5 q30.5 26 85.5 67 l31 23 q74 56 102 91 q28 35 28 80 q0 43 -23 68.5 q-23 25.5 -68 25.5 ZM107 37 q0 30 22.5 53.5 q22.5 23.5 51.5 23.5 q23 0 37 -15 q14 -15 14 -37 q0 -30 -23 -53 q-23 -23 -52 -23 q-22 0 -36 14.5 q-14 14.5 -14 36.5 Z" /><glyph glyph-name="questiondown" unicode="¿" d="M200 451 q0 30 22.5 53.5 q22.5 23.5 51.5 23.5 q23 0 37 -15 q14 -15 14 -37 q0 -30 -23 -53 q-23 -23 -52 -23 q-22 0 -36 14.5 q-14 14.5 -14 36.5 ZM123 -171 q39 0 76.5 13 q37.5 13 46.5 36 q-9 2 -17 13.5 q-8 11.5 -8 26.5 q0 21 15.5 35 q15.5 14 37.5 14 q20 0 30 -11.5 q10 -11.5 10 -30.5 q0 -32 -30 -58 q-30 -26 -78.5 -40.5 q-48.5 -14.5 -101.5 -14.5 q-66 0 -106 25.5 q-40 25.5 -40 72.5 q0 30 15.5 55 q15.5 25 49 52 q33.5 27 100.5 71 l34 24 q59 41 81 64 q22 23 22 55 q0 28 -19 48 q-19 20 -49 20 q-32 0 -62.5 -12 q-30.5 -12 -42.5 -32 q10 -1 18.5 -11.5 q8.5 -10.5 7.5 -23.5 q0 -16 -13 -28.5 q-13 -12.5 -32 -12.5 q-34 0 -34 35 q0 30 27.5 53 q27.5 23 69 36 q41.5 13 81.5 13 q52 0 83.5 -25 q31.5 -25 31.5 -71 q0 -33 -17.5 -60.5 q-17.5 -27.5 -45.5 -50.5 q-28 -23 -80 -60 l-23 -16 q-71 -47 -98 -74.5 q-27 -27.5 -27 -61.5 q0 -29 23 -48.5 q23 -19.5 64 -19.5 Z" /><glyph glyph-name="bullet" unicode="&#x2022;" d="M67 234 q0 42 22 78.5 q22 36.5 58.5 58 q36.5 21.5 77.5 21.5 q55 0 92 -36.5 q37 -36.5 37 -90.5 q0 -42 -22 -78.5 q-22 -36.5 -58.5 -58 q-36.5 -21.5 -77.5 -21.5 q-55 0 -92 36.5 q-37 36.5 -37 90.5 Z" /><glyph glyph-name="asterisk" unicode="*" d="M510 623 q2 -6 2 -9 q0 -12 -10.5 -25 q-10.5 -13 -32.5 -24 q-19 -9 -46 -17 q-27 -8 -58 -15 l-55 -14 q45 -13 55 -16 q26 -8 49 -15.5 q23 -7.5 35 -15.5 q24 -15 24 -36 q0 -13 -9 -24 q-11 -16 -31 -16 q-15 0 -33 12 q-13 8 -24 20 q-11 12 -30 36 q-21 27 -38 46 l3 -64 q2 -38 2 -52 q0 -13 -2 -33 q-7 -28 -21 -41 q-14 -13 -30 -13 q-11 0 -18.5 7.5 q-7.5 7.5 -7.5 24.5 q0 10 3 22 q3 20 14 44.5 q11 24.5 33 68.5 l20 41 l-1 0 q-16 -13 -29 -24 q-13 -11 -23 -19 q-25 -21 -47.5 -38.5 q-22.5 -17.5 -38.5 -26.5 q-22 -11 -39 -11 q-20 0 -27 17 q-2 6 -2 9 q0 25 43 49 q18 9 45 16.5 q27 7.5 57 15.5 q40 9 56 14 q-9 3 -56 17 q-33 9 -51.5 15.5 q-18.5 6.5 -30.5 14.5 q-24 15 -24 36 q0 14 9 24 q11 16 31 16 q15 0 33 -12 q13 -8 24 -20 q11 -12 31 -37 q27 -34 40 -49 q-2 20 -2 28 q-6 70 -6 89 q0 20 3 36 q6 28 20 41 q14 13 29 13 q12 0 19.5 -8 q7.5 -8 7.5 -24 q0 -10 -3 -22 q-3 -18 -11.5 -38.5 q-8.5 -20.5 -26.5 -58.5 q-7 -14 -25 -54 q11 9 24 19.5 q13 10.5 26 21.5 q24 20 46.5 37.5 q22.5 17.5 38.5 26.5 q22 11 39 11 q20 0 27 -17 Z" /><glyph glyph-name="numbersign" unicode="#" d="M481 434 l-77 -167 l143 0 l-10 -20 l-142 0 l-68 -146 l-24 0 l68 146 l-163 0 l-68 -146 l-24 0 l68 146 l-147 0 l9 20 l147 0 l77 167 l-146 0 l8 20 l147 0 l69 148 l24 0 l-69 -148 l163 0 l69 148 l24 0 l-69 -148 l143 0 l-8 -20 l-144 0 ZM457 434 l-163 0 l-77 -167 l163 0 l77 167 Z" /><glyph glyph-name="slash" unicode="/" d="M508 722 l33 0 l-548 -736 l-33 0 l548 736 Z" /><glyph glyph-name="backslash" unicode="\" d="M391 -14 l-33 0 l-226 736 l31 0 l228 -736 Z" /><glyph glyph-name="parenright" unicode=")" d="M163 806 q84 -95 126.5 -188 q42.5 -93 42.5 -217 q0 -108 -56 -216.5 q-56 -108.5 -154 -202.5 q-98 -94 -223 -164 l-10 13 q176 118 271 259.5 q95 141.5 95 321.5 q0 226 -110 381 l18 13 Z" /><glyph glyph-name="braceright" unicode="}" d="M148 782 q73 0 103.5 -28 q30.5 -28 30.5 -80 q0 -24 -5.5 -52.5 q-5.5 -28.5 -15.5 -70.5 q-33 -133 -33 -184 q1 -30 12 -43.5 q11 -13.5 35 -15.5 l5 0 l-3 -18 l-5 0 q-32 -3 -53.5 -24.5 q-21.5 -21.5 -40.5 -71.5 q-19 -50 -43 -147 q-24 -93 -52.5 -143.5 q-28.5 -50.5 -69.5 -71 q-41 -20.5 -105 -20.5 l5 19 q35 1 54 14.5 q19 13.5 36.5 57.5 q17.5 44 41.5 144 q30 122 82 177 q52 55 123 75 q-96 28 -96 137 q0 45 17 115 q29 118 29 158 q0 31 -13 42 q-13 11 -44 12 l5 19 Z" /><glyph glyph-name="bracketright" unicode="]" d="M87 -181 l-170 0 l4 19 l81 0 l229 915 l-81 0 l4 19 l170 0 l-237 -953 Z" /><glyph glyph-name="hyphen" unicode="-" d="M429 283 l-15 -58 l-361 0 l15 58 l361 0 Z" /><glyph glyph-name="uni00AD" unicode="­" d="" /><glyph glyph-name="endash" unicode="&#x2013;" d="M661 284 l-11 -40 l-600 0 l10 40 l601 0 Z" /><glyph glyph-name="emdash" unicode="&#x2014;" d="M935 284 l-11 -40 l-874 0 l10 40 l875 0 Z" /><glyph glyph-name="quotedblbase" unicode="&#x201e;" d="M120 55 q0 -53 -39.5 -104.5 q-39.5 -51.5 -107.5 -84.5 l-5 14 q47 29 75 63 q28 34 31 68 q-29 -25 -52 -25 q-13 0 -20.5 9.5 q-7.5 9.5 -7.5 25.5 q0 21 12 43 q12 22 31 36 q19 14 39 14 q44 0 44 -59 ZM286 55 q0 -53 -39.5 -104.5 q-39.5 -51.5 -107.5 -84.5 l-5 14 q47 29 75 63 q28 34 31 68 q-29 -25 -52 -25 q-13 0 -20.5 9.5 q-7.5 9.5 -7.5 25.5 q0 21 12 43 q12 22 31 36 q19 14 39 14 q44 0 44 -59 Z" /><glyph glyph-name="quoteright" unicode="&#x2019;" d="M277 651 q0 -53 -39.5 -104.5 q-39.5 -51.5 -107.5 -84.5 l-5 14 q47 29 75 63 q28 34 31 68 q-29 -25 -52 -25 q-18 0 -28 9.5 q-10 9.5 -10 25.5 q0 21 13.5 43 q13.5 22 35 36 q21.5 14 43.5 14 q22 0 33 -17 q11 -17 11 -42 Z" /><glyph glyph-name="guillemotleft" unicode="«" d="M318 528 q-33 -69 -99 -157 q-66 -88 -120 -127 q41 -34 83.5 -114.5 q42.5 -80.5 57.5 -143.5 l-18 0 q-87 171 -198 257 l0 2 q77 54 144 124 q67 70 132 159 l18 0 ZM483 528 q-30 -67 -97 -155.5 q-67 -88.5 -122 -128.5 q41 -34 83.5 -114.5 q42.5 -80.5 57.5 -143.5 l-18 0 q-87 171 -198 257 l0 2 q77 54 144 124 q67 70 132 159 l18 0 Z" /><glyph glyph-name="guillemotright" unicode="»" d="M111 528 q88 -173 198 -258 l0 -1 q-77 -54 -144 -124 q-67 -70 -132 -159 l-18 0 q33 69 99 157 q66 88 120 127 q-41 34 -83.5 114.5 q-42.5 80.5 -57.5 143.5 l18 0 ZM276 528 q88 -173 198 -258 l0 -1 q-77 -54 -144 -124 q-67 -70 -132 -159 l-18 0 q33 69 99 157 q66 88 120 127 q-41 34 -83.5 114.5 q-42.5 80.5 -57.5 143.5 l18 0 Z" /><glyph glyph-name="guilsinglleft" unicode="&#x2039;" d="M318 528 q-33 -69 -99 -157 q-66 -88 -120 -127 q41 -34 83.5 -114.5 q42.5 -80.5 57.5 -143.5 l-18 0 q-87 171 -198 257 l0 2 q77 54 144 124 q67 70 132 159 l18 0 Z" /><glyph glyph-name="guilsinglright" unicode="&#x203a;" d="M111 528 q88 -173 198 -258 l0 -1 q-77 -54 -144 -124 q-67 -70 -132 -159 l-18 0 q33 69 99 157 q66 88 120 127 q-41 34 -83.5 114.5 q-42.5 80.5 -57.5 143.5 l18 0 Z" /><glyph glyph-name="quotesingle" unicode="&#39;" d="M233 697 q0 -18 -7.5 -36 q-7.5 -18 -25.5 -51 q-26 -45 -46 -92 l-14 0 q7 53 11 100 q3 43 9 70 q5 21 16.5 31.5 q11.5 10.5 25.5 10.5 q16 0 23.5 -9 q7.5 -9 7.5 -24 Z" /><glyph glyph-name="nonbreakingspace" unicode=" " d="" /><glyph glyph-name="uni2009" unicode="&#x2009;" d="" /><glyph glyph-name="cent" unicode="¢" d="M317 528 q46 0 77 -23 q31 -23 31 -62 q0 -31 -20 -55.5 q-20 -24.5 -51 -24.5 q-20 0 -30.5 11 q-10.5 11 -10.5 28 q0 28 22 48.5 q22 20.5 53 26.5 q-21 31 -68 31 q-7 0 -19 -2 l-129 -478 l6 0 q82 0 150 100 l20 -8 q-30 -52 -80.5 -90.5 q-50.5 -38.5 -106.5 -42.5 l-45 -168 l-22 0 l45 167 q-58 2 -91 39.5 q-33 37.5 -33 107.5 q0 76 33.5 163 q33.5 87 95 152 q61.5 65 140.5 77 l49 183 l22 0 l-48 -180 l10 0 ZM276 498 q-44 -21 -82.5 -77 q-38.5 -56 -62 -134.5 q-23.5 -78.5 -23.5 -162.5 q0 -74 43 -91 l125 465 Z" /><glyph glyph-name="currency" unicode="¤" d="M139 181 q-42 52 -42 119 q0 67 43 120 l-44 44 l28 28 l44 -44 q24 20 55 31 q31 11 64 11 q66 0 119 -43 l45 45 l28 -28 l-45 -45 q42 -53 42 -119 q0 -67 -42 -119 l44 -43 l-28 -29 l-44 44 q-53 -42 -119 -42 q-69 0 -119 41 l-43 -43 l-29 29 l43 43 ZM138 300 q0 -41 20.5 -76 q20.5 -35 54.5 -55.5 q34 -20.5 74 -20.5 q40 0 74 20.5 q34 20.5 54 55.5 q20 35 20 76 q0 40 -20 75.5 q-20 35.5 -54 56.5 q-34 21 -74 21 q-40 0 -74.5 -21 q-34.5 -21 -54.5 -56 q-20 -35 -20 -76 Z" /><glyph glyph-name="dollar" unicode="$" d="M518 664 q19 -15 35.5 -44 q16.5 -29 16.5 -61 q0 -32 -16.5 -55.5 q-16.5 -23.5 -43.5 -23.5 q-25 0 -38 19 q-13 19 -13 46 q0 29 10.5 53.5 q10.5 24.5 28.5 52.5 q-22 22 -57 37 l-87 -314 q55 -51 85 -95 q30 -44 30 -97 q0 -60 -32 -102 q-32 -42 -82.5 -65 q-50.5 -23 -108.5 -28 l-33 -119 l-22 0 l33 118 l-8 0 q-42 0 -72 9 l-35 -127 l-22 0 l37 133 q-29 11 -48.5 26 q-19.5 15 -22.5 17 q-22 17 -37 45 q-15 28 -15 60 q0 32 16.5 55.5 q16.5 23.5 43.5 23.5 q25 0 38 -19 q13 -19 13 -46 q0 -29 -10.5 -53 q-10.5 -24 -28.5 -53 q23 -23 57 -36 l91 330 q-41 42 -63.5 82.5 q-22.5 40.5 -22.5 93.5 q0 83 55 133.5 q55 50.5 134 59.5 l33 120 l22 0 l-33 -118 l9 0 q39 0 71 -8 l35 126 l22 0 l-37 -133 q20 -7 34.5 -16.5 q14.5 -9.5 24.5 -17 q10 -7.5 13 -9.5 ZM421 694 q-30 9 -65 9 l-15 0 l-69 -249 q24 -26 64 -63 l85 303 ZM216 576 q0 -49 39 -102 l63 226 q-47 -9 -74.5 -40 q-27.5 -31 -27.5 -84 ZM229 6 l74 265 q-15 17 -48 47 l-17 16 l-88 -319 q30 -9 69 -9 l10 0 ZM366 131 q0 62 -46 120 l-68 -243 q54 7 84 37.5 q30 30.5 30 85.5 Z" /><glyph glyph-name="Euro" unicode="&#x20ac;" d="M605 687 q29 -27 29 -56 q0 -27 -20.5 -48 q-20.5 -21 -48.5 -21 q-19 0 -30.5 10 q-11.5 10 -11.5 28 q0 23 18 42.5 q18 19.5 44 26.5 q-5 15 -28 25.5 q-23 10.5 -50 10.5 q-73 0 -139.5 -82 q-66.5 -82 -111.5 -206 l203 0 l-17 -20 l-193 0 q-16 -47 -23 -80 l150 0 l-18 -20 l-137 0 q-16 -78 -16 -137 q0 -78 26.5 -117.5 q26.5 -39.5 78.5 -39.5 q30 0 60 11.5 q30 11.5 42 26.5 q-31 6 -31 37 q0 27 21.5 47.5 q21.5 20.5 50.5 20.5 q19 0 30 -10.5 q11 -10.5 11 -27.5 q0 -25 -20 -47.5 q-20 -22.5 -48 -39.5 q-57 -35 -125 -35 q-87 0 -137.5 56 q-50.5 56 -50.5 157 q0 40 10 98 l-85 0 l6 20 l84 0 q9 40 24 80 l-87 0 l6 20 l88 0 q51 130 140.5 217.5 q89.5 87.5 201.5 87.5 q64 0 104 -35 Z" /><glyph glyph-name="florin" unicode="&#x192;" d="M459 782 q46 0 71.5 -20 q25.5 -20 25.5 -51 q0 -27 -19.5 -48 q-19.5 -21 -47.5 -21 q-20 0 -31.5 9.5 q-11.5 9.5 -11.5 25.5 q0 5 2 15 q12 38 57 51 q-1 10 -14 17 q-13 7 -33 7 q-23 0 -42 -10 q-19 -10 -32 -27 q-18 -21 -31.5 -61.5 q-13.5 -40.5 -44.5 -153.5 l0 -1 l167 0 l-5 -20 l-168 0 l-101 -379 q-22 -81 -49.5 -142 q-27.5 -61 -68.5 -100 q-32 -30 -66.5 -45.5 q-34.5 -15.5 -66.5 -15.5 q-27 0 -41 11 q-14 11 -14 28 q0 25 17.5 43 q17.5 18 43.5 18 q16 0 25.5 -9 q9.5 -9 9.5 -23 q0 -5 -2 -13 q-4 -21 -26 -40 q41 5 64.5 29 q23.5 24 38.5 79 l149 559 l-122 0 l5 20 l123 0 l0 1 q25 91 47 137.5 q22 46.5 59 79.5 q26 23 60.5 36.5 q34.5 13.5 71.5 13.5 Z" /><glyph glyph-name="uni20B9" unicode="&#x20b9;" d="M601 688 l-321 0 q123 -19 154 -80 l147 0 l-5 -20 l-135 0 q3 -10 3 -22 q0 -85 -82 -142 q-82 -57 -186 -81 q80 -5 118 -38 q38 -33 33 -98 l-7 -102 q-2 -20 -2 -33 q0 -49 34 -49 q20 0 36.5 21.5 q16.5 21.5 26.5 62.5 l4 14 l19 0 l-4 -13 q-17 -62 -47 -92 q-30 -30 -80 -30 q-87 0 -87 95 l1 16 l7 97 q2 34 2 47 q0 47 -19 68.5 q-19 21.5 -73 26.5 q-32 -12 -52 -12 q-19 0 -19 13 q0 19 28 19 q17 0 49 -9 q55 13 101 45.5 q46 32.5 73 80.5 q27 48 27 106 l0 9 l-230 0 l5 20 l222 0 q-20 80 -167 80 l-33 0 l5 20 l459 0 l-5 -20 Z" /><glyph glyph-name="sterling" unicode="£" d="M502 639 q0 20 13.5 36 q13.5 16 34.5 22 q0 10 -17.5 17 q-17.5 7 -38.5 7 q-60 0 -97.5 -34.5 q-37.5 -34.5 -58.5 -86 q-21 -51.5 -44 -135.5 l-13 -48 l136 0 l-6 -20 l-135 0 l-21 -80 l135 0 l-6 -20 l-135 0 q-20 -62 -55.5 -109.5 q-35.5 -47.5 -99.5 -111.5 q69 32 126 32 q22 0 41 -5 q19 -5 51 -17 q34 -12 54.5 -17.5 q20.5 -5.5 46.5 -5.5 q34 0 60 20.5 q26 20.5 26 53.5 q0 56 -65 69 l6 17 q43 -7 72 -33.5 q29 -26.5 29 -68.5 q0 -33 -20 -64 q-20 -31 -53 -51 q-33 -20 -70 -20 q-31 0 -55.5 12 q-24.5 12 -56.5 35 q-34 24 -58 35.5 q-24 11.5 -56 11.5 q-41 0 -87 -20 q-25 -35 -50.5 -54.5 q-25.5 -19.5 -45.5 -19.5 q-7 0 -10 2 q-3 2 -3 8 q0 16 27.5 38 q27.5 22 71.5 35 q21 40 37 82 q16 42 34 107 l10 39 l-97 0 l6 20 l97 0 l21 80 l-97 0 l6 20 l96 0 l6 22 q36 136 109.5 216.5 q73.5 80.5 192.5 80.5 q51 0 77.5 -19.5 q26.5 -19.5 26.5 -48.5 q0 -25 -18 -44 q-18 -19 -44 -19 q-15 0 -25.5 9.5 q-10.5 9.5 -10.5 24.5 Z" /><glyph glyph-name="yen" unicode="¥" d="M708 722 q29 0 42.5 -15 q13.5 -15 13.5 -38 q0 -25 -15 -47.5 q-15 -22.5 -44 -22.5 q-20 0 -29 11.5 q-9 11.5 -9 28.5 q0 16 9 32.5 q9 16.5 23 29.5 l-3 0 q-27 -1 -55 -22 q-52 -38 -112.5 -122.5 q-60.5 -84.5 -116.5 -218.5 l-10 -41 l141 0 l-5 -20 l-141 0 l-15 -60 l139 0 l-5 -20 l-139 0 l-23 -91 q-8 -34 -8 -48 q0 -22 14.5 -29 q14.5 -7 52.5 -9 l-5 -20 q-45 3 -124 3 q-87 0 -131 -3 l5 20 q36 2 54 8 q18 6 29 23.5 q11 17.5 20 54.5 l23 91 l-141 0 l5 20 l141 0 l15 60 l-139 0 l5 20 l139 0 l11 42 q-16 142 -43 235 q-27 93 -74 93 q-17 0 -28.5 -11 q-11.5 -11 -19.5 -36 l-28 -82 l-22 0 l33 97 q16 47 36.5 67 q20.5 20 61.5 20 q53 0 85.5 -43 q32.5 -43 50.5 -120 q18 -77 31 -199 q37 93 85 168 q48 75 102 129 q65 65 118 65 Z" /><glyph glyph-name="plus" unicode="+" d="M296 370 l67 236 l36 0 l-67 -236 l232 0 l-9 -30 l-232 0 l-67 -235 l-36 0 l67 235 l-233 0 l9 30 l233 0 Z" /><glyph glyph-name="minus" unicode="&#x2212;" d="M98 370 l501 0 l-9 -30 l-501 0 l9 30 Z" /><glyph glyph-name="multiply" unicode="×" d="M250 355 l-125 175 l26 18 l123 -175 l227 177 l16 -22 l-227 -176 l125 -173 l-25 -18 l-124 173 l-224 -174 l-15 22 l223 173 Z" /><glyph glyph-name="divide" unicode="÷" d="M332 483 q0 27 23 49 q23 22 50 22 q19 0 30.5 -11 q11.5 -11 11.5 -29 q0 -28 -23 -49 q-23 -21 -51 -21 q-19 0 -30 11 q-11 11 -11 28 ZM96 370 l501 0 l-9 -30 l-501 0 l9 30 ZM249 195 q0 27 23 49 q23 22 50 22 q19 0 30.5 -11 q11.5 -11 11.5 -29 q0 -28 -23 -49.5 q-23 -21.5 -51 -21.5 q-18 0 -29.5 11.5 q-11.5 11.5 -11.5 28.5 Z" /><glyph glyph-name="equal" unicode="=" d="M119 440 l501 0 l-9 -30 l-501 0 l9 30 ZM79 300 l501 0 l-9 -30 l-501 0 l9 30 Z" /><glyph glyph-name="notequal" unicode="&#x2260;" d="M401 410 l-95 -110 l264 0 l-9 -30 l-281 0 l-121 -140 l-23 16 l107 124 l-183 0 l9 30 l200 0 l95 110 l-264 0 l9 30 l281 0 l121 140 l23 -16 l-107 -124 l183 0 l-9 -30 l-200 0 Z" /><glyph glyph-name="greater" unicode="&gt;" d="M52 184 l460 192 l-370 198 l16 29 l429 -231 l-525 -217 l-10 29 Z" /><glyph glyph-name="less" unicode="&lt;" d="M613 553 l-487 -202 l331 -174 l-16 -32 l-390 210 l552 227 l10 -29 Z" /><glyph glyph-name="approxequal" unicode="&#x2248;" d="M444 370 q-35 0 -59 10 q-24 10 -55 30 q-29 19 -51 28.5 q-22 9.5 -53 9.5 q-65 0 -115 -58 l-13 5 q35 50 86 78.5 q51 28.5 106 28.5 q35 0 59 -10 q24 -10 54 -30 q29 -19 51 -28.5 q22 -9.5 53 -9.5 q65 0 116 58 l12 -5 q-35 -50 -85.5 -78.5 q-50.5 -28.5 -105.5 -28.5 ZM410 237 q-35 0 -59 10 q-24 10 -54 30 q-29 19 -51 28.5 q-22 9.5 -53 9.5 q-65 0 -116 -58 l-12 5 q35 50 85.5 78.5 q50.5 28.5 105.5 28.5 q35 0 59 -10 q24 -10 55 -30 q29 -19 51 -28.5 q22 -9.5 53 -9.5 q65 0 115 58 l13 -5 q-35 -50 -86 -78.5 q-51 -28.5 -106 -28.5 Z" /><glyph glyph-name="asciitilde" unicode="~" d="M420 237 q-35 0 -61.5 10 q-26.5 10 -62.5 30 q-35 19 -58.5 28.5 q-23.5 9.5 -54.5 9.5 q-65 0 -101 -58 l-14 5 q23 50 66.5 78.5 q43.5 28.5 98.5 28.5 q35 0 61.5 -10 q26.5 -10 62.5 -30 q35 -19 58.5 -28.5 q23.5 -9.5 54.5 -9.5 q65 0 101 58 l14 -5 q-23 -50 -66.5 -78.5 q-43.5 -28.5 -98.5 -28.5 Z" /><glyph glyph-name="logicalnot" unicode="¬" d="M103 370 l501 0 l-59 -205 l-36 0 l50 175 l-465 0 l9 30 Z" /><glyph glyph-name="infinity" unicode="&#x221e;" d="M669 476 q61 0 94 -34 q33 -34 33 -84 q0 -54 -41 -87.5 q-41 -33.5 -103 -33.5 q-40 0 -89.5 22.5 q-49.5 22.5 -113.5 64.5 q-91 -47 -145 -69 q-54 -22 -102 -22 q-61 0 -94 34 q-33 34 -33 84 q0 54 41 87.5 q41 33.5 103 33.5 q40 0 89.5 -22.5 q49.5 -22.5 113.5 -64.5 q91 47 145 69 q54 22 102 22 ZM186 304 q45 0 96.5 18.5 q51.5 18.5 118.5 52.5 q-117 77 -182 77 q-52 0 -86.5 -25.5 q-34.5 -25.5 -34.5 -60.5 q0 -28 23 -45 q23 -17 65 -17 ZM652 257 q52 0 86.5 25.5 q34.5 25.5 34.5 60.5 q0 28 -23 45 q-23 17 -65 17 q-45 0 -96.5 -18.5 q-51.5 -18.5 -118.5 -52.5 q117 -77 182 -77 Z" /><glyph glyph-name="integral" unicode="&#x222b;" d="M126 479 q0 81 11 142 q11 61 42 100 q23 30 56 45.5 q33 15.5 66 15.5 q33 0 50 -15 q17 -15 17 -38 q0 -21 -13 -34 q-13 -13 -34 -13 q-20 0 -32.5 13 q-12.5 13 -12.5 32 q0 23 16 40 l-2 0 q-39 -5 -56.5 -30 q-17.5 -25 -17.5 -80 l0 -492 q0 -81 -11 -142 q-11 -61 -42 -100 q-23 -30 -55.5 -45.5 q-32.5 -15.5 -65.5 -15.5 q-33 0 -50 15 q-17 15 -17 38 q0 21 13 34 q13 13 34 13 q20 0 32.5 -13 q12.5 -13 12.5 -32 q0 -23 -16 -40 l1 0 q40 5 57 29 q17 24 17 79 l0 494 Z" /><glyph glyph-name="product" unicode="&#x220f;" d="M805 688 q-36 -2 -52.5 -8 q-16.5 -6 -22.5 -23 q-6 -17 -6 -55 l0 -677 q0 -38 6 -55 q6 -17 22.5 -23 q16.5 -6 52.5 -8 l0 -20 q-42 3 -128 3 q-80 0 -127 -3 l0 20 q36 2 52.5 8 q16.5 6 22.5 23 q6 17 6 55 l0 677 q0 38 -6 55.5 q-6 17.5 -23 24 q-17 6.5 -52 6.5 l-163 0 q-35 0 -52 -6.5 q-17 -6.5 -23 -24 q-6 -17.5 -6 -55.5 l0 -677 q0 -38 6 -55 q6 -17 22.5 -23 q16.5 -6 52.5 -8 l0 -20 q-46 3 -127 3 q-86 0 -128 -3 l0 20 q36 2 52.5 8 q16.5 6 22.5 23 q6 17 6 55 l0 677 q0 38 -6 55 q-6 17 -22.5 23 q-16.5 6 -52.5 8 l0 20 q42 -3 128 -3 q36 0 59 1 q70 2 153 2 q75 0 145 -2 q23 -1 60 -1 q86 0 128 3 l0 -20 Z" /><glyph glyph-name="summation" unicode="&#x2211;" d="M618 138 q0 -61 7 -138 q-77 3 -259 3 q-167 0 -243 -3 l0 20 l275 300 l-265 368 l0 20 q73 -3 233 -3 q175 0 249 3 q-7 -66 -7 -118 q0 -39 3 -62 l-23 0 q-7 65 -18 96.5 q-11 31.5 -37 46 q-26 14.5 -79 14.5 l-195 0 l222 -306 l-326 -356 l249 0 q68 0 107.5 19 q39.5 19 59.5 61 q20 42 27 117 l23 0 q-3 -31 -3 -82 Z" /><glyph glyph-name="radical" unicode="&#x221a;" d="M741 751 l-20 -1 q-83 -4 -99 -7 q-19 -3 -29 -12.5 q-10 -9.5 -19 -35.5 l-211 -700 l-16 0 l-140 337 q-12 29 -29.5 43 q-17.5 14 -45 19.5 q-27.5 5.5 -79.5 8.5 l0 21 q39 -6 88 -6 q58 0 150 6 l0 -21 q-12 0 -12 -13 q0 -10 6 -25 l96 -238 l177 585 q5 18 5 26 q0 13 -14 13 l0 21 q37 -4 85 -4 q67 0 107 4 l0 -21 Z" /><glyph glyph-name="partialdiff" unicode="&#x2202;" d="M385 722 q47 0 71 -50.5 q24 -50.5 24 -137.5 q0 -129 -49 -257 q-49 -128 -133.5 -209.5 q-84.5 -81.5 -182.5 -81.5 q-44 0 -73 28.5 q-29 28.5 -29 89.5 q0 85 49 170.5 q49 85.5 123 140.5 q74 55 144 55 q43 0 70 -41 q27 -41 26 -116 q35 85 35 179 q0 64 -26.5 98.5 q-26.5 34.5 -77.5 34.5 q-39 0 -93.5 -13 q-54.5 -13 -107.5 -44 l-8 11 q66 71 121.5 107 q55.5 36 116.5 36 ZM131 92 q94 0 167 53.5 q73 53.5 116 141.5 q-18 91 -128 91 q-60 0 -116.5 -29 q-56.5 -29 -91.5 -79.5 q-35 -50.5 -35 -110.5 q0 -67 88 -67 Z" /><glyph glyph-name="percent" unicode="%" d="M839 811 l-833 -866 l-15 13 l833 866 l15 -13 ZM112 534 q0 53 27.5 106 q27.5 53 75 87 q47.5 34 104.5 34 q53 0 82 -27.5 q29 -27.5 29 -76.5 q0 -53 -27 -106 q-27 -53 -74.5 -87 q-47.5 -34 -104.5 -34 q-53 0 -82.5 27 q-29.5 27 -29.5 77 ZM311 743 q-40 0 -70 -40 q-30 -40 -46 -94 q-16 -54 -16 -94 q0 -67 52 -67 q40 0 70 40 q30 40 46 94.5 q16 54.5 16 94.5 q0 33 -13.5 49.5 q-13.5 16.5 -38.5 16.5 ZM376 90 q0 53 27.5 106 q27.5 53 75 87 q47.5 34 104.5 34 q53 0 82 -27.5 q29 -27.5 29 -76.5 q0 -53 -27 -106 q-27 -53 -74.5 -87 q-47.5 -34 -104.5 -34 q-53 0 -82.5 27 q-29.5 27 -29.5 77 ZM575 299 q-40 0 -70 -40 q-30 -40 -46 -94 q-16 -54 -16 -94 q0 -67 52 -67 q40 0 70 40 q30 40 46 94.5 q16 54.5 16 94.5 q0 33 -13.5 49.5 q-13.5 16.5 -38.5 16.5 Z" /><glyph glyph-name="perthousand" unicode="&#x2030;" d="M842 811 l-833 -866 l-15 13 l833 866 l15 -13 ZM115 534 q0 53 27.5 106 q27.5 53 75 87 q47.5 34 104.5 34 q53 0 82 -27.5 q29 -27.5 29 -76.5 q0 -53 -27 -106 q-27 -53 -74.5 -87 q-47.5 -34 -104.5 -34 q-53 0 -82.5 27 q-29.5 27 -29.5 77 ZM314 743 q-40 0 -70 -40 q-30 -40 -46 -94 q-16 -54 -16 -94 q0 -67 52 -67 q40 0 70 40 q30 40 46 94.5 q16 54.5 16 94.5 q0 33 -13.5 49.5 q-13.5 16.5 -38.5 16.5 ZM379 90 q0 53 27.5 106 q27.5 53 75 87 q47.5 34 104.5 34 q53 0 82 -27.5 q29 -27.5 29 -76.5 q0 -53 -27 -106 q-27 -53 -74.5 -87 q-47.5 -34 -104.5 -34 q-53 0 -82.5 27 q-29.5 27 -29.5 77 ZM753 90 q0 53 27.5 106 q27.5 53 75 87 q47.5 34 104.5 34 q53 0 82 -27.5 q29 -27.5 29 -76.5 q0 -53 -27 -106 q-27 -53 -74.5 -87 q-47.5 -34 -104.5 -34 q-53 0 -82.5 27 q-29.5 27 -29.5 77 ZM578 299 q-40 0 -70 -40 q-30 -40 -46 -94 q-16 -54 -16 -94 q0 -67 52 -67 q40 0 70 40 q30 40 46 94.5 q16 54.5 16 94.5 q0 33 -13.5 49.5 q-13.5 16.5 -38.5 16.5 ZM952 299 q-40 0 -70 -40 q-30 -40 -46 -94 q-16 -54 -16 -94 q0 -67 52 -67 q40 0 70 40 q30 40 46 94.5 q16 54.5 16 94.5 q0 33 -13.5 49.5 q-13.5 16.5 -38.5 16.5 Z" /><glyph glyph-name="arrowup" unicode="&#x2191;" d="M434 362 q-87 41 -179 43 l0 -125 q23 -62 66.5 -107 q43.5 -45 112.5 -76 l0 -17 q-76 35 -120.5 78 q-44.5 43 -66.5 103 q-22 -60 -66.5 -103 q-44.5 -43 -120.5 -78 l0 17 q69 31 112.5 76 q43.5 45 66.5 107 l0 125 q-92 -2 -179 -43 l0 17 q75 34 120.5 84.5 q45.5 50.5 66.5 122.5 q21 -72 66.5 -122.5 q45.5 -50.5 120.5 -84.5 l0 -17 ZM247 214 q21 -72 66.5 -122.5 q45.5 -50.5 120.5 -84.5 l0 -17 q-76 35 -120.5 78 q-44.5 43 -66.5 103 q-22 -60 -66.5 -103 q-44.5 -43 -120.5 -78 l0 17 q75 34 120.5 84.5 q45.5 50.5 66.5 122.5 Z" /><glyph glyph-name="arrowdown" unicode="&#x2193;" d="M247 405 q22 60 66.5 103 q44.5 43 120.5 78 l0 -17 q-75 -34 -120.5 -84.5 q-45.5 -50.5 -66.5 -122.5 q-21 72 -66.5 122.5 q-45.5 50.5 -120.5 84.5 l0 17 q76 -35 120.5 -78 q44.5 -43 66.5 -103 ZM247 315 q22 60 66.5 103 q44.5 43 120.5 78 l0 -17 q-69 -31 -112.5 -76 q-43.5 -45 -66.5 -107 l0 -125 q92 2 179 43 l0 -17 q-75 -34 -120.5 -84.5 q-45.5 -50.5 -66.5 -122.5 q-21 72 -66.5 122.5 q-45.5 50.5 -120.5 84.5 l0 17 q87 -41 179 -43 l0 125 q-23 62 -66.5 107 q-43.5 45 -112.5 76 l0 17 q76 -35 120.5 -78 q44.5 -43 66.5 -103 Z" /><glyph glyph-name="uni2199" unicode="&#x2199;" d="M359 284 q54 25 115 25 q63 0 145 -30 l-12 -12 q-70 26 -131 26 q-77 0 -148 -40 q40 71 40 148 q0 61 -26 131 l12 12 q30 -82 30 -145 q0 -61 -25 -115 ZM295 220 q56 25 116 25 q66 0 144 -29 l-12 -12 q-70 26 -130 26 q-62 0 -124 -28 l-90 -89 q63 -62 157 -97 l-12 -12 q-70 26 -131 26 q-77 0 -148 -40 q40 71 40 148 q0 61 -26 131 l12 12 q35 -94 97 -157 l89 90 q28 62 28 124 q0 60 -26 130 l12 12 q29 -78 29 -144 q0 -60 -25 -116 Z" /><glyph glyph-name="arrowleft" unicode="&#x2190;" d="M350 264 q60 -22 103 -66.5 q43 -44.5 78 -120.5 l-17 0 q-31 69 -76 112.5 q-45 43.5 -107 66.5 l-125 0 q2 -92 43 -179 l-17 0 q-34 75 -84.5 120.5 q-50.5 45.5 -122.5 66.5 q72 21 122.5 66.5 q50.5 45.5 84.5 120.5 l17 0 q-41 -87 -43 -179 l125 0 q62 23 107 66.5 q45 43.5 76 112.5 l17 0 q-35 -76 -78 -120.5 q-43 -44.5 -103 -66.5 ZM440 264 q60 -22 103 -66.5 q43 -44.5 78 -120.5 l-17 0 q-34 75 -84.5 120.5 q-50.5 45.5 -122.5 66.5 q72 21 122.5 66.5 q50.5 45.5 84.5 120.5 l17 0 q-35 -76 -78 -120.5 q-43 -44.5 -103 -66.5 Z" /><glyph glyph-name="uni2196" unicode="&#x2196;" d="M555 318 q-78 -29 -144 -29 q-60 0 -116 25 q25 -56 25 -116 q0 -66 -29 -144 l-12 12 q26 70 26 130 q0 62 -28 124 l-89 90 q-62 -63 -97 -157 l-12 12 q26 70 26 131 q0 77 -40 148 q71 -40 148 -40 q61 0 131 26 l12 -12 q-94 -35 -157 -97 l90 -89 q62 -28 124 -28 q60 0 130 26 l12 -12 ZM619 255 q-82 -30 -145 -30 q-61 0 -115 25 q25 -54 25 -115 q0 -62 -30 -145 l-12 12 q26 70 26 131 q0 77 -40 148 q71 -40 148 -40 q61 0 131 26 l12 -12 Z" /><glyph glyph-name="arrowboth" unicode="&#x2194;" d="M443 451 q34 -75 84.5 -120.5 q50.5 -45.5 122.5 -66.5 q-72 -21 -122.5 -66.5 q-50.5 -45.5 -84.5 -120.5 l-17 0 q41 87 43 179 l-263 0 q2 -92 43 -179 l-17 0 q-34 75 -84.5 120.5 q-50.5 45.5 -122.5 66.5 q72 21 122.5 66.5 q50.5 45.5 84.5 120.5 l17 0 q-41 -87 -43 -179 l263 0 q-2 92 -43 179 l17 0 Z" /><glyph glyph-name="lozenge" unicode="&#x25ca;" d="M463 288 l-210 -467 l-16 0 l-210 425 l210 467 l16 0 l210 -425 ZM86 329 l196 -395 l121 271 l-195 395 l-122 -271 Z" /><glyph glyph-name="filledbox" unicode="&#x25a0;" d="M498 467 l0 -416 l-397 0 l0 416 l397 0 Z" /><glyph glyph-name="uni25A1" unicode="&#x25a1;" d="M498 467 l0 -416 l-397 0 l0 416 l397 0 ZM478 70 l0 378 l-357 0 l0 -378 l357 0 Z" /><glyph glyph-name="at" unicode="@" d="M534 26 q-72 0 -72 65 q0 21 9 55 q-30 -62 -65 -91 q-35 -29 -83 -29 q-54 0 -78.5 33 q-24.5 33 -24.5 88 q0 74 39 152 q39 78 100 128.5 q61 50.5 121 50.5 q60 0 66 -64 l14 50 q57 0 90 14 l-106 -367 q-6 -21 -6 -34 q0 -14 7 -20 q7 -6 22 -6 q38 0 95 42.5 q57 42.5 99.5 120.5 q42.5 78 42.5 180 q0 131 -81.5 193.5 q-81.5 62.5 -209.5 62.5 q-120 0 -227.5 -69.5 q-107.5 -69.5 -172 -186 q-64.5 -116.5 -64.5 -249.5 q0 -147 81.5 -217.5 q81.5 -70.5 218.5 -70.5 q116 0 206 54 l7 -13 q-39 -27 -94 -43 q-55 -16 -120 -16 q-146 0 -232.5 75.5 q-86.5 75.5 -86.5 228.5 q0 134 65 255 q65 121 176 195.5 q111 74.5 242 74.5 q140 0 226 -68 q86 -68 86 -207 q0 -106 -46.5 -190 q-46.5 -84 -114.5 -130.5 q-68 -46.5 -129 -46.5 ZM357 56 q37 0 72 51 q35 51 75 157 l34 121 q-1 37 -14.5 53.5 q-13.5 16.5 -39.5 16.5 q-47 0 -88 -45.5 q-41 -45.5 -66 -116 q-25 -70.5 -25 -140.5 q0 -97 52 -97 Z" /><glyph glyph-name="ampersand" unicode="&amp;" d="M743 722 q58 0 91.5 -28 q33.5 -28 33.5 -86 q0 -51 -29 -90 q-29 -39 -93 -71 q-44 -22 -160 -64 q73 -61 73 -150 q0 -67 -40 -123.5 q-40 -56.5 -115.5 -90 q-75.5 -33.5 -177.5 -33.5 q-133 0 -210.5 56.5 q-77.5 56.5 -77.5 154.5 q0 88 60.5 156.5 q60.5 68.5 154.5 94.5 q-34 18 -52 48 q-18 30 -18 64 q0 44 29.5 76 q29.5 32 75.5 49 q46 17 93 17 q56 0 89.5 -24 q33.5 -24 33.5 -63 q0 -36 -26 -55.5 q-26 -19.5 -59 -19.5 l2 18 q28 0 45 14.5 q17 14.5 17 40.5 q0 33 -27.5 53 q-27.5 20 -69.5 20 q-61 0 -101 -42 q-40 -42 -40 -107 q0 -46 22 -83 q36 6 63 6 q36 0 36 -21 q0 -10 -9 -15.5 q-9 -5.5 -22 -5.5 q-25 0 -69 22 q-68 -20 -110.5 -74.5 q-42.5 -54.5 -42.5 -122.5 q0 -87 69.5 -135 q69.5 -48 181.5 -48 q77 0 140 23 q63 23 99 65.5 q36 42.5 36 97.5 q0 36 -17 71.5 q-17 35.5 -50 59.5 l-127 -47 q-45 -17 -75 -40 q-30 -23 -30 -59 q0 -31 24.5 -49 q24.5 -18 60.5 -18 q39 0 64 19 q25 19 38 40 l13 -9 q-40 -66 -119 -66 q-46 0 -77 23 q-31 23 -31 75 q0 58 41.5 96 q41.5 38 124.5 69 l49 18 q51 18 112.5 40.5 q61.5 22.5 97.5 40.5 q49 23 76 49.5 q27 26.5 27 61.5 q0 37 -28.5 61.5 q-28.5 24.5 -70.5 24.5 q-26 0 -32 -9 q10 -6 15.5 -16 q5.5 -10 5.5 -22 q0 -23 -20 -40 q-20 -17 -46 -17 q-20 0 -32.5 11 q-12.5 11 -12.5 31 q0 21 14 37 q14 16 36 26 q32 14 73 14 Z" /><glyph glyph-name="paragraph" unicode="¶" d="M354 -13 q-166 0 -242 64 q-76 64 -76 178 q0 131 62.5 241 q62.5 110 170.5 174.5 q108 64.5 238 64.5 q29 0 81 -2 l69 -1 q40 0 60 2 l-5 -19 q-46 -2 -65.5 -17.5 q-19.5 -15.5 -29.5 -50.5 l-139 -528 q-35 -131 -95 -206 q-60 -75 -150 -75 q-46 0 -73.5 14 q-27.5 14 -28.5 41 q0 22 18 41.5 q18 19.5 41 19.5 q15 0 24 -8.5 q9 -8.5 9 -22.5 q0 -33 -35 -64 q15 -5 35 -5 q50 0 79 40.5 q29 40.5 52 118.5 ZM418 337 q-24 -91 -36 -168.5 q-12 -77.5 -12 -109.5 q0 -11 2 -11 q25 94 80.5 302.5 q55.5 208.5 82.5 305.5 q-3 0 -22 -42.5 q-19 -42.5 -43 -109 q-24 -66.5 -44 -138.5 q-102 0 -192.5 -6 q-90.5 -6 -91.5 -9 q-1 -4 85 -9 q86 -5 191 -5 Z" /><glyph glyph-name="section" unicode="§" d="M411 663 q0 23 16.5 40 q16.5 17 41.5 24 q-6 20 -32.5 28 q-26.5 8 -55.5 8 q-58 0 -100 -32 q-42 -32 -42 -101 q0 -31 17 -58 q17 -27 38 -46.5 q21 -19.5 67 -58.5 q54 -46 79 -79.5 q25 -33.5 25 -75.5 q0 -64 -44.5 -114.5 q-44.5 -50.5 -116.5 -86.5 q43 -48 43 -102 q0 -54 -30.5 -99.5 q-30.5 -45.5 -81.5 -71.5 q-51 -26 -108 -26 q-53 0 -96.5 23 q-43.5 23 -43.5 70 q0 26 19.5 47 q19.5 21 47.5 21 q20 0 31.5 -10.5 q11.5 -10.5 11.5 -29.5 q0 -24 -16.5 -41.5 q-16.5 -17.5 -41.5 -24.5 q6 -19 33.5 -27.5 q27.5 -8.5 54.5 -8.5 q59 0 100.5 32.5 q41.5 32.5 41.5 102.5 q0 30 -17 57 q-17 27 -37 45 q-20 18 -68 59 q-54 46 -79 79.5 q-25 33.5 -25 75.5 q0 64 44.5 114.5 q44.5 50.5 116.5 86.5 q-43 48 -43 102 q0 54 30.5 99.5 q30.5 45.5 81.5 71.5 q51 26 108 26 q52 0 96.5 -23 q44.5 -23 44.5 -67 q0 -28 -19.5 -49.5 q-19.5 -21.5 -48.5 -21.5 q-20 0 -31.5 11.5 q-11.5 11.5 -11.5 30.5 ZM279 414 q-44 35 -64 56 q-107 -57 -107 -132 q0 -36 26.5 -68 q26.5 -32 78.5 -76 l16 -14 q44 -35 64 -56 q107 57 107 132 q0 37 -26 68.5 q-26 31.5 -79 75.5 l-16 14 Z" /><glyph glyph-name="copyright" unicode="©" d="M88 384 q0 108 53.5 199.5 q53.5 91.5 145 145 q91.5 53.5 199.5 53.5 q108 0 199.5 -53.5 q91.5 -53.5 145 -145 q53.5 -91.5 53.5 -199.5 q0 -108 -53.5 -199.5 q-53.5 -91.5 -145 -145 q-91.5 -53.5 -199.5 -53.5 q-108 0 -199.5 53.5 q-91.5 53.5 -145 145 q-53.5 91.5 -53.5 199.5 ZM128 384 q0 -99 48 -183 q48 -84 130.5 -133.5 q82.5 -49.5 179.5 -49.5 q97 0 179.5 49.5 q82.5 49.5 130.5 133.5 q48 84 48 183 q0 99 -48 183 q-48 84 -130.5 133.5 q-82.5 49.5 -179.5 49.5 q-97 0 -179.5 -49.5 q-82.5 -49.5 -130.5 -133.5 q-48 -84 -48 -183 ZM509 156 q44 0 82.5 25 q38.5 25 63.5 78 l19 -7 q-17 -57 -63.5 -98 q-46.5 -41 -119.5 -41 q-63 0 -113.5 32 q-50.5 32 -79.5 92 q-29 60 -29 141 q0 81 29.5 144.5 q29.5 63.5 82.5 98.5 q53 35 122 35 q65 0 113.5 -30.5 q48.5 -30.5 48.5 -78.5 q0 -26 -15 -41 q-15 -15 -38 -15 q-23 0 -39 14.5 q-16 14.5 -16 39.5 q0 21 11.5 34 q11.5 13 30.5 17 q-10 18 -35.5 30 q-25.5 12 -54.5 12 q-59 0 -101 -58 q-42 -58 -42 -190 q0 -121 40 -177.5 q40 -56.5 103 -56.5 Z" /><glyph glyph-name="registered" unicode="®" d="M405 782 q76 0 140 -37.5 q64 -37.5 101.5 -101.5 q37.5 -64 37.5 -140 q0 -76 -37.5 -140 q-37.5 -64 -101.5 -101.5 q-64 -37.5 -140 -37.5 q-76 0 -140 37.5 q-64 37.5 -101.5 101.5 q-37.5 64 -37.5 140 q0 76 37.5 140 q37.5 64 101.5 101.5 q64 37.5 140 37.5 ZM405 256 q65 0 119.5 33.5 q54.5 33.5 86 90 q31.5 56.5 31.5 123.5 q0 67 -31.5 123.5 q-31.5 56.5 -86 90 q-54.5 33.5 -119.5 33.5 q-65 0 -119.5 -33.5 q-54.5 -33.5 -86 -90 q-31.5 -56.5 -31.5 -123.5 q0 -67 31.5 -123.5 q31.5 -56.5 86 -90 q54.5 -33.5 119.5 -33.5 ZM542 364 q8 0 12 8 l10 -7 q-6 -12 -16.5 -16.5 q-10.5 -4.5 -27.5 -4.5 q-25 0 -37.5 9.5 q-12.5 9.5 -17.5 31.5 l-17 74 q-4 20 -11 29 q-7 9 -24 12.5 q-17 3.5 -53 4.5 l0 -101 q0 -23 4 -29 q4 -6 19 -8 l0 -15 l-51 1 l-52 -1 l0 15 q15 2 19 8 q4 6 4 29 l0 219 q0 23 -4 29.5 q-4 6.5 -19 8.5 l0 15 q12 -1 48 -1 l86 1 q57 0 86.5 -20.5 q29.5 -20.5 29.5 -58.5 q0 -68 -98 -85 q40 -4 57 -17.5 q17 -13.5 23 -40.5 l12 -57 q1 -4 3 -14 q2 -10 5.5 -14.5 q3.5 -4.5 9.5 -4.5 ZM398 661 q-24 0 -31 -6.5 q-7 -6.5 -7 -26.5 l0 -107 l24 0 q49 0 66.5 17 q17.5 17 17.5 49 q0 38 -16 56 q-16 18 -54 18 Z" /><glyph glyph-name="trademark" unicode="&#x2122;" d="M252 685 q-29 0 -44.5 -26.5 q-15.5 -26.5 -19.5 -90.5 l-23 0 q3 20 3 52 q0 39 -7 88 q53 -3 182 -3 q128 0 181 3 q-7 -49 -7 -88 q0 -32 3 -52 l-23 0 q-4 64 -19.5 90.5 q-15.5 26.5 -44.5 26.5 l-54 0 l0 -299 q0 -29 5 -42 q5 -13 19.5 -17.5 q14.5 -4.5 46.5 -6.5 l0 -20 q-41 3 -107 3 q-72 0 -108 -3 l0 20 q32 2 46 6.5 q14 4.5 19.5 17.5 q5.5 13 5.5 42 l0 299 l-54 0 ZM991 705 q49 0 77 3 l0 -20 q-23 -2 -33 -6 q-10 -4 -14 -14.5 q-4 -10.5 -4 -35.5 l0 -256 q0 -25 3.5 -36 q3.5 -11 13.5 -14.5 q10 -3.5 34 -5.5 l0 -20 q-33 3 -87 3 q-51 0 -78 -3 l0 20 q18 2 26.5 6 q8.5 4 11.5 14.5 q3 10.5 3 35.5 l0 266 l-131 -347 l-16 0 l-142 349 l0 -268 q0 -25 3 -35.5 q3 -10.5 11.5 -14.5 q8.5 -4 26.5 -6 l0 -20 q-21 3 -52 3 q-40 0 -63 -3 l0 20 q24 2 34 5.5 q10 3.5 13.5 14.5 q3.5 11 3.5 36 l0 256 q0 25 -3.5 36 q-3.5 11 -13.5 14.5 q-10 3.5 -34 5.5 l0 20 q23 -3 63 -3 q35 0 68 3 l121 -297 l111 294 l47 0 Z" /><glyph glyph-name="uni2105" unicode="&#x2105;" d="M872 811 l-833 -866 l-15 13 l833 866 l15 -13 ZM342 751 q-40 0 -77 -26.5 q-37 -26.5 -59.5 -74 q-22.5 -47.5 -22.5 -106.5 q0 -99 80 -99 q57 0 113 65 l11 -9 q-26 -39 -66.5 -65.5 q-40.5 -26.5 -88.5 -26.5 q-55 0 -88.5 34.5 q-33.5 34.5 -33.5 90.5 q0 55 30.5 110.5 q30.5 55.5 83.5 91 q53 35.5 118 35.5 q39 0 66.5 -22 q27.5 -22 27.5 -60 q0 -24 -17.5 -43.5 q-17.5 -19.5 -45.5 -19.5 q-16 0 -25.5 9.5 q-9.5 9.5 -9.5 24.5 q0 24 19 42.5 q19 18.5 42 20.5 q-7 14 -20.5 21 q-13.5 7 -36.5 7 ZM448 90 q0 53 25.5 113 q25.5 60 74 102 q48.5 42 112.5 42 q54 0 84.5 -26.5 q30.5 -26.5 30.5 -78.5 q0 -53 -25.5 -113 q-25.5 -60 -74 -101.5 q-48.5 -41.5 -112.5 -41.5 q-54 0 -84.5 26.5 q-30.5 26.5 -30.5 77.5 ZM655 329 q-35 0 -66.5 -41 q-31.5 -41 -50 -103.5 q-18.5 -62.5 -18.5 -122.5 q0 -58 48 -58 q35 0 66.5 41 q31.5 41 50 103.5 q18.5 62.5 18.5 122.5 q0 58 -48 58 Z" /><glyph glyph-name="degree" unicode="°" d="M261 820 q51 0 86.5 -33 q35.5 -33 35.5 -87 q0 -54 -35.5 -87.5 q-35.5 -33.5 -86.5 -33.5 q-50 0 -85.5 33.5 q-35.5 33.5 -35.5 87.5 q0 54 35.5 87 q35.5 33 85.5 33 ZM261 596 q38 0 67.5 27 q29.5 27 29.5 76 q0 48 -30 76 q-30 28 -67 28 q-37 0 -66.5 -28 q-29.5 -28 -29.5 -76 q0 -49 29 -76 q29 -27 67 -27 Z" /><glyph glyph-name="bar" unicode="|" d="M189 -195 l-40 0 l0 1053 l40 0 l0 -1053 Z" /><glyph glyph-name="brokenbar" unicode="¦" d="M191 384 l-40 0 l0 474 l40 0 l0 -474 ZM151 326 l40 0 l0 -521 l-40 0 l0 521 Z" /><glyph glyph-name="dagger" unicode="&#x2020;" d="M292 657 q21 0 21 -25 q0 -11 -3 -20 q-7 0 -13.5 -16.5 q-6.5 -16.5 -15.5 -47.5 q-10 -34 -18 -53.5 q-8 -19.5 -17 -24.5 l-8 0 q-5 3 -5 15 q0 15 12 63 q10 42 10 54 q0 10 -5 10 q14 45 42 45 ZM393 455 l-44 -25 l-111 24 l-123 -24 l-32 25 l45 25 l110 -25 l124 25 l31 -25 ZM247 435 l0 -24 q0 -19 10 -26 q-39 -145 -95.5 -324.5 q-56.5 -179.5 -86.5 -216.5 q-2 10 -2 20 q0 63 38.5 232.5 q38.5 169.5 71.5 288.5 q9 5 15 13 q6 8 11 18.5 q5 10.5 10 18.5 l16 6 l12 -6 Z" /><glyph glyph-name="daggerdbl" unicode="&#x2021;" d="M298 657 q21 0 21 -25 q0 -2 -3 -20 q-7 0 -13.5 -15.5 q-6.5 -15.5 -16.5 -49.5 q-11 -36 -18 -54 q-7 -18 -16 -23 l-8 0 q-5 3 -5 15 q0 17 12 65 q10 42 10 52 q0 10 -5 10 q4 16 14.5 30.5 q10.5 14.5 27.5 14.5 ZM399 455 l-45 -25 l-111 24 l-123 -24 l-31 25 l44 25 l111 -25 l123 25 l32 -25 ZM252 435 q0 -7 0 -18.5 q0 -11.5 2 -19 q2 -7.5 8 -12.5 q-11 -39 -21 -72 l-21 -65 q-12 -52 -17 -77 q-8 -36 -16 -65 q-10 -6 -16 -14 q-6 -8 -11 -18.5 q-5 -10.5 -9 -17.5 l-16 -6 l-12 6 q-1 8 -0.5 13.5 q0.5 5.5 0.5 8.5 q0 20 -10 28 q4 17 20 69 l23 73 l17 75 q4 21 15 62 q10 5 15.5 13 q5.5 8 10.5 18.5 q5 10.5 10 18.5 l16 6 l12 -6 ZM286 36 l-44 -25 l-111 24 l-122 -24 l-32 25 l44 25 l110 -25 l124 25 l31 -25 ZM131 21 q5 -3 5 -15 q0 -17 -12 -65 q-10 -42 -10 -52 q0 -10 5 -10 q-4 -16 -14.5 -30.5 q-10.5 -14.5 -27.5 -14.5 q-21 0 -21 25 q0 2 3 20 q7 0 13.5 15.5 q6.5 15.5 16.5 49.5 q11 36 18 54 q7 18 16 23 l8 0 Z" /><glyph glyph-name="uni2116" unicode="&#x2116;" d="M618 682 q-44 -66 -92 -232.5 q-48 -166.5 -109 -454.5 l-1 3 l-1 -3 l-22 0 l-100 636 q-47 -247 -90.5 -418 q-43.5 -171 -83.5 -224 q-22 -29 -46.5 -46 q-24.5 -17 -60.5 -17 q-60 0 -60 52 q0 27 16 49 q16 22 43 22 q20 0 29 -11.5 q9 -11.5 9 -27.5 q0 -16 -9 -33 q-9 -17 -23 -30 l5 0 q23 0 44.5 14 q21.5 14 36.5 38 q37 59 77 211 q40 152 87 392 q6 29 6 45 q0 24 -16 31.5 q-16 7.5 -61 9.5 l5 20 q31 -3 89 -3 q46 0 81 3 l75 -493 q39 171 77 294.5 q38 123.5 77 180.5 q44 64 108 64 q32 0 46 -14 q14 -14 14 -37 q0 -27 -16 -49.5 q-16 -22.5 -43 -22.5 q-20 0 -29 11.5 q-9 11.5 -9 27.5 q0 16 9 33 q9 17 23 30 l-4 0 q-47 0 -81 -51 ZM682 325 q0 53 25.5 113 q25.5 60 74 102 q48.5 42 112.5 42 q54 0 84.5 -26.5 q30.5 -26.5 30.5 -78.5 q0 -53 -25.5 -113 q-25.5 -60 -74 -101.5 q-48.5 -41.5 -112.5 -41.5 q-54 0 -84.5 26.5 q-30.5 26.5 -30.5 77.5 ZM889 564 q-35 0 -66.5 -41 q-31.5 -41 -50 -103.5 q-18.5 -62.5 -18.5 -122.5 q0 -58 48 -58 q35 0 66.5 41 q31.5 41 50 103.5 q18.5 62.5 18.5 122.5 q0 58 -48 58 ZM636 154 l344 0 l-7 -20 l-344 0 l7 20 ZM613 81 l344 0 l-7 -20 l-344 0 l7 20 Z" /><glyph glyph-name="asciicircum" unicode="^" d="M289 442 q-38 -33 -92 -65.5 q-54 -32.5 -108 -54.5 l-4 14 q72 31 135.5 82.5 q63.5 51.5 102.5 109.5 l18 0 q8 -58 44 -109.5 q36 -51.5 92 -82.5 l-12 -14 q-54 22 -102.5 54.5 q-48.5 32.5 -73.5 65.5 Z" /><glyph glyph-name="minute" unicode="&#x2032;" d="M83 402 l316 306 l-121 0 l-208 -295 l13 -11 Z" /><glyph glyph-name="uni0308" unicode="&#x308;" d="M-242 678 q0 24 20.5 44.5 q20.5 20.5 46.5 20.5 q21 0 35.5 -14.5 q14.5 -14.5 14.5 -35.5 q0 -25 -20 -45.5 q-20 -20.5 -47 -20.5 q-22 0 -36 14.5 q-14 14.5 -14 36.5 ZM-30 678 q0 24 20.5 44.5 q20.5 20.5 46.5 20.5 q21 0 35.5 -14.5 q14.5 -14.5 14.5 -35.5 q0 -25 -20 -45.5 q-20 -20.5 -47 -20.5 q-22 0 -36 14.5 q-14 14.5 -14 36.5 Z" /><glyph glyph-name="uni0307" unicode="&#x307;" d="M-33 688 q0 28 21.5 52.5 q21.5 24.5 52.5 24.5 q23 0 37 -14.5 q14 -14.5 14 -36.5 q0 -28 -22 -52.5 q-22 -24.5 -53 -24.5 q-22 0 -36 14.5 q-14 14.5 -14 36.5 Z" /><glyph glyph-name="gravecomb" unicode="&#x300;" d="M54 599 q-37 51 -92 118 q-5 6 -22.5 27.5 q-17.5 21.5 -28.5 39.5 q-10 17 -10 32 q0 20 16 28 q7 3 16 3 q25 0 43 -31 q10 -17 33 -75 q26 -69 58 -136 l-13 -6 Z" /><glyph glyph-name="acutecomb" unicode="&#x301;" d="M-108 608 q39 47 92 118 q38 52 58 72 q19 22 41 22 q14 0 22 -7 q8 -8 8 -19 q0 -20 -23 -43 q-22 -23 -68 -55 q-7 -5 -42 -32.5 q-35 -27.5 -78 -64.5 l-10 9 Z" /><glyph glyph-name="uni030B" unicode="&#x30b;" d="M-250 608 q37 59 69 121 q23 46 40 69 q16 22 38 22 q14 0 22 -7 q14 -12 14 -28 q0 -15 -14 -34 q-20 -25 -57 -55 q-7 -6 -36.5 -33.5 q-29.5 -27.5 -64.5 -63.5 l-11 9 ZM-72 608 q37 59 69 121 q23 46 40 69 q17 22 38 22 q14 0 22 -7 q14 -12 14 -28 q0 -15 -14 -34 q-20 -25 -57 -55 q-7 -6 -36.5 -33.5 q-29.5 -27.5 -64.5 -63.5 l-11 9 Z" /><glyph glyph-name="uni0302" unicode="&#x302;" d="M-99 720 q-38 -30 -84 -58 q-46 -28 -91 -46 l-5 14 q65 28 122 74 q57 46 93 98 l18 0 q11 -63 38 -103 q27 -40 81 -69 l-4 -14 q-58 16 -95.5 41 q-37.5 25 -72.5 63 Z" /><glyph glyph-name="uni030C" unicode="&#x30c;" d="M-68 698 q38 30 84 58 q46 28 91 46 l5 -14 q-65 -28 -122 -74 q-57 -46 -93 -98 l-18 0 q-11 63 -38 103 q-27 40 -81 69 l4 14 q58 -16 95.5 -41 q37.5 -25 72.5 -63 Z" /><glyph glyph-name="uni0306" unicode="&#x306;" d="M-107 700 q49 0 107 23.5 q58 23.5 100 64.5 l10 -11 q-24 -34 -65 -67.5 q-41 -33.5 -86.5 -55 q-45.5 -21.5 -82.5 -21.5 q-52 0 -83.5 40.5 q-31.5 40.5 -41.5 105.5 l16 5 q23 -47 51 -65.5 q28 -18.5 75 -18.5 Z" /><glyph glyph-name="uni030A" unicode="&#x30a;" d="M4 791 q37 0 61.5 -22 q24.5 -22 24.5 -58 q0 -42 -33.5 -72.5 q-33.5 -30.5 -78.5 -30.5 q-36 0 -59.5 21.5 q-23.5 21.5 -23.5 58.5 q0 43 32 73 q32 30 77 30 ZM-18 629 q32 0 57 24 q25 24 25 59 q0 27 -19.5 42.5 q-19.5 15.5 -44.5 15.5 q-31 0 -55 -24.5 q-24 -24.5 -24 -56.5 q0 -28 18.5 -44 q18.5 -16 42.5 -16 Z" /><glyph glyph-name="tildecomb" unicode="&#x303;" d="M-139 768 q29 0 48 -10.5 q19 -10.5 40 -29.5 q19 -17 32.5 -25 q13.5 -8 32.5 -8 q38 0 70 58 l18 -5 q-22 -52 -57 -77.5 q-35 -25.5 -73 -25.5 q-29 0 -48 10.5 q-19 10.5 -40 29.5 q-19 17 -32.5 25 q-13.5 8 -32.5 8 q-38 0 -70 -58 l-18 5 q22 52 57 77.5 q35 25.5 73 25.5 Z" /><glyph glyph-name="uni0304" unicode="&#x304;" d="M87 687 l-312 0 l6 25 l312 0 l-6 -25 Z" /><glyph glyph-name="hookabovecomb" unicode="&#x309;" d="M-68 592 q3 28 14.5 46 q11.5 18 31.5 38 q20 19 29 34 q9 15 9 38 q0 52 -55 52 q-29 0 -44 -16 q11 -5 17.5 -15.5 q6.5 -10.5 6.5 -23.5 q0 -19 -14 -32.5 q-14 -13.5 -35 -13.5 q-19 0 -30.5 11 q-11.5 11 -11.5 29 q0 20 14.5 35.5 q14.5 15.5 38.5 26.5 q32 15 77 15 q46 0 75.5 -15.5 q29.5 -15.5 29.5 -49.5 q0 -25 -14.5 -39.5 q-14.5 -14.5 -45.5 -33.5 q-33 -19 -51.5 -37 q-18.5 -18 -21.5 -49 l-20 0 Z" /><glyph glyph-name="dotbelowcomb" unicode="&#x323;" d="M-224 -181 q-22 0 -36 13 q-14 13 -14 34 q0 27 19.5 46 q19.5 19 48.5 19 q23 0 36.5 -13.5 q13.5 -13.5 13.5 -33.5 q0 -29 -20.5 -47 q-20.5 -18 -47.5 -18 Z" /><glyph glyph-name="uni0326" unicode="&#x326;" d="M-175 -69 q26 0 40.5 -16.5 q14.5 -16.5 14.5 -41.5 q0 -37 -21 -66 q-21 -29 -77 -48 l-7 17 q27 8 49.5 25 q22.5 17 24.5 39 q-8 -7 -20 -11.5 q-12 -4.5 -24 -4.5 q-20 0 -32.5 11 q-12.5 11 -12.5 31 q0 24 18 44.5 q18 20.5 47 20.5 Z" /><glyph glyph-name="uni0327" unicode="&#x327;" d="M-196 -72 q19 7 41 7 q20 0 31.5 -10.5 q11.5 -10.5 11.5 -29.5 q0 -40 -38.5 -61.5 q-38.5 -21.5 -84.5 -21.5 q-26 0 -47.5 6.5 q-21.5 6.5 -32.5 15.5 l7 15 q29 -13 60 -13 q23 0 47.5 12.5 q24.5 12.5 24.5 38.5 q0 24 -28 24 q-16 0 -31 -7 l46 96 l27 0 l-34 -72 Z" /><glyph glyph-name="uni0328" unicode="&#x328;" d="M-114 3 q-43 -11 -80.5 -39 q-37.5 -28 -37.5 -66 q0 -19 10 -28.5 q10 -9.5 28 -9.5 q19 0 38 8.5 q19 8.5 30 22.5 l12 -11 q-56 -68 -122 -68 q-34 0 -53 16 q-19 16 -19 43 q0 44 47.5 77.5 q47.5 33.5 108.5 54.5 l38 0 Z" /><glyph glyph-name="uni0335" unicode="&#x335;" d="M67 608 l-344 0 l6 20 l344 0 l-6 -20 Z" /><glyph glyph-name="uni0337" unicode="&#x337;" d="M9 586 l13 -12 l-105 -128 l-10 17 l102 123 ZM-387 63 l-11 18 l295 382 l10 -17 l-294 -383 ZM-510 -73 l-14 13 l116 141 l11 -18 l-113 -136 Z" /><glyph glyph-name="uni0338" unicode="&#x338;" d="M43 773 l15 -13 l-140 -148 l-10 20 l135 141 ZM-99 632 l10 -20 l-494 -535 l-13 18 l497 537 ZM-732 -73 l-17 14 l145 154 l13 -18 l-141 -150 Z" /></font>
</defs>
</svg>
